# MagicaVoxel @ Ephtracy

# group
o 

# material
mtllib Arm.mtl
usemtl palette

# normals
vn -1 0 0
vn 1 0 0
vn 0 0 1
vn 0 0 -1
vn 0 -1 0
vn 0 1 0

# texcoords
vt 0.224609 0.5
vt 0.298828 0.5
vt 0.310547 0.5
vt 0.314453 0.5
vt 0.361328 0.5

# verts
v 0.3 2 0
v 0.3 2 -2.6
v 0.3 2 -2.7
v 0.3 2 -2.8
v 0.3 2 -3.4
v 0.3 2.1 -1
v 0.3 2.1 -1.3
v 0.3 2.2 -0.9
v 0.3 2.2 -1
v 0.3 2.2 -1.1
v 0.3 2.2 -1.2
v 0.3 2.2 -2.5
v 0.3 2.2 -2.6
v 0.3 2.2 -2.7
v 0.3 2.2 -2.8
v 0.3 2.3 -1
v 0.3 2.3 -1.1
v 0.3 2.3 -1.2
v 0.3 2.3 -1.3
v 0.3 2.3 -2.4
v 0.3 2.3 -2.5
v 0.3 2.3 -2.6
v 0.3 2.3 -2.7
v 0.3 2.4 -0.9
v 0.3 2.4 -1.2
v 0.3 2.4 -2.4
v 0.3 2.4 -2.5
v 0.3 2.4 -2.6
v 0.3 2.4 -2.8
v 0.3 2.5 -2.6
v 0.3 2.5 -2.8
v 0.3 2.5 -2.9
v 0.3 2.6 0
v 0.3 2.6 -2.5
v 0.3 2.6 -2.8
v 0.3 2.6 -2.9
v 0.3 2.6 -3.4
v 0.9 2 0
v 0.9 2 -1
v 0.9 2 -1.1
v 0.9 2 -2.5
v 0.9 2 -2.6
v 0.9 2 -2.7
v 0.9 2 -3.4
v 0.9 2.1 -1.7
v 0.9 2.1 -1.8
v 0.9 2.1 -2.5
v 0.9 2.1 -2.6
v 0.9 2.1 -2.7
v 0.9 2.1 -2.8
v 0.9 2.2 -1
v 0.9 2.2 -1.1
v 0.9 2.3 -1.6
v 0.9 2.3 -1.7
v 0.9 2.3 -2.5
v 0.9 2.3 -2.6
v 0.9 2.3 -2.7
v 0.9 2.3 -2.8
v 0.9 2.4 -1.5
v 0.9 2.4 -1.6
v 0.9 2.4 -1.8
v 0.9 2.4 -1.9
v 0.9 2.4 -2.5
v 0.9 2.4 -2.6
v 0.9 2.4 -2.7
v 0.9 2.4 -2.8
v 0.9 2.5 -1.6
v 0.9 2.5 -1.8
v 0.9 2.5 -2.7
v 0.9 2.5 -2.8
v 0.9 2.5 -2.9
v 0.9 2.6 0
v 0.9 2.6 -1.5
v 0.9 2.6 -1.6
v 0.9 2.6 -1.8
v 0.9 2.6 -1.9
v 0.9 2.6 -2.6
v 0.9 2.6 -2.8
v 0.9 2.6 -2.9
v 0.9 2.6 -3.4
v 0.3 2 0
v 0.3 2.6 0
v 0.9 2 0
v 0.9 2.6 0
v 0.3 2 -3.4
v 0.3 2.6 -3.4
v 0.9 2 -3.4
v 0.9 2.6 -3.4
v 0.3 2 0
v 0.9 2 0
v 0.7 2 -1
v 0.9 2 -1
v 0.6 2 -1.1
v 0.7 2 -1.1
v 0.9 2 -1.1
v 0.6 2 -1.4
v 0.7 2 -1.4
v 0.8 2 -2.5
v 0.9 2 -2.5
v 0.3 2 -2.6
v 0.4 2 -2.6
v 0.7 2 -2.6
v 0.8 2 -2.6
v 0.9 2 -2.6
v 0.3 2 -2.7
v 0.4 2 -2.7
v 0.7 2 -2.7
v 0.8 2 -2.7
v 0.9 2 -2.7
v 0.3 2 -2.8
v 0.4 2 -2.8
v 0.6 2 -2.8
v 0.5 2 -2.9
v 0.6 2 -2.9
v 0.7 2 -2.9
v 0.6 2 -3
v 0.7 2 -3
v 0.5 2 -3.2
v 0.7 2 -3.2
v 0.3 2 -3.4
v 0.9 2 -3.4
v 0.3 2.6 0
v 0.9 2.6 0
v 0.6 2.6 -1.5
v 0.9 2.6 -1.5
v 0.5 2.6 -1.6
v 0.6 2.6 -1.6
v 0.9 2.6 -1.6
v 0.6 2.6 -1.7
v 0.8 2.6 -1.7
v 0.6 2.6 -1.8
v 0.7 2.6 -1.8
v 0.8 2.6 -1.8
v 0.9 2.6 -1.8
v 0.6 2.6 -1.9
v 0.7 2.6 -1.9
v 0.8 2.6 -1.9
v 0.9 2.6 -1.9
v 0.5 2.6 -2
v 0.6 2.6 -2
v 0.7 2.6 -2
v 0.8 2.6 -2
v 0.6 2.6 -2.1
v 0.7 2.6 -2.1
v 0.4 2.6 -2.4
v 0.6 2.6 -2.4
v 0.3 2.6 -2.5
v 0.4 2.6 -2.5
v 0.6 2.6 -2.5
v 0.8 2.6 -2.5
v 0.4 2.6 -2.6
v 0.5 2.6 -2.6
v 0.6 2.6 -2.6
v 0.7 2.6 -2.6
v 0.8 2.6 -2.6
v 0.9 2.6 -2.6
v 0.7 2.6 -2.7
v 0.8 2.6 -2.7
v 0.3 2.6 -2.8
v 0.4 2.6 -2.8
v 0.5 2.6 -2.8
v 0.8 2.6 -2.8
v 0.9 2.6 -2.8
v 0.3 2.6 -2.9
v 0.4 2.6 -2.9
v 0.5 2.6 -2.9
v 0.6 2.6 -2.9
v 0.8 2.6 -2.9
v 0.9 2.6 -2.9
v 0.6 2.6 -3
v 0.7 2.6 -3
v 0.5 2.6 -3.2
v 0.7 2.6 -3.2
v 0.3 2.6 -3.4
v 0.9 2.6 -3.4

# faces
f 6/1/1 2/1/1 1/1/1
f 7/1/1 2/1/1 6/1/1
f 8/1/1 6/1/1 1/1/1
f 9/3/1 7/3/1 6/3/1
f 9/1/1 6/1/1 8/1/1
f 10/3/1 7/3/1 9/3/1
f 11/3/1 7/3/1 10/3/1
f 12/1/1 2/1/1 7/1/1
f 13/3/1 3/3/1 2/3/1
f 13/1/1 2/1/1 12/1/1
f 14/5/1 4/5/1 3/5/1
f 14/3/1 3/3/1 13/3/1
f 15/4/1 5/4/1 4/4/1
f 15/5/1 4/5/1 14/5/1
f 16/3/1 9/3/1 8/3/1
f 16/4/1 10/4/1 9/4/1
f 17/5/1 11/5/1 10/5/1
f 17/4/1 10/4/1 16/4/1
f 18/3/1 7/3/1 11/3/1
f 18/5/1 11/5/1 17/5/1
f 19/1/1 12/1/1 7/1/1
f 19/3/1 7/3/1 18/3/1
f 20/1/1 12/1/1 19/1/1
f 21/3/1 13/3/1 12/3/1
f 21/1/1 12/1/1 20/1/1
f 22/5/1 14/5/1 13/5/1
f 22/3/1 13/3/1 21/3/1
f 23/4/1 15/4/1 14/4/1
f 23/5/1 14/5/1 22/5/1
f 24/3/1 18/3/1 17/3/1
f 24/3/1 17/3/1 16/3/1
f 24/1/1 8/1/1 1/1/1
f 24/3/1 16/3/1 8/3/1
f 25/1/1 20/1/1 19/1/1
f 25/3/1 18/3/1 24/3/1
f 25/1/1 19/1/1 18/1/1
f 26/3/1 21/3/1 20/3/1
f 26/1/1 20/1/1 25/1/1
f 27/5/1 22/5/1 21/5/1
f 27/3/1 21/3/1 26/3/1
f 28/4/1 23/4/1 22/4/1
f 28/5/1 22/5/1 27/5/1
f 29/4/1 15/4/1 23/4/1
f 29/4/1 23/4/1 28/4/1
f 29/4/1 5/4/1 15/4/1
f 30/3/1 28/3/1 27/3/1
f 30/5/1 29/5/1 28/5/1
f 31/4/1 5/4/1 29/4/1
f 31/5/1 29/5/1 30/5/1
f 32/4/1 5/4/1 31/4/1
f 33/1/1 25/1/1 24/1/1
f 33/1/1 24/1/1 1/1/1
f 33/1/1 27/1/1 26/1/1
f 33/1/1 26/1/1 25/1/1
f 34/3/1 30/3/1 27/3/1
f 34/1/1 27/1/1 33/1/1
f 34/3/1 31/3/1 30/3/1
f 35/5/1 32/5/1 31/5/1
f 35/3/1 31/3/1 34/3/1
f 36/4/1 5/4/1 32/4/1
f 36/5/1 32/5/1 35/5/1
f 37/4/1 5/4/1 36/4/1
f 40/1/2 41/1/2 45/1/2
f 45/1/2 41/1/2 46/1/2
f 41/3/2 42/3/2 47/3/2
f 46/1/2 41/1/2 47/1/2
f 42/5/2 43/5/2 48/5/2
f 47/3/2 42/3/2 48/3/2
f 43/4/2 44/4/2 49/4/2
f 48/5/2 43/5/2 49/5/2
f 49/4/2 44/4/2 50/4/2
f 38/1/2 39/1/2 51/1/2
f 39/3/2 40/3/2 51/3/2
f 40/1/2 45/1/2 52/1/2
f 51/3/2 40/3/2 52/3/2
f 51/1/2 52/1/2 53/1/2
f 52/1/2 45/1/2 53/1/2
f 45/3/2 46/3/2 54/3/2
f 53/1/2 45/1/2 54/1/2
f 47/1/2 48/1/2 55/1/2
f 46/1/2 47/1/2 55/1/2
f 48/3/2 49/3/2 56/3/2
f 55/1/2 48/1/2 56/1/2
f 49/5/2 50/5/2 57/5/2
f 56/3/2 49/3/2 57/3/2
f 50/4/2 44/4/2 58/4/2
f 57/5/2 50/5/2 58/5/2
f 51/1/2 53/1/2 59/1/2
f 53/3/2 54/3/2 60/3/2
f 59/1/2 53/1/2 60/1/2
f 54/3/2 46/3/2 61/3/2
f 60/3/2 54/3/2 61/3/2
f 46/1/2 55/1/2 61/1/2
f 61/1/2 55/1/2 62/1/2
f 55/3/2 56/3/2 63/3/2
f 62/1/2 55/1/2 63/1/2
f 56/5/2 57/5/2 64/5/2
f 63/3/2 56/3/2 64/3/2
f 57/4/2 58/4/2 65/4/2
f 64/5/2 57/5/2 65/5/2
f 58/4/2 44/4/2 66/4/2
f 65/4/2 58/4/2 66/4/2
f 61/3/2 62/3/2 67/3/2
f 59/3/2 60/3/2 67/3/2
f 60/3/2 61/3/2 67/3/2
f 67/3/2 62/3/2 68/3/2
f 65/5/2 66/5/2 69/5/2
f 64/3/2 65/3/2 69/3/2
f 66/4/2 44/4/2 70/4/2
f 69/5/2 66/5/2 70/5/2
f 70/4/2 44/4/2 71/4/2
f 51/1/2 59/1/2 72/1/2
f 38/1/2 51/1/2 72/1/2
f 59/3/2 67/3/2 73/3/2
f 72/1/2 59/1/2 73/1/2
f 67/5/2 68/5/2 74/5/2
f 73/3/2 67/3/2 74/3/2
f 68/3/2 62/3/2 75/3/2
f 74/5/2 68/5/2 75/5/2
f 62/1/2 63/1/2 76/1/2
f 75/3/2 62/3/2 76/3/2
f 63/1/2 64/1/2 76/1/2
f 64/3/2 69/3/2 77/3/2
f 76/1/2 64/1/2 77/1/2
f 69/3/2 70/3/2 77/3/2
f 70/5/2 71/5/2 78/5/2
f 77/3/2 70/3/2 78/3/2
f 71/4/2 44/4/2 79/4/2
f 78/5/2 71/5/2 79/5/2
f 79/4/2 44/4/2 80/4/2
f 83/1/3 82/1/3 81/1/3
f 84/1/3 82/1/3 83/1/3
f 85/4/4 86/4/4 87/4/4
f 87/4/4 86/4/4 88/4/4
f 91/1/5 90/1/5 89/1/5
f 92/1/5 90/1/5 91/1/5
f 93/1/5 91/1/5 89/1/5
f 94/3/5 92/3/5 91/3/5
f 94/1/5 91/1/5 93/1/5
f 95/3/5 92/3/5 94/3/5
f 96/1/5 93/1/5 89/1/5
f 96/3/5 94/3/5 93/3/5
f 97/1/5 95/1/5 94/1/5
f 97/3/5 94/3/5 96/3/5
f 98/1/5 97/1/5 96/1/5
f 98/1/5 95/1/5 97/1/5
f 99/1/5 95/1/5 98/1/5
f 100/1/5 96/1/5 89/1/5
f 100/1/5 98/1/5 96/1/5
f 101/1/5 98/1/5 100/1/5
f 102/1/5 98/1/5 101/1/5
f 103/3/5 99/3/5 98/3/5
f 103/1/5 98/1/5 102/1/5
f 104/3/5 99/3/5 103/3/5
f 105/3/5 101/3/5 100/3/5
f 106/1/5 102/1/5 101/1/5
f 106/3/5 101/3/5 105/3/5
f 107/3/5 103/3/5 102/3/5
f 107/1/5 102/1/5 106/1/5
f 108/5/5 104/5/5 103/5/5
f 108/3/5 103/3/5 107/3/5
f 109/5/5 104/5/5 108/5/5
f 110/5/5 106/5/5 105/5/5
f 111/3/5 107/3/5 106/3/5
f 111/5/5 106/5/5 110/5/5
f 112/3/5 107/3/5 111/3/5
f 113/4/5 111/4/5 110/4/5
f 113/4/5 112/4/5 111/4/5
f 114/3/5 107/3/5 112/3/5
f 114/4/5 112/4/5 113/4/5
f 115/4/5 108/4/5 107/4/5
f 115/3/5 107/3/5 114/3/5
f 115/4/5 109/4/5 108/4/5
f 116/2/5 114/2/5 113/2/5
f 116/4/5 115/4/5 114/4/5
f 117/4/5 109/4/5 115/4/5
f 117/4/5 115/4/5 116/4/5
f 118/2/5 116/2/5 113/2/5
f 118/4/5 113/4/5 110/4/5
f 118/2/5 117/2/5 116/2/5
f 119/4/5 109/4/5 117/4/5
f 119/2/5 117/2/5 118/2/5
f 120/4/5 118/4/5 110/4/5
f 120/4/5 119/4/5 118/4/5
f 121/4/5 109/4/5 119/4/5
f 121/4/5 119/4/5 120/4/5
f 122/1/6 123/1/6 124/1/6
f 124/1/6 123/1/6 125/1/6
f 122/1/6 124/1/6 126/1/6
f 124/3/6 125/3/6 127/3/6
f 126/1/6 124/1/6 127/1/6
f 127/3/6 125/3/6 128/3/6
f 126/3/6 127/3/6 129/3/6
f 127/5/6 128/5/6 129/5/6
f 129/5/6 128/5/6 130/5/6
f 126/3/6 129/3/6 131/3/6
f 129/4/6 130/4/6 131/4/6
f 131/4/6 130/4/6 132/4/6
f 130/5/6 128/5/6 133/5/6
f 132/4/6 130/4/6 133/4/6
f 133/5/6 128/5/6 134/5/6
f 131/5/6 132/5/6 135/5/6
f 126/3/6 131/3/6 135/3/6
f 133/3/6 134/3/6 136/3/6
f 135/5/6 132/5/6 136/5/6
f 132/3/6 133/3/6 136/3/6
f 136/3/6 134/3/6 137/3/6
f 137/3/6 134/3/6 138/3/6
f 122/1/6 126/1/6 139/1/6
f 126/3/6 135/3/6 139/3/6
f 135/3/6 136/3/6 139/3/6
f 136/3/6 137/3/6 139/3/6
f 139/3/6 137/3/6 140/3/6
f 140/3/6 137/3/6 141/3/6
f 137/1/6 138/1/6 142/1/6
f 141/3/6 137/3/6 142/3/6
f 140/3/6 141/3/6 143/3/6
f 139/1/6 140/1/6 143/1/6
f 141/1/6 142/1/6 144/1/6
f 143/3/6 141/3/6 144/3/6
f 122/1/6 139/1/6 145/1/6
f 139/1/6 143/1/6 145/1/6
f 143/1/6 144/1/6 145/1/6
f 145/1/6 144/1/6 146/1/6
f 122/1/6 145/1/6 147/1/6
f 145/3/6 146/3/6 148/3/6
f 147/1/6 145/1/6 148/1/6
f 146/1/6 144/1/6 149/1/6
f 148/3/6 146/3/6 149/3/6
f 142/1/6 138/1/6 150/1/6
f 149/1/6 144/1/6 150/1/6
f 144/1/6 142/1/6 150/1/6
f 148/5/6 149/5/6 151/5/6
f 147/3/6 148/3/6 151/3/6
f 151/5/6 149/5/6 152/5/6
f 149/3/6 150/3/6 153/3/6
f 152/5/6 149/5/6 153/5/6
f 153/3/6 150/3/6 154/3/6
f 150/1/6 138/1/6 155/1/6
f 154/3/6 150/3/6 155/3/6
f 155/1/6 138/1/6 156/1/6
f 153/4/6 154/4/6 157/4/6
f 152/4/6 153/4/6 157/4/6
f 154/5/6 155/5/6 157/5/6
f 155/3/6 156/3/6 158/3/6
f 157/5/6 155/5/6 158/5/6
f 151/3/6 152/3/6 159/3/6
f 147/3/6 151/3/6 159/3/6
f 159/3/6 152/3/6 160/3/6
f 157/4/6 158/4/6 161/4/6
f 160/3/6 152/3/6 161/3/6
f 152/4/6 157/4/6 161/4/6
f 158/3/6 156/3/6 162/3/6
f 161/4/6 158/4/6 162/4/6
f 162/3/6 156/3/6 163/3/6
f 159/5/6 160/5/6 164/5/6
f 160/4/6 161/4/6 165/4/6
f 164/5/6 160/5/6 165/5/6
f 161/4/6 162/4/6 165/4/6
f 165/4/6 162/4/6 166/4/6
f 166/4/6 162/4/6 167/4/6
f 162/5/6 163/5/6 168/5/6
f 167/4/6 162/4/6 168/4/6
f 168/5/6 163/5/6 169/5/6
f 166/2/6 167/2/6 170/2/6
f 167/4/6 168/4/6 170/4/6
f 168/4/6 169/4/6 170/4/6
f 170/4/6 169/4/6 171/4/6
f 164/4/6 165/4/6 172/4/6
f 165/4/6 166/4/6 172/4/6
f 170/2/6 171/2/6 172/2/6
f 166/2/6 170/2/6 172/2/6
f 171/4/6 169/4/6 173/4/6
f 172/2/6 171/2/6 173/2/6
f 164/4/6 172/4/6 174/4/6
f 172/4/6 173/4/6 174/4/6
f 173/4/6 169/4/6 175/4/6
f 174/4/6 173/4/6 175/4/6
