# MagicaVoxel @ Ephtracy

# group
o 

# material
mtllib Candle.mtl
usemtl palette

# normals
vn -1 0 0
vn 1 0 0
vn 0 0 1
vn 0 0 -1
vn 0 -1 0
vn 0 1 0

# texcoords
vt 0.435547 0.5
vt 0.978516 0.5
vt 0.982422 0.5

# verts
v 1.4 2 -1.7
v 1.4 2 -1.8
v 1.4 2 -2.2
v 1.4 2 -2.3
v 1.4 2.1 -1.8
v 1.4 2.1 -2.2
v 1.4 2.2 -1.7
v 1.4 2.2 -2.3
v 1.5 2.2 -1.8
v 1.5 2.2 -2.2
v 1.5 2.3 -1.8
v 1.5 2.3 -2.2
v 1.5 4.5 -1.8
v 1.5 4.5 -2.2
v 1.5 4.6 -1.8
v 1.5 4.6 -2.2
v 1.5 4.7 -1.2
v 1.5 4.7 -1.3
v 1.5 4.7 -1.8
v 1.5 4.7 -2.2
v 1.5 4.7 -2.4
v 1.5 4.7 -2.6
v 1.5 4.8 -1.3
v 1.5 4.8 -1.5
v 1.5 4.8 -2.4
v 1.5 4.8 -2.5
v 1.5 4.8 -2.6
v 1.5 4.9 -1.2
v 1.5 4.9 -1.3
v 1.5 4.9 -1.4
v 1.5 4.9 -1.5
v 1.5 4.9 -2.4
v 1.5 4.9 -2.5
v 1.5 5 -1.3
v 1.5 5 -1.4
v 1.5 5.1 -1.9
v 1.5 5.1 -2.1
v 1.5 5.2 -1.9
v 1.5 5.2 -2
v 1.5 5.2 -2.1
v 1.5 5.3 -2
v 1.5 5.3 -2.1
v 1.6 2.3 -1.9
v 1.6 2.3 -2.1
v 1.6 4.5 -1.4
v 1.6 4.5 -1.8
v 1.6 4.5 -1.9
v 1.6 4.5 -2.1
v 1.6 4.5 -2.2
v 1.6 4.5 -2.5
v 1.6 4.6 -1.5
v 1.6 4.6 -1.8
v 1.6 4.6 -2.2
v 1.6 4.6 -2.4
v 1.6 4.7 -1.9
v 1.6 4.7 -2.1
v 1.6 4.7 -2.3
v 1.6 4.7 -2.4
v 1.6 4.7 -2.5
v 1.6 4.7 -2.6
v 1.6 4.7 -2.7
v 1.6 4.8 -1.4
v 1.6 4.8 -1.5
v 1.6 4.8 -1.6
v 1.6 4.8 -2.3
v 1.6 4.8 -2.4
v 1.6 4.8 -2.5
v 1.6 4.8 -2.6
v 1.6 4.8 -2.7
v 1.6 4.9 -1.4
v 1.6 4.9 -1.5
v 1.6 4.9 -1.6
v 1.6 4.9 -2.4
v 1.6 4.9 -2.5
v 1.6 4.9 -2.6
v 1.6 4.9 -2.7
v 1.6 5 -1.3
v 1.6 5 -1.4
v 1.6 5.1 -1.8
v 1.6 5.1 -1.9
v 1.6 5.1 -2.1
v 1.6 5.1 -2.2
v 1.6 5.2 -1.8
v 1.6 5.2 -1.9
v 1.6 5.2 -2
v 1.6 5.2 -2.1
v 1.6 5.2 -2.2
v 1.6 5.3 -2
v 1.6 5.3 -2.1
v 1.6 5.3 -2.2
v 1.6 5.7 -1.3
v 1.6 5.7 -1.5
v 1.6 5.7 -2.4
v 1.6 5.7 -2.6
v 1.6 6 -1.9
v 1.6 6 -2.1
v 1.7 4.9 -1.5
v 1.7 4.9 -1.6
v 1.7 5 -1.5
v 1.7 5 -1.6
v 1.7 5.2 -1.8
v 1.7 5.2 -1.9
v 1.7 5.3 -1.8
v 1.7 5.3 -1.9
v 1.8 4.5 -2.6
v 1.8 4.5 -2.7
v 1.8 4.7 -2.6
v 1.8 4.7 -2.7
v 1.8 4.9 -1.8
v 1.8 4.9 -1.9
v 1.8 5.1 -1.8
v 1.8 5.1 -1.9
v 1.9 2 -1.7
v 1.9 2 -1.8
v 1.9 2 -2.2
v 1.9 2 -2.3
v 1.9 2.1 -1.7
v 1.9 2.1 -1.8
v 1.9 2.1 -2.2
v 1.9 2.1 -2.3
v 1.5 2 -1.7
v 1.5 2 -1.8
v 1.5 2 -2.2
v 1.5 2 -2.3
v 1.5 2.1 -1.7
v 1.5 2.1 -1.8
v 1.5 2.1 -2.2
v 1.5 2.1 -2.3
v 1.6 4.7 -1.2
v 1.6 4.7 -1.3
v 1.6 4.8 -1.2
v 1.6 4.8 -1.3
v 1.7 5.2 -2.1
v 1.7 5.2 -2.2
v 1.7 5.3 -2.1
v 1.7 5.3 -2.2
v 1.8 2.3 -1.9
v 1.8 2.3 -2.1
v 1.8 4.5 -1.4
v 1.8 4.5 -1.8
v 1.8 4.5 -1.9
v 1.8 4.5 -2.1
v 1.8 4.5 -2.2
v 1.8 4.5 -2.5
v 1.8 4.6 -1.5
v 1.8 4.6 -1.8
v 1.8 4.6 -2.2
v 1.8 4.6 -2.4
v 1.8 4.7 -1.9
v 1.8 4.7 -2.1
v 1.8 4.7 -2.3
v 1.8 4.7 -2.4
v 1.8 4.7 -2.5
v 1.8 4.8 -1.2
v 1.8 4.8 -1.3
v 1.8 4.8 -1.4
v 1.8 4.8 -1.5
v 1.8 4.8 -1.6
v 1.8 4.8 -2.3
v 1.8 4.8 -2.4
v 1.8 4.8 -2.6
v 1.8 4.8 -2.7
v 1.8 4.9 -1.2
v 1.8 4.9 -1.3
v 1.8 4.9 -1.5
v 1.8 4.9 -1.6
v 1.8 4.9 -1.9
v 1.8 4.9 -2.4
v 1.8 4.9 -2.6
v 1.8 4.9 -2.7
v 1.8 5 -1.5
v 1.8 5 -1.6
v 1.8 5.1 -1.9
v 1.8 5.1 -2.1
v 1.8 5.1 -2.2
v 1.8 5.2 -1.8
v 1.8 5.2 -1.9
v 1.8 5.2 -2.1
v 1.8 5.2 -2.2
v 1.8 5.3 -1.8
v 1.8 5.3 -1.9
v 1.8 5.3 -2.1
v 1.8 5.7 -1.3
v 1.8 5.7 -1.5
v 1.8 5.7 -2.4
v 1.8 5.7 -2.6
v 1.8 6 -1.9
v 1.8 6 -2.1
v 1.9 2.2 -1.8
v 1.9 2.2 -2.2
v 1.9 2.3 -1.8
v 1.9 2.3 -2.2
v 1.9 4.5 -1.8
v 1.9 4.5 -2.2
v 1.9 4.5 -2.6
v 1.9 4.5 -2.7
v 1.9 4.6 -1.8
v 1.9 4.6 -2.2
v 1.9 4.7 -1.8
v 1.9 4.7 -2.2
v 1.9 4.7 -2.4
v 1.9 4.7 -2.6
v 1.9 4.8 -1.3
v 1.9 4.8 -1.5
v 1.9 4.8 -2.4
v 1.9 4.8 -2.6
v 1.9 4.8 -2.7
v 1.9 4.9 -1.3
v 1.9 4.9 -1.5
v 1.9 4.9 -1.8
v 1.9 4.9 -1.9
v 1.9 4.9 -2.4
v 1.9 4.9 -2.6
v 1.9 5.1 -1.9
v 1.9 5.1 -2.1
v 1.9 5.2 -1.8
v 1.9 5.2 -1.9
v 1.9 5.2 -2.1
v 1.9 5.3 -1.9
v 1.9 5.3 -2.1
v 2 2 -1.7
v 2 2 -1.8
v 2 2 -2.2
v 2 2 -2.3
v 2 2.1 -1.8
v 2 2.1 -2.2
v 2 2.2 -1.7
v 2 2.2 -2.3
v 1.5 4.7 -1.2
v 1.5 4.9 -1.2
v 1.6 4.7 -1.2
v 1.6 4.8 -1.2
v 1.6 4.9 -1.2
v 1.8 4.8 -1.2
v 1.8 4.9 -1.2
v 1.5 4.9 -1.3
v 1.5 5 -1.3
v 1.6 4.9 -1.3
v 1.6 5 -1.3
v 1.6 5.7 -1.3
v 1.8 4.8 -1.3
v 1.8 4.9 -1.3
v 1.8 5.7 -1.3
v 1.9 4.8 -1.3
v 1.9 4.9 -1.3
v 1.6 4.5 -1.4
v 1.6 4.8 -1.4
v 1.8 4.5 -1.4
v 1.8 4.8 -1.4
v 1.4 2 -1.7
v 1.4 2.2 -1.7
v 1.5 2 -1.7
v 1.5 2.1 -1.7
v 1.9 2 -1.7
v 1.9 2.1 -1.7
v 2 2 -1.7
v 2 2.2 -1.7
v 1.5 2.2 -1.8
v 1.5 2.3 -1.8
v 1.5 4.5 -1.8
v 1.5 4.6 -1.8
v 1.5 4.7 -1.8
v 1.6 4.5 -1.8
v 1.6 4.6 -1.8
v 1.6 5.1 -1.8
v 1.6 5.2 -1.8
v 1.7 5.1 -1.8
v 1.7 5.2 -1.8
v 1.7 5.3 -1.8
v 1.8 4.5 -1.8
v 1.8 4.6 -1.8
v 1.8 4.9 -1.8
v 1.8 5.1 -1.8
v 1.8 5.2 -1.8
v 1.8 5.3 -1.8
v 1.9 2.2 -1.8
v 1.9 2.3 -1.8
v 1.9 4.5 -1.8
v 1.9 4.6 -1.8
v 1.9 4.7 -1.8
v 1.9 4.9 -1.8
v 1.9 5.2 -1.8
v 1.5 5.1 -1.9
v 1.5 5.2 -1.9
v 1.6 2.3 -1.9
v 1.6 4.5 -1.9
v 1.6 4.7 -1.9
v 1.6 5.1 -1.9
v 1.6 5.2 -1.9
v 1.6 6 -1.9
v 1.7 5.1 -1.9
v 1.7 5.2 -1.9
v 1.7 5.3 -1.9
v 1.8 2.3 -1.9
v 1.8 4.5 -1.9
v 1.8 4.7 -1.9
v 1.8 4.9 -1.9
v 1.8 5.1 -1.9
v 1.8 5.2 -1.9
v 1.8 5.3 -1.9
v 1.8 6 -1.9
v 1.9 5.2 -1.9
v 1.9 5.3 -1.9
v 1.5 5.2 -2
v 1.5 5.3 -2
v 1.6 5.2 -2
v 1.6 5.3 -2
v 1.4 2 -2.2
v 1.4 2.1 -2.2
v 1.5 2 -2.2
v 1.5 2.1 -2.2
v 1.9 2 -2.2
v 1.9 2.1 -2.2
v 2 2 -2.2
v 2 2.1 -2.2
v 1.6 4.7 -2.3
v 1.6 4.8 -2.3
v 1.8 4.7 -2.3
v 1.8 4.8 -2.3
v 1.5 4.7 -2.4
v 1.5 4.8 -2.4
v 1.5 4.9 -2.4
v 1.6 4.6 -2.4
v 1.6 4.7 -2.4
v 1.6 4.8 -2.4
v 1.6 4.9 -2.4
v 1.6 5.7 -2.4
v 1.8 4.6 -2.4
v 1.8 4.7 -2.4
v 1.8 4.8 -2.4
v 1.8 4.9 -2.4
v 1.8 5.7 -2.4
v 1.9 4.7 -2.4
v 1.9 4.8 -2.4
v 1.9 4.9 -2.4
v 1.8 4.5 -2.6
v 1.8 4.7 -2.6
v 1.9 4.5 -2.6
v 1.9 4.7 -2.6
v 1.5 4.7 -1.3
v 1.5 4.8 -1.3
v 1.6 4.7 -1.3
v 1.6 4.8 -1.3
v 1.5 4.9 -1.4
v 1.5 5 -1.4
v 1.6 4.9 -1.4
v 1.6 5 -1.4
v 1.5 4.8 -1.5
v 1.5 4.9 -1.5
v 1.6 4.6 -1.5
v 1.6 4.8 -1.5
v 1.6 4.9 -1.5
v 1.6 5.7 -1.5
v 1.7 4.9 -1.5
v 1.7 5 -1.5
v 1.8 4.6 -1.5
v 1.8 4.8 -1.5
v 1.8 4.9 -1.5
v 1.8 5 -1.5
v 1.8 5.7 -1.5
v 1.9 4.8 -1.5
v 1.9 4.9 -1.5
v 1.6 4.8 -1.6
v 1.6 4.9 -1.6
v 1.7 4.9 -1.6
v 1.7 5 -1.6
v 1.8 4.8 -1.6
v 1.8 4.9 -1.6
v 1.8 5 -1.6
v 1.4 2 -1.8
v 1.4 2.1 -1.8
v 1.5 2 -1.8
v 1.5 2.1 -1.8
v 1.9 2 -1.8
v 1.9 2.1 -1.8
v 2 2 -1.8
v 2 2.1 -1.8
v 1.8 4.9 -1.9
v 1.8 5.1 -1.9
v 1.9 4.9 -1.9
v 1.9 5.1 -1.9
v 1.5 5.1 -2.1
v 1.5 5.2 -2.1
v 1.5 5.3 -2.1
v 1.6 2.3 -2.1
v 1.6 4.5 -2.1
v 1.6 4.7 -2.1
v 1.6 5.1 -2.1
v 1.6 5.2 -2.1
v 1.6 5.3 -2.1
v 1.6 6 -2.1
v 1.7 5.2 -2.1
v 1.7 5.3 -2.1
v 1.8 2.3 -2.1
v 1.8 4.5 -2.1
v 1.8 4.7 -2.1
v 1.8 5.1 -2.1
v 1.8 5.2 -2.1
v 1.8 5.3 -2.1
v 1.8 6 -2.1
v 1.9 5.1 -2.1
v 1.9 5.2 -2.1
v 1.9 5.3 -2.1
v 1.5 2.2 -2.2
v 1.5 2.3 -2.2
v 1.5 4.5 -2.2
v 1.5 4.6 -2.2
v 1.5 4.7 -2.2
v 1.6 4.5 -2.2
v 1.6 4.6 -2.2
v 1.6 5.1 -2.2
v 1.6 5.2 -2.2
v 1.6 5.3 -2.2
v 1.7 5.2 -2.2
v 1.7 5.3 -2.2
v 1.8 4.5 -2.2
v 1.8 4.6 -2.2
v 1.8 5.1 -2.2
v 1.8 5.2 -2.2
v 1.9 2.2 -2.2
v 1.9 2.3 -2.2
v 1.9 4.5 -2.2
v 1.9 4.6 -2.2
v 1.9 4.7 -2.2
v 1.4 2 -2.3
v 1.4 2.2 -2.3
v 1.5 2 -2.3
v 1.5 2.1 -2.3
v 1.9 2 -2.3
v 1.9 2.1 -2.3
v 2 2 -2.3
v 2 2.2 -2.3
v 1.5 4.8 -2.5
v 1.5 4.9 -2.5
v 1.6 4.5 -2.5
v 1.6 4.7 -2.5
v 1.6 4.8 -2.5
v 1.6 4.9 -2.5
v 1.8 4.5 -2.5
v 1.8 4.7 -2.5
v 1.5 4.7 -2.6
v 1.5 4.8 -2.6
v 1.6 4.7 -2.6
v 1.6 4.8 -2.6
v 1.6 4.9 -2.6
v 1.6 5.7 -2.6
v 1.8 4.8 -2.6
v 1.8 4.9 -2.6
v 1.8 5.7 -2.6
v 1.9 4.8 -2.6
v 1.9 4.9 -2.6
v 1.6 4.7 -2.7
v 1.6 4.8 -2.7
v 1.6 4.9 -2.7
v 1.8 4.5 -2.7
v 1.8 4.7 -2.7
v 1.8 4.8 -2.7
v 1.8 4.9 -2.7
v 1.9 4.5 -2.7
v 1.9 4.8 -2.7
v 1.4 2 -1.7
v 1.5 2 -1.7
v 1.9 2 -1.7
v 2 2 -1.7
v 1.4 2 -1.8
v 1.5 2 -1.8
v 1.9 2 -1.8
v 2 2 -1.8
v 1.4 2 -2.2
v 1.5 2 -2.2
v 1.9 2 -2.2
v 2 2 -2.2
v 1.4 2 -2.3
v 1.5 2 -2.3
v 1.9 2 -2.3
v 2 2 -2.3
v 1.5 2.1 -1.7
v 1.9 2.1 -1.7
v 1.4 2.1 -1.8
v 1.5 2.1 -1.8
v 1.9 2.1 -1.8
v 2 2.1 -1.8
v 1.6 2.1 -1.9
v 1.8 2.1 -1.9
v 1.6 2.1 -2.1
v 1.8 2.1 -2.1
v 1.4 2.1 -2.2
v 1.5 2.1 -2.2
v 1.9 2.1 -2.2
v 2 2.1 -2.2
v 1.5 2.1 -2.3
v 1.9 2.1 -2.3
v 1.6 4.5 -1.4
v 1.8 4.5 -1.4
v 1.5 4.5 -1.8
v 1.6 4.5 -1.8
v 1.8 4.5 -1.8
v 1.9 4.5 -1.8
v 1.6 4.5 -1.9
v 1.8 4.5 -1.9
v 1.6 4.5 -2.1
v 1.8 4.5 -2.1
v 1.5 4.5 -2.2
v 1.6 4.5 -2.2
v 1.8 4.5 -2.2
v 1.9 4.5 -2.2
v 1.6 4.5 -2.5
v 1.8 4.5 -2.5
v 1.8 4.5 -2.6
v 1.9 4.5 -2.6
v 1.8 4.5 -2.7
v 1.9 4.5 -2.7
v 1.5 4.7 -1.2
v 1.6 4.7 -1.2
v 1.5 4.7 -1.3
v 1.6 4.7 -1.3
v 1.6 4.7 -2.3
v 1.8 4.7 -2.3
v 1.5 4.7 -2.4
v 1.6 4.7 -2.4
v 1.8 4.7 -2.4
v 1.9 4.7 -2.4
v 1.6 4.7 -2.5
v 1.8 4.7 -2.5
v 1.5 4.7 -2.6
v 1.6 4.7 -2.6
v 1.8 4.7 -2.6
v 1.9 4.7 -2.6
v 1.6 4.7 -2.7
v 1.8 4.7 -2.7
v 1.6 4.8 -1.2
v 1.8 4.8 -1.2
v 1.5 4.8 -1.3
v 1.6 4.8 -1.3
v 1.8 4.8 -1.3
v 1.9 4.8 -1.3
v 1.6 4.8 -1.4
v 1.8 4.8 -1.4
v 1.5 4.8 -1.5
v 1.6 4.8 -1.5
v 1.8 4.8 -1.5
v 1.9 4.8 -1.5
v 1.6 4.8 -1.6
v 1.8 4.8 -1.6
v 1.8 4.9 -1.8
v 1.9 4.9 -1.8
v 1.8 4.9 -1.9
v 1.9 4.9 -1.9
v 1.6 5.1 -1.8
v 1.7 5.1 -1.8
v 1.8 5.1 -1.8
v 1.5 5.1 -1.9
v 1.6 5.1 -1.9
v 1.7 5.1 -1.9
v 1.8 5.1 -1.9
v 1.9 5.1 -1.9
v 1.5 5.1 -2.1
v 1.6 5.1 -2.1
v 1.8 5.1 -2.1
v 1.9 5.1 -2.1
v 1.6 5.1 -2.2
v 1.8 5.1 -2.2
v 1.4 2.2 -1.7
v 2 2.2 -1.7
v 1.5 2.2 -1.8
v 1.9 2.2 -1.8
v 1.5 2.2 -2.2
v 1.9 2.2 -2.2
v 1.4 2.2 -2.3
v 2 2.2 -2.3
v 1.5 2.3 -1.8
v 1.9 2.3 -1.8
v 1.6 2.3 -1.9
v 1.8 2.3 -1.9
v 1.6 2.3 -2.1
v 1.8 2.3 -2.1
v 1.5 2.3 -2.2
v 1.9 2.3 -2.2
v 1.6 4.6 -1.5
v 1.8 4.6 -1.5
v 1.6 4.6 -1.8
v 1.8 4.6 -1.8
v 1.6 4.6 -2.2
v 1.8 4.6 -2.2
v 1.6 4.6 -2.4
v 1.8 4.6 -2.4
v 1.5 4.7 -1.8
v 1.9 4.7 -1.8
v 1.6 4.7 -1.9
v 1.8 4.7 -1.9
v 1.6 4.7 -2.1
v 1.8 4.7 -2.1
v 1.5 4.7 -2.2
v 1.9 4.7 -2.2
v 1.6 4.8 -2.3
v 1.8 4.8 -2.3
v 1.6 4.8 -2.4
v 1.8 4.8 -2.4
v 1.5 4.8 -2.5
v 1.6 4.8 -2.5
v 1.5 4.8 -2.6
v 1.6 4.8 -2.6
v 1.8 4.8 -2.6
v 1.9 4.8 -2.6
v 1.8 4.8 -2.7
v 1.9 4.8 -2.7
v 1.5 4.9 -1.2
v 1.6 4.9 -1.2
v 1.8 4.9 -1.2
v 1.5 4.9 -1.3
v 1.6 4.9 -1.3
v 1.8 4.9 -1.3
v 1.9 4.9 -1.3
v 1.5 4.9 -1.4
v 1.6 4.9 -1.4
v 1.5 4.9 -1.5
v 1.6 4.9 -1.5
v 1.7 4.9 -1.5
v 1.8 4.9 -1.5
v 1.9 4.9 -1.5
v 1.6 4.9 -1.6
v 1.7 4.9 -1.6
v 1.5 4.9 -2.4
v 1.6 4.9 -2.4
v 1.8 4.9 -2.4
v 1.9 4.9 -2.4
v 1.5 4.9 -2.5
v 1.6 4.9 -2.5
v 1.6 4.9 -2.6
v 1.8 4.9 -2.6
v 1.9 4.9 -2.6
v 1.6 4.9 -2.7
v 1.8 4.9 -2.7
v 1.5 5 -1.3
v 1.6 5 -1.3
v 1.5 5 -1.4
v 1.6 5 -1.4
v 1.7 5 -1.5
v 1.8 5 -1.5
v 1.7 5 -1.6
v 1.8 5 -1.6
v 1.6 5.2 -1.8
v 1.7 5.2 -1.8
v 1.8 5.2 -1.8
v 1.9 5.2 -1.8
v 1.5 5.2 -1.9
v 1.6 5.2 -1.9
v 1.7 5.2 -1.9
v 1.8 5.2 -1.9
v 1.9 5.2 -1.9
v 1.5 5.2 -2
v 1.6 5.2 -2
v 1.7 5.2 -2.1
v 1.8 5.2 -2.1
v 1.7 5.2 -2.2
v 1.8 5.2 -2.2
v 1.7 5.3 -1.8
v 1.8 5.3 -1.8
v 1.7 5.3 -1.9
v 1.8 5.3 -1.9
v 1.9 5.3 -1.9
v 1.5 5.3 -2
v 1.6 5.3 -2
v 1.5 5.3 -2.1
v 1.6 5.3 -2.1
v 1.7 5.3 -2.1
v 1.8 5.3 -2.1
v 1.9 5.3 -2.1
v 1.6 5.3 -2.2
v 1.7 5.3 -2.2
v 1.6 5.7 -1.3
v 1.8 5.7 -1.3
v 1.6 5.7 -1.5
v 1.8 5.7 -1.5
v 1.6 5.7 -2.4
v 1.8 5.7 -2.4
v 1.6 5.7 -2.6
v 1.8 5.7 -2.6
v 1.6 6 -1.9
v 1.8 6 -1.9
v 1.6 6 -2.1
v 1.8 6 -2.1

# faces
f 5/3/1 2/3/1 1/3/1
f 6/3/1 4/3/1 3/3/1
f 7/3/1 5/3/1 1/3/1
f 7/3/1 6/3/1 5/3/1
f 8/3/1 4/3/1 6/3/1
f 8/3/1 6/3/1 7/3/1
f 11/3/1 10/3/1 9/3/1
f 12/3/1 10/3/1 11/3/1
f 15/2/1 14/2/1 13/2/1
f 16/2/1 14/2/1 15/2/1
f 19/3/1 16/3/1 15/3/1
f 20/3/1 16/3/1 19/3/1
f 23/1/1 18/1/1 17/1/1
f 25/3/1 22/3/1 21/3/1
f 26/3/1 22/3/1 25/3/1
f 27/3/1 22/3/1 26/3/1
f 28/1/1 23/1/1 17/1/1
f 29/3/1 24/3/1 23/3/1
f 29/1/1 23/1/1 28/1/1
f 30/3/1 24/3/1 29/3/1
f 31/3/1 24/3/1 30/3/1
f 32/1/1 26/1/1 25/1/1
f 33/1/1 26/1/1 32/1/1
f 34/1/1 30/1/1 29/1/1
f 35/1/1 30/1/1 34/1/1
f 38/3/1 37/3/1 36/3/1
f 39/3/1 37/3/1 38/3/1
f 40/3/1 37/3/1 39/3/1
f 41/1/1 40/1/1 39/1/1
f 42/1/1 40/1/1 41/1/1
f 47/2/1 44/2/1 43/2/1
f 48/2/1 44/2/1 47/2/1
f 51/2/1 46/2/1 45/2/1
f 52/2/1 46/2/1 51/2/1
f 53/2/1 50/2/1 49/2/1
f 54/2/1 50/2/1 53/2/1
f 58/2/1 50/2/1 54/2/1
f 59/2/1 50/2/1 58/2/1
f 62/2/1 51/2/1 45/2/1
f 63/2/1 51/2/1 62/2/1
f 65/3/1 58/3/1 57/3/1
f 66/3/1 58/3/1 65/3/1
f 68/3/1 61/3/1 60/3/1
f 69/3/1 61/3/1 68/3/1
f 71/3/1 64/3/1 63/3/1
f 72/3/1 64/3/1 71/3/1
f 74/1/1 68/1/1 67/1/1
f 74/1/1 69/1/1 68/1/1
f 75/1/1 69/1/1 74/1/1
f 76/1/1 69/1/1 75/1/1
f 78/1/1 71/1/1 70/1/1
f 80/2/1 56/2/1 55/2/1
f 81/2/1 56/2/1 80/2/1
f 83/3/1 80/3/1 79/3/1
f 84/3/1 80/3/1 83/3/1
f 86/3/1 82/3/1 81/3/1
f 87/3/1 82/3/1 86/3/1
f 88/1/1 85/1/1 84/1/1
f 89/1/1 87/1/1 86/1/1
f 90/1/1 87/1/1 89/1/1
f 91/1/1 78/1/1 77/1/1
f 92/1/1 71/1/1 78/1/1
f 92/1/1 78/1/1 91/1/1
f 93/1/1 75/1/1 74/1/1
f 93/1/1 74/1/1 73/1/1
f 94/1/1 75/1/1 93/1/1
f 95/1/1 89/1/1 88/1/1
f 95/1/1 88/1/1 84/1/1
f 96/1/1 89/1/1 95/1/1
f 99/1/1 98/1/1 97/1/1
f 100/1/1 98/1/1 99/1/1
f 103/1/1 102/1/1 101/1/1
f 104/1/1 102/1/1 103/1/1
f 107/1/1 106/1/1 105/1/1
f 108/1/1 106/1/1 107/1/1
f 111/1/1 110/1/1 109/1/1
f 112/1/1 110/1/1 111/1/1
f 117/3/1 114/3/1 113/3/1
f 118/3/1 114/3/1 117/3/1
f 119/3/1 116/3/1 115/3/1
f 120/3/1 116/3/1 119/3/1
f 121/3/2 122/3/2 125/3/2
f 125/3/2 122/3/2 126/3/2
f 123/3/2 124/3/2 127/3/2
f 127/3/2 124/3/2 128/3/2
f 129/1/2 130/1/2 131/1/2
f 131/1/2 130/1/2 132/1/2
f 133/1/2 134/1/2 135/1/2
f 135/1/2 134/1/2 136/1/2
f 137/2/2 138/2/2 141/2/2
f 141/2/2 138/2/2 142/2/2
f 139/2/2 140/2/2 145/2/2
f 145/2/2 140/2/2 146/2/2
f 143/2/2 144/2/2 147/2/2
f 147/2/2 144/2/2 148/2/2
f 148/2/2 144/2/2 152/2/2
f 152/2/2 144/2/2 153/2/2
f 139/2/2 145/2/2 156/2/2
f 156/2/2 145/2/2 157/2/2
f 151/3/2 152/3/2 159/3/2
f 159/3/2 152/3/2 160/3/2
f 154/3/2 155/3/2 163/3/2
f 163/3/2 155/3/2 164/3/2
f 157/3/2 158/3/2 165/3/2
f 165/3/2 158/3/2 166/3/2
f 149/2/2 150/2/2 167/2/2
f 161/1/2 162/1/2 169/1/2
f 169/1/2 162/1/2 170/1/2
f 165/1/2 166/1/2 171/1/2
f 164/1/2 165/1/2 171/1/2
f 171/1/2 166/1/2 172/1/2
f 167/2/2 150/2/2 173/2/2
f 173/2/2 150/2/2 174/2/2
f 174/3/2 175/3/2 178/3/2
f 178/3/2 175/3/2 179/3/2
f 176/1/2 177/1/2 180/1/2
f 180/1/2 177/1/2 181/1/2
f 164/1/2 171/1/2 183/1/2
f 183/1/2 171/1/2 184/1/2
f 168/1/2 169/1/2 185/1/2
f 185/1/2 169/1/2 186/1/2
f 181/1/2 182/1/2 187/1/2
f 187/1/2 182/1/2 188/1/2
f 189/3/2 190/3/2 191/3/2
f 191/3/2 190/3/2 192/3/2
f 193/2/2 194/2/2 197/2/2
f 197/2/2 194/2/2 198/2/2
f 197/3/2 198/3/2 199/3/2
f 199/3/2 198/3/2 200/3/2
f 195/1/2 196/1/2 202/1/2
f 201/3/2 202/3/2 205/3/2
f 202/1/2 196/1/2 206/1/2
f 205/3/2 202/3/2 206/3/2
f 206/1/2 196/1/2 207/1/2
f 203/3/2 204/3/2 208/3/2
f 208/3/2 204/3/2 209/3/2
f 205/1/2 206/1/2 212/1/2
f 212/1/2 206/1/2 213/1/2
f 210/1/2 211/1/2 214/1/2
f 210/1/2 214/1/2 216/1/2
f 214/3/2 215/3/2 217/3/2
f 216/1/2 214/1/2 217/1/2
f 217/3/2 215/3/2 218/3/2
f 217/1/2 218/1/2 219/1/2
f 219/1/2 218/1/2 220/1/2
f 221/3/2 222/3/2 225/3/2
f 223/3/2 224/3/2 226/3/2
f 221/3/2 225/3/2 227/3/2
f 225/3/2 226/3/2 227/3/2
f 226/3/2 224/3/2 228/3/2
f 227/3/2 226/3/2 228/3/2
f 231/1/3 230/1/3 229/1/3
f 232/1/3 230/1/3 231/1/3
f 233/1/3 230/1/3 232/1/3
f 234/3/3 233/3/3 232/3/3
f 235/3/3 233/3/3 234/3/3
f 238/1/3 237/1/3 236/1/3
f 239/1/3 237/1/3 238/1/3
f 242/1/3 239/1/3 238/1/3
f 242/1/3 240/1/3 239/1/3
f 243/1/3 240/1/3 242/1/3
f 244/3/3 242/3/3 241/3/3
f 245/3/3 242/3/3 244/3/3
f 248/2/3 247/2/3 246/2/3
f 249/2/3 247/2/3 248/2/3
f 252/3/3 251/3/3 250/3/3
f 253/3/3 251/3/3 252/3/3
f 255/3/3 251/3/3 253/3/3
f 256/3/3 255/3/3 254/3/3
f 257/3/3 251/3/3 255/3/3
f 257/3/3 255/3/3 256/3/3
f 263/2/3 261/2/3 260/2/3
f 264/3/3 262/3/3 261/3/3
f 264/2/3 261/2/3 263/2/3
f 267/3/3 266/3/3 265/3/3
f 268/3/3 266/3/3 267/3/3
f 271/3/3 262/3/3 264/3/3
f 273/2/3 268/2/3 267/2/3
f 274/1/3 269/1/3 268/1/3
f 274/2/3 268/2/3 273/2/3
f 275/1/3 269/1/3 274/1/3
f 276/3/3 259/3/3 258/3/3
f 277/3/3 259/3/3 276/3/3
f 278/2/3 271/2/3 270/2/3
f 279/3/3 262/3/3 271/3/3
f 279/2/3 271/2/3 278/2/3
f 280/3/3 262/3/3 279/3/3
f 281/1/3 273/1/3 272/1/3
f 281/1/3 274/1/3 273/1/3
f 282/1/3 274/1/3 281/1/3
f 288/3/3 284/3/3 283/3/3
f 289/3/3 284/3/3 288/3/3
f 291/2/3 288/2/3 287/2/3
f 292/1/3 290/1/3 289/1/3
f 293/1/3 290/1/3 292/1/3
f 294/2/3 286/2/3 285/2/3
f 295/2/3 286/2/3 294/2/3
f 296/2/3 291/2/3 287/2/3
f 297/2/3 291/2/3 296/2/3
f 298/2/3 291/2/3 297/2/3
f 300/1/3 290/1/3 293/1/3
f 301/1/3 290/1/3 300/1/3
f 302/1/3 300/1/3 299/1/3
f 303/1/3 300/1/3 302/1/3
f 306/1/3 305/1/3 304/1/3
f 307/1/3 305/1/3 306/1/3
f 310/3/3 309/3/3 308/3/3
f 311/3/3 309/3/3 310/3/3
f 314/3/3 313/3/3 312/3/3
f 315/3/3 313/3/3 314/3/3
f 318/3/3 317/3/3 316/3/3
f 319/3/3 317/3/3 318/3/3
f 324/3/3 321/3/3 320/3/3
f 325/1/3 322/1/3 321/1/3
f 325/3/3 321/3/3 324/3/3
f 326/1/3 322/1/3 325/1/3
f 328/2/3 324/2/3 323/2/3
f 329/2/3 324/2/3 328/2/3
f 330/1/3 327/1/3 326/1/3
f 330/1/3 326/1/3 325/1/3
f 331/1/3 327/1/3 330/1/3
f 332/1/3 327/1/3 331/1/3
f 333/3/3 330/3/3 329/3/3
f 334/1/3 331/1/3 330/1/3
f 334/3/3 330/3/3 333/3/3
f 335/1/3 331/1/3 334/1/3
f 338/1/3 337/1/3 336/1/3
f 339/1/3 337/1/3 338/1/3
f 340/1/4 341/1/4 342/1/4
f 342/1/4 341/1/4 343/1/4
f 344/1/4 345/1/4 346/1/4
f 346/1/4 345/1/4 347/1/4
f 348/3/4 349/3/4 351/3/4
f 351/3/4 349/3/4 352/3/4
f 352/1/4 353/1/4 354/1/4
f 354/1/4 353/1/4 355/1/4
f 350/2/4 351/2/4 356/2/4
f 356/2/4 351/2/4 357/2/4
f 355/1/4 353/1/4 359/1/4
f 359/1/4 353/1/4 360/1/4
f 357/3/4 358/3/4 361/3/4
f 361/3/4 358/3/4 362/3/4
f 363/3/4 364/3/4 365/3/4
f 363/3/4 365/3/4 367/3/4
f 365/1/4 366/1/4 368/1/4
f 367/3/4 365/3/4 368/3/4
f 368/1/4 366/1/4 369/1/4
f 370/3/4 371/3/4 372/3/4
f 372/3/4 371/3/4 373/3/4
f 374/3/4 375/3/4 376/3/4
f 376/3/4 375/3/4 377/3/4
f 378/1/4 379/1/4 380/1/4
f 380/1/4 379/1/4 381/1/4
f 382/3/4 383/3/4 388/3/4
f 383/1/4 384/1/4 389/1/4
f 388/3/4 383/3/4 389/3/4
f 389/1/4 384/1/4 390/1/4
f 390/1/4 391/1/4 393/1/4
f 385/2/4 386/2/4 394/2/4
f 394/2/4 386/2/4 395/2/4
f 387/2/4 388/2/4 396/2/4
f 396/2/4 388/2/4 397/2/4
f 392/1/4 393/1/4 398/1/4
f 393/1/4 391/1/4 399/1/4
f 398/1/4 393/1/4 399/1/4
f 399/1/4 391/1/4 400/1/4
f 397/3/4 398/3/4 401/3/4
f 398/1/4 399/1/4 402/1/4
f 401/3/4 398/3/4 402/3/4
f 402/1/4 399/1/4 403/1/4
f 406/2/4 407/2/4 409/2/4
f 407/3/4 408/3/4 410/3/4
f 409/2/4 407/2/4 410/2/4
f 412/1/4 413/1/4 414/1/4
f 411/3/4 412/3/4 414/3/4
f 414/1/4 413/1/4 415/1/4
f 410/3/4 408/3/4 417/3/4
f 411/3/4 414/3/4 418/3/4
f 418/3/4 414/3/4 419/3/4
f 404/3/4 405/3/4 420/3/4
f 420/3/4 405/3/4 421/3/4
f 416/2/4 417/2/4 422/2/4
f 417/3/4 408/3/4 423/3/4
f 422/2/4 417/2/4 423/2/4
f 423/3/4 408/3/4 424/3/4
f 425/3/4 426/3/4 427/3/4
f 427/3/4 426/3/4 428/3/4
f 428/3/4 426/3/4 430/3/4
f 429/3/4 430/3/4 431/3/4
f 430/3/4 426/3/4 432/3/4
f 431/3/4 430/3/4 432/3/4
f 433/1/4 434/1/4 437/1/4
f 437/1/4 434/1/4 438/1/4
f 435/2/4 436/2/4 439/2/4
f 439/2/4 436/2/4 440/2/4
f 441/3/4 442/3/4 443/3/4
f 443/3/4 442/3/4 444/3/4
f 445/1/4 446/1/4 448/1/4
f 448/1/4 446/1/4 449/1/4
f 447/1/4 448/1/4 450/1/4
f 450/1/4 448/1/4 451/1/4
f 452/3/4 453/3/4 456/3/4
f 453/1/4 454/1/4 457/1/4
f 456/3/4 453/3/4 457/3/4
f 457/1/4 454/1/4 458/1/4
f 455/1/4 456/1/4 459/1/4
f 456/1/4 457/1/4 459/1/4
f 459/1/4 457/1/4 460/1/4
f 465/3/5 462/3/5 461/3/5
f 466/3/5 462/3/5 465/3/5
f 467/3/5 464/3/5 463/3/5
f 468/3/5 464/3/5 467/3/5
f 473/3/5 470/3/5 469/3/5
f 474/3/5 470/3/5 473/3/5
f 475/3/5 472/3/5 471/3/5
f 476/3/5 472/3/5 475/3/5
f 480/3/5 478/3/5 477/3/5
f 481/3/5 478/3/5 480/3/5
f 483/3/5 480/3/5 479/3/5
f 483/3/5 482/3/5 481/3/5
f 483/3/5 481/3/5 480/3/5
f 484/3/5 482/3/5 483/3/5
f 485/3/5 483/3/5 479/3/5
f 485/2/5 484/2/5 483/2/5
f 486/3/5 482/3/5 484/3/5
f 486/2/5 484/2/5 485/2/5
f 487/3/5 485/3/5 479/3/5
f 487/3/5 486/3/5 485/3/5
f 488/3/5 486/3/5 487/3/5
f 489/3/5 482/3/5 486/3/5
f 489/3/5 486/3/5 488/3/5
f 490/3/5 482/3/5 489/3/5
f 491/3/5 489/3/5 488/3/5
f 492/3/5 489/3/5 491/3/5
f 496/2/5 494/2/5 493/2/5
f 497/2/5 494/2/5 496/2/5
f 499/2/5 496/2/5 495/2/5
f 499/2/5 498/2/5 497/2/5
f 499/2/5 497/2/5 496/2/5
f 500/2/5 498/2/5 499/2/5
f 501/2/5 499/2/5 495/2/5
f 502/2/5 498/2/5 500/2/5
f 503/2/5 501/2/5 495/2/5
f 503/2/5 502/2/5 501/2/5
f 504/2/5 502/2/5 503/2/5
f 505/2/5 498/2/5 502/2/5
f 505/2/5 502/2/5 504/2/5
f 506/2/5 498/2/5 505/2/5
f 507/2/5 505/2/5 504/2/5
f 508/2/5 505/2/5 507/2/5
f 511/1/5 510/1/5 509/1/5
f 512/1/5 510/1/5 511/1/5
f 515/1/5 514/1/5 513/1/5
f 516/1/5 514/1/5 515/1/5
f 520/3/5 518/3/5 517/3/5
f 521/3/5 518/3/5 520/3/5
f 523/3/5 520/3/5 519/3/5
f 524/3/5 522/3/5 521/3/5
f 525/3/5 523/3/5 519/3/5
f 525/3/5 524/3/5 523/3/5
f 526/3/5 524/3/5 525/3/5
f 527/3/5 522/3/5 524/3/5
f 527/3/5 524/3/5 526/3/5
f 528/3/5 522/3/5 527/3/5
f 529/3/5 527/3/5 526/3/5
f 530/3/5 527/3/5 529/3/5
f 534/3/5 532/3/5 531/3/5
f 535/3/5 532/3/5 534/3/5
f 537/3/5 534/3/5 533/3/5
f 537/3/5 536/3/5 535/3/5
f 537/3/5 535/3/5 534/3/5
f 538/3/5 536/3/5 537/3/5
f 539/3/5 537/3/5 533/3/5
f 540/3/5 537/3/5 539/3/5
f 541/3/5 536/3/5 538/3/5
f 542/3/5 536/3/5 541/3/5
f 543/3/5 541/3/5 540/3/5
f 544/3/5 541/3/5 543/3/5
f 547/1/5 546/1/5 545/1/5
f 548/1/5 546/1/5 547/1/5
f 553/3/5 550/3/5 549/3/5
f 554/2/5 551/2/5 550/2/5
f 554/3/5 550/3/5 553/3/5
f 555/2/5 551/2/5 554/2/5
f 557/3/5 553/3/5 552/3/5
f 558/3/5 553/3/5 557/3/5
f 559/3/5 556/3/5 555/3/5
f 560/3/5 556/3/5 559/3/5
f 561/3/5 559/3/5 558/3/5
f 562/3/5 559/3/5 561/3/5
f 563/3/6 564/3/6 565/3/6
f 565/3/6 564/3/6 566/3/6
f 563/3/6 565/3/6 567/3/6
f 566/3/6 564/3/6 568/3/6
f 563/3/6 567/3/6 569/3/6
f 567/3/6 568/3/6 569/3/6
f 568/3/6 564/3/6 570/3/6
f 569/3/6 568/3/6 570/3/6
f 571/3/6 572/3/6 573/3/6
f 573/3/6 572/3/6 574/3/6
f 571/3/6 573/3/6 575/3/6
f 574/3/6 572/3/6 576/3/6
f 571/3/6 575/3/6 577/3/6
f 575/3/6 576/3/6 577/3/6
f 576/3/6 572/3/6 578/3/6
f 577/3/6 576/3/6 578/3/6
f 579/2/6 580/2/6 581/2/6
f 581/2/6 580/2/6 582/2/6
f 583/2/6 584/2/6 585/2/6
f 585/2/6 584/2/6 586/2/6
f 587/3/6 588/3/6 589/3/6
f 589/3/6 588/3/6 590/3/6
f 587/3/6 589/3/6 591/3/6
f 590/3/6 588/3/6 592/3/6
f 587/3/6 591/3/6 593/3/6
f 591/3/6 592/3/6 593/3/6
f 592/3/6 588/3/6 594/3/6
f 593/3/6 592/3/6 594/3/6
f 595/3/6 596/3/6 597/3/6
f 597/3/6 596/3/6 598/3/6
f 599/3/6 600/3/6 601/3/6
f 601/3/6 600/3/6 602/3/6
f 603/1/6 604/1/6 605/1/6
f 605/1/6 604/1/6 606/1/6
f 607/1/6 608/1/6 610/1/6
f 608/3/6 609/3/6 611/3/6
f 610/1/6 608/1/6 611/1/6
f 611/3/6 609/3/6 612/3/6
f 614/3/6 615/3/6 616/3/6
f 616/3/6 615/3/6 617/3/6
f 612/3/6 613/3/6 619/3/6
f 619/3/6 613/3/6 620/3/6
f 617/3/6 618/3/6 621/3/6
f 621/3/6 618/3/6 622/3/6
f 623/1/6 624/1/6 627/1/6
f 627/1/6 624/1/6 628/1/6
f 625/1/6 626/1/6 630/1/6
f 630/1/6 626/1/6 631/1/6
f 629/1/6 630/1/6 632/1/6
f 632/1/6 630/1/6 633/1/6
f 634/1/6 635/1/6 636/1/6
f 636/1/6 635/1/6 637/1/6
f 638/1/6 639/1/6 640/1/6
f 640/1/6 639/1/6 641/1/6
f 642/3/6 643/3/6 647/3/6
f 647/3/6 643/3/6 648/3/6
f 644/1/6 645/1/6 649/1/6
f 649/1/6 645/1/6 650/1/6
f 646/3/6 647/3/6 651/3/6
f 651/3/6 647/3/6 652/3/6
f 653/3/6 654/3/6 655/3/6
f 655/3/6 654/3/6 656/3/6
f 657/1/6 658/1/6 659/1/6
f 659/1/6 658/1/6 660/1/6
f 662/1/6 663/1/6 664/1/6
f 664/1/6 663/1/6 665/1/6
f 660/1/6 661/1/6 667/1/6
f 667/1/6 661/1/6 668/1/6
f 665/1/6 666/1/6 669/1/6
f 669/1/6 666/1/6 670/1/6
f 671/1/6 672/1/6 673/1/6
f 673/1/6 672/1/6 674/1/6
f 675/1/6 676/1/6 677/1/6
f 677/1/6 676/1/6 678/1/6
f 679/1/6 680/1/6 681/1/6
f 681/1/6 680/1/6 682/1/6
