# MagicaVoxel @ Ephtracy

# group
o 

# material
mtllib CoffinTop.mtl
usemtl palette

# normals
vn -1 0 0
vn 1 0 0
vn 0 0 1
vn 0 0 -1
vn 0 -1 0
vn 0 1 0

# texcoords
vt 0.447266 0.5
vt 0.978516 0.5
vt 0.982422 0.5

# verts
v 2.1 2 -0.8
v 2.1 2 -1.1
v 2.1 2 -1.5
v 2.1 2 -5.8
v 2.1 2.1 -1.1
v 2.1 2.1 -1.4
v 2.1 2.2 -1.4
v 2.1 2.2 -1.5
v 2.1 2.2 -3.2
v 2.1 2.2 -3.3
v 2.1 2.3 -0.8
v 2.1 2.3 -3.2
v 2.1 2.3 -3.3
v 2.1 2.3 -5.8
v 2.2 2.3 -0.9
v 2.2 2.3 -3.2
v 2.2 2.3 -3.3
v 2.2 2.3 -5.7
v 2.2 2.4 -0.9
v 2.2 2.4 -3.2
v 2.2 2.4 -3.3
v 2.2 2.4 -5.7
v 2.3 2.4 -1
v 2.3 2.4 -3.2
v 2.3 2.4 -3.3
v 2.3 2.4 -5.6
v 2.3 2.5 -1
v 2.3 2.5 -3.2
v 2.3 2.5 -3.3
v 2.3 2.5 -5.6
v 2.6 2.5 -4.2
v 2.6 2.5 -4.4
v 2.6 2.6 -4.2
v 2.6 2.6 -4.4
v 3.1 2.5 -1.7
v 3.1 2.5 -2.4
v 3.1 2.5 -2.5
v 3.1 2.5 -4.2
v 3.1 2.5 -4.4
v 3.1 2.5 -4.9
v 3.1 2.6 -1.7
v 3.1 2.6 -4.2
v 3.1 2.6 -4.4
v 3.1 2.6 -4.9
v 3.3 2.5 -1.7
v 3.3 2.5 -4.2
v 3.3 2.5 -4.4
v 3.3 2.5 -4.9
v 3.3 2.6 -1.7
v 3.3 2.6 -4.2
v 3.3 2.6 -4.4
v 3.3 2.6 -4.9
v 3.8 2.5 -4.2
v 3.8 2.5 -4.4
v 3.8 2.6 -4.2
v 3.8 2.6 -4.4
v 4.1 2.4 -1
v 4.1 2.4 -5.1
v 4.1 2.4 -5.2
v 4.1 2.4 -5.6
v 4.1 2.5 -1
v 4.1 2.5 -5.1
v 4.1 2.5 -5.2
v 4.1 2.5 -5.6
v 4.2 2.3 -0.9
v 4.2 2.3 -4.9
v 4.2 2.3 -5.1
v 4.2 2.3 -5.2
v 4.2 2.3 -5.7
v 4.2 2.4 -0.9
v 4.2 2.4 -5.1
v 4.2 2.4 -5.2
v 4.2 2.4 -5.7
v 4.3 2 -0.8
v 4.3 2 -4.9
v 4.3 2 -5
v 4.3 2 -5.8
v 4.3 2.2 -5
v 4.3 2.2 -5.2
v 4.3 2.3 -0.8
v 4.3 2.3 -4.9
v 4.3 2.3 -5.2
v 4.3 2.3 -5.8
v 2.1 2 -0.8
v 2.1 2.3 -0.8
v 4.3 2 -0.8
v 4.3 2.3 -0.8
v 2.2 2.3 -0.9
v 2.2 2.4 -0.9
v 4.2 2.3 -0.9
v 4.2 2.4 -0.9
v 2.3 2.4 -1
v 2.3 2.5 -1
v 4.1 2.4 -1
v 4.1 2.5 -1
v 3.1 2.5 -1.7
v 3.1 2.6 -1.7
v 3.3 2.5 -1.7
v 3.3 2.6 -1.7
v 2.6 2.5 -4.2
v 2.6 2.6 -4.2
v 3.1 2.5 -4.2
v 3.1 2.6 -4.2
v 3.3 2.5 -4.2
v 3.3 2.6 -4.2
v 3.8 2.5 -4.2
v 3.8 2.6 -4.2
v 2.6 2.5 -4.4
v 2.6 2.6 -4.4
v 3.1 2.5 -4.4
v 3.1 2.6 -4.4
v 3.3 2.5 -4.4
v 3.3 2.6 -4.4
v 3.8 2.5 -4.4
v 3.8 2.6 -4.4
v 3.1 2.5 -4.9
v 3.1 2.6 -4.9
v 3.3 2.5 -4.9
v 3.3 2.6 -4.9
v 2.3 2.4 -5.6
v 2.3 2.5 -5.6
v 4.1 2.4 -5.6
v 4.1 2.5 -5.6
v 2.2 2.3 -5.7
v 2.2 2.4 -5.7
v 4.2 2.3 -5.7
v 4.2 2.4 -5.7
v 2.1 2 -5.8
v 2.1 2.3 -5.8
v 2.5 2 -5.8
v 2.5 2.1 -5.8
v 2.7 2.1 -5.8
v 2.7 2.2 -5.8
v 2.8 2 -5.8
v 2.8 2.2 -5.8
v 4.3 2 -5.8
v 4.3 2.3 -5.8
v 2.1 2 -0.8
v 4.3 2 -0.8
v 2.1 2 -1.1
v 2.2 2 -1.1
v 2.1 2 -1.5
v 2.2 2 -1.5
v 4.2 2 -4.9
v 4.3 2 -4.9
v 4.2 2 -5
v 4.3 2 -5
v 2.5 2 -5.7
v 2.8 2 -5.7
v 2.1 2 -5.8
v 2.5 2 -5.8
v 2.8 2 -5.8
v 4.3 2 -5.8
v 2.1 2.3 -0.8
v 4.3 2.3 -0.8
v 2.2 2.3 -0.9
v 4.2 2.3 -0.9
v 2.1 2.3 -3.2
v 2.2 2.3 -3.2
v 2.1 2.3 -3.3
v 2.2 2.3 -3.3
v 4.2 2.3 -4.9
v 4.3 2.3 -4.9
v 4.2 2.3 -5.1
v 4.2 2.3 -5.2
v 4.3 2.3 -5.2
v 2.2 2.3 -5.7
v 4.2 2.3 -5.7
v 2.1 2.3 -5.8
v 4.3 2.3 -5.8
v 2.2 2.4 -0.9
v 4.2 2.4 -0.9
v 2.3 2.4 -1
v 4.1 2.4 -1
v 2.2 2.4 -3.2
v 2.3 2.4 -3.2
v 2.2 2.4 -3.3
v 2.3 2.4 -3.3
v 4.1 2.4 -5.1
v 4.2 2.4 -5.1
v 4.1 2.4 -5.2
v 4.2 2.4 -5.2
v 2.3 2.4 -5.6
v 4.1 2.4 -5.6
v 2.2 2.4 -5.7
v 4.2 2.4 -5.7
v 2.3 2.5 -1
v 4.1 2.5 -1
v 3.7 2.5 -1.4
v 3.8 2.5 -1.4
v 3.3 2.5 -1.6
v 3.7 2.5 -1.6
v 3.1 2.5 -1.7
v 3.3 2.5 -1.7
v 3.5 2.5 -1.7
v 3.6 2.5 -1.7
v 3.8 2.5 -1.7
v 3.5 2.5 -1.9
v 3.6 2.5 -1.9
v 2.6 2.5 -2.3
v 2.9 2.5 -2.3
v 2.6 2.5 -2.4
v 2.8 2.5 -2.4
v 2.9 2.5 -2.4
v 3.1 2.5 -2.4
v 2.9 2.5 -2.5
v 3.1 2.5 -2.5
v 2.8 2.5 -2.8
v 2.9 2.5 -2.8
v 2.3 2.5 -3.2
v 2.5 2.5 -3.2
v 3.7 2.5 -3.2
v 3.8 2.5 -3.2
v 2.3 2.5 -3.3
v 2.5 2.5 -3.3
v 2.7 2.5 -3.4
v 2.8 2.5 -3.4
v 3.5 2.5 -3.4
v 3.7 2.5 -3.4
v 2.7 2.5 -3.5
v 2.8 2.5 -3.5
v 3.5 2.5 -3.5
v 3.7 2.5 -3.5
v 3.7 2.5 -3.6
v 3.8 2.5 -3.6
v 2.6 2.5 -4.2
v 3.1 2.5 -4.2
v 3.3 2.5 -4.2
v 3.8 2.5 -4.2
v 2.6 2.5 -4.4
v 3.1 2.5 -4.4
v 3.3 2.5 -4.4
v 3.8 2.5 -4.4
v 2.6 2.5 -4.6
v 2.7 2.5 -4.6
v 2.7 2.5 -4.8
v 2.9 2.5 -4.8
v 2.6 2.5 -4.9
v 2.8 2.5 -4.9
v 3.1 2.5 -4.9
v 3.3 2.5 -4.9
v 4 2.5 -5.1
v 4.1 2.5 -5.1
v 2.8 2.5 -5.2
v 2.9 2.5 -5.2
v 4 2.5 -5.2
v 4.1 2.5 -5.2
v 2.3 2.5 -5.6
v 4.1 2.5 -5.6
v 3.1 2.6 -1.7
v 3.3 2.6 -1.7
v 2.6 2.6 -4.2
v 3.1 2.6 -4.2
v 3.3 2.6 -4.2
v 3.8 2.6 -4.2
v 2.6 2.6 -4.4
v 3.1 2.6 -4.4
v 3.3 2.6 -4.4
v 3.8 2.6 -4.4
v 3.1 2.6 -4.9
v 3.3 2.6 -4.9

# faces
f 5/2/1 2/2/1 1/2/1
f 5/3/1 3/3/1 2/3/1
f 6/3/1 3/3/1 5/3/1
f 7/2/1 6/2/1 5/2/1
f 7/3/1 3/3/1 6/3/1
f 8/2/1 4/2/1 3/2/1
f 8/3/1 3/3/1 7/3/1
f 9/2/1 4/2/1 8/2/1
f 10/2/1 4/2/1 9/2/1
f 11/2/1 7/2/1 5/2/1
f 11/2/1 5/2/1 1/2/1
f 11/2/1 8/2/1 7/2/1
f 11/2/1 9/2/1 8/2/1
f 12/3/1 10/3/1 9/3/1
f 12/2/1 9/2/1 11/2/1
f 13/2/1 4/2/1 10/2/1
f 13/3/1 10/3/1 12/3/1
f 14/2/1 4/2/1 13/2/1
f 19/2/1 16/2/1 15/2/1
f 20/3/1 17/3/1 16/3/1
f 20/2/1 16/2/1 19/2/1
f 21/2/1 18/2/1 17/2/1
f 21/3/1 17/3/1 20/3/1
f 22/2/1 18/2/1 21/2/1
f 27/2/1 24/2/1 23/2/1
f 28/3/1 25/3/1 24/3/1
f 28/2/1 24/2/1 27/2/1
f 29/2/1 26/2/1 25/2/1
f 29/3/1 25/3/1 28/3/1
f 30/2/1 26/2/1 29/2/1
f 33/1/1 32/1/1 31/1/1
f 34/1/1 32/1/1 33/1/1
f 41/1/1 36/1/1 35/1/1
f 41/1/1 37/1/1 36/1/1
f 41/1/1 38/1/1 37/1/1
f 42/1/1 38/1/1 41/1/1
f 43/1/1 40/1/1 39/1/1
f 44/1/1 40/1/1 43/1/1
f 45/1/2 46/1/2 49/1/2
f 49/1/2 46/1/2 50/1/2
f 47/1/2 48/1/2 51/1/2
f 51/1/2 48/1/2 52/1/2
f 53/1/2 54/1/2 55/1/2
f 55/1/2 54/1/2 56/1/2
f 57/2/2 58/2/2 61/2/2
f 58/3/2 59/3/2 62/3/2
f 61/2/2 58/2/2 62/2/2
f 59/2/2 60/2/2 63/2/2
f 62/3/2 59/3/2 63/3/2
f 63/2/2 60/2/2 64/2/2
f 65/2/2 66/2/2 70/2/2
f 66/2/2 67/2/2 70/2/2
f 67/3/2 68/3/2 71/3/2
f 70/2/2 67/2/2 71/2/2
f 68/2/2 69/2/2 72/2/2
f 71/3/2 68/3/2 72/3/2
f 72/2/2 69/2/2 73/2/2
f 75/3/2 76/3/2 78/3/2
f 76/2/2 77/2/2 78/2/2
f 78/2/2 77/2/2 79/2/2
f 74/2/2 75/2/2 80/2/2
f 75/3/2 78/3/2 81/3/2
f 80/2/2 75/2/2 81/2/2
f 78/3/2 79/3/2 81/3/2
f 79/2/2 77/2/2 82/2/2
f 81/3/2 79/3/2 82/3/2
f 82/2/2 77/2/2 83/2/2
f 86/2/3 85/2/3 84/2/3
f 87/2/3 85/2/3 86/2/3
f 90/2/3 89/2/3 88/2/3
f 91/2/3 89/2/3 90/2/3
f 94/2/3 93/2/3 92/2/3
f 95/2/3 93/2/3 94/2/3
f 98/1/3 97/1/3 96/1/3
f 99/1/3 97/1/3 98/1/3
f 102/1/3 101/1/3 100/1/3
f 103/1/3 101/1/3 102/1/3
f 106/1/3 105/1/3 104/1/3
f 107/1/3 105/1/3 106/1/3
f 108/1/4 109/1/4 110/1/4
f 110/1/4 109/1/4 111/1/4
f 112/1/4 113/1/4 114/1/4
f 114/1/4 113/1/4 115/1/4
f 116/1/4 117/1/4 118/1/4
f 118/1/4 117/1/4 119/1/4
f 120/2/4 121/2/4 122/2/4
f 122/2/4 121/2/4 123/2/4
f 124/2/4 125/2/4 126/2/4
f 126/2/4 125/2/4 127/2/4
f 128/2/4 129/2/4 130/2/4
f 130/2/4 129/2/4 131/2/4
f 130/3/4 131/3/4 132/3/4
f 131/2/4 129/2/4 132/2/4
f 132/2/4 129/2/4 133/2/4
f 130/3/4 132/3/4 134/3/4
f 132/3/4 133/3/4 134/3/4
f 133/2/4 129/2/4 135/2/4
f 134/3/4 133/3/4 135/3/4
f 134/2/4 135/2/4 136/2/4
f 135/2/4 129/2/4 137/2/4
f 136/2/4 135/2/4 137/2/4
f 140/2/5 139/2/5 138/2/5
f 141/2/5 139/2/5 140/2/5
f 142/3/5 141/3/5 140/3/5
f 143/2/5 139/2/5 141/2/5
f 143/3/5 141/3/5 142/3/5
f 144/2/5 143/2/5 142/2/5
f 144/2/5 139/2/5 143/2/5
f 145/2/5 139/2/5 144/2/5
f 146/2/5 144/2/5 142/2/5
f 146/3/5 145/3/5 144/3/5
f 147/3/5 145/3/5 146/3/5
f 148/2/5 146/2/5 142/2/5
f 148/2/5 147/2/5 146/2/5
f 149/2/5 147/2/5 148/2/5
f 150/2/5 148/2/5 142/2/5
f 151/3/5 149/3/5 148/3/5
f 151/2/5 148/2/5 150/2/5
f 152/2/5 147/2/5 149/2/5
f 152/3/5 149/3/5 151/3/5
f 153/2/5 147/2/5 152/2/5
f 154/2/6 155/2/6 156/2/6
f 156/2/6 155/2/6 157/2/6
f 154/2/6 156/2/6 158/2/6
f 158/2/6 156/2/6 159/2/6
f 158/3/6 159/3/6 160/3/6
f 160/3/6 159/3/6 161/3/6
f 157/2/6 155/2/6 162/2/6
f 162/2/6 155/2/6 163/2/6
f 162/3/6 163/3/6 164/3/6
f 164/3/6 163/3/6 165/3/6
f 165/3/6 163/3/6 166/3/6
f 160/2/6 161/2/6 167/2/6
f 165/2/6 166/2/6 168/2/6
f 160/2/6 167/2/6 169/2/6
f 167/2/6 168/2/6 169/2/6
f 168/2/6 166/2/6 170/2/6
f 169/2/6 168/2/6 170/2/6
f 171/2/6 172/2/6 173/2/6
f 173/2/6 172/2/6 174/2/6
f 171/2/6 173/2/6 175/2/6
f 175/2/6 173/2/6 176/2/6
f 175/3/6 176/3/6 177/3/6
f 177/3/6 176/3/6 178/3/6
f 174/2/6 172/2/6 179/2/6
f 179/2/6 172/2/6 180/2/6
f 179/3/6 180/3/6 181/3/6
f 181/3/6 180/3/6 182/3/6
f 177/2/6 178/2/6 183/2/6
f 181/2/6 182/2/6 184/2/6
f 177/2/6 183/2/6 185/2/6
f 183/2/6 184/2/6 185/2/6
f 184/2/6 182/2/6 186/2/6
f 185/2/6 184/2/6 186/2/6
f 187/2/6 188/2/6 189/2/6
f 189/2/6 188/2/6 190/2/6
f 187/2/6 189/2/6 191/2/6
f 189/3/6 190/3/6 192/3/6
f 191/2/6 189/2/6 192/2/6
f 187/2/6 191/2/6 193/2/6
f 191/3/6 192/3/6 194/3/6
f 193/2/6 191/2/6 194/2/6
f 194/3/6 192/3/6 195/3/6
f 195/3/6 192/3/6 196/3/6
f 190/2/6 188/2/6 197/2/6
f 196/3/6 192/3/6 197/3/6
f 192/3/6 190/3/6 197/3/6
f 195/3/6 196/3/6 198/3/6
f 194/2/6 195/2/6 198/2/6
f 196/2/6 197/2/6 199/2/6
f 198/3/6 196/3/6 199/3/6
f 187/2/6 193/2/6 200/2/6
f 200/2/6 193/2/6 201/2/6
f 187/2/6 200/2/6 202/2/6
f 200/3/6 201/3/6 202/3/6
f 202/3/6 201/3/6 203/3/6
f 201/2/6 193/2/6 204/2/6
f 203/3/6 201/3/6 204/3/6
f 204/2/6 193/2/6 205/2/6
f 203/3/6 204/3/6 206/3/6
f 204/3/6 205/3/6 206/3/6
f 206/3/6 205/3/6 207/3/6
f 202/2/6 203/2/6 208/2/6
f 203/3/6 206/3/6 208/3/6
f 206/2/6 207/2/6 209/2/6
f 208/3/6 206/3/6 209/3/6
f 187/2/6 202/2/6 210/2/6
f 202/2/6 208/2/6 210/2/6
f 208/2/6 209/2/6 210/2/6
f 210/2/6 209/2/6 211/2/6
f 199/2/6 197/2/6 212/2/6
f 198/2/6 199/2/6 212/2/6
f 197/2/6 188/2/6 213/2/6
f 212/2/6 197/2/6 213/2/6
f 210/3/6 211/3/6 214/3/6
f 211/2/6 209/2/6 215/2/6
f 214/3/6 211/3/6 215/3/6
f 214/2/6 215/2/6 216/2/6
f 215/2/6 209/2/6 216/2/6
f 216/2/6 209/2/6 217/2/6
f 198/2/6 212/2/6 218/2/6
f 194/2/6 198/2/6 218/2/6
f 212/3/6 213/3/6 219/3/6
f 218/2/6 212/2/6 219/2/6
f 216/3/6 217/3/6 220/3/6
f 214/2/6 216/2/6 220/2/6
f 217/2/6 209/2/6 221/2/6
f 220/3/6 217/3/6 221/3/6
f 194/2/6 218/2/6 222/2/6
f 218/3/6 219/3/6 222/3/6
f 219/3/6 213/3/6 223/3/6
f 222/3/6 219/3/6 223/3/6
f 222/2/6 223/2/6 224/2/6
f 223/3/6 213/3/6 224/3/6
f 213/2/6 188/2/6 225/2/6
f 224/3/6 213/3/6 225/3/6
f 214/2/6 220/2/6 226/2/6
f 220/2/6 221/2/6 226/2/6
f 209/2/6 207/2/6 227/2/6
f 226/2/6 221/2/6 227/2/6
f 221/2/6 209/2/6 227/2/6
f 194/2/6 222/2/6 228/2/6
f 222/2/6 224/2/6 228/2/6
f 224/2/6 225/2/6 228/2/6
f 225/2/6 188/2/6 229/2/6
f 228/2/6 225/2/6 229/2/6
f 214/2/6 226/2/6 230/2/6
f 229/2/6 188/2/6 233/2/6
f 230/2/6 231/2/6 234/2/6
f 214/2/6 230/2/6 234/2/6
f 234/2/6 231/2/6 235/2/6
f 234/3/6 235/3/6 236/3/6
f 235/2/6 231/2/6 236/2/6
f 236/2/6 231/2/6 237/2/6
f 214/2/6 234/2/6 238/2/6
f 234/3/6 236/3/6 238/3/6
f 236/3/6 237/3/6 238/3/6
f 238/3/6 237/3/6 239/3/6
f 237/2/6 231/2/6 240/2/6
f 232/2/6 233/2/6 241/2/6
f 233/2/6 188/2/6 242/2/6
f 240/2/6 241/2/6 242/2/6
f 241/2/6 233/2/6 242/2/6
f 242/2/6 188/2/6 243/2/6
f 239/3/6 237/3/6 244/3/6
f 238/2/6 239/2/6 244/2/6
f 237/2/6 240/2/6 245/2/6
f 244/3/6 237/3/6 245/3/6
f 240/2/6 242/2/6 245/2/6
f 242/3/6 243/3/6 246/3/6
f 245/2/6 242/2/6 246/2/6
f 246/3/6 243/3/6 247/3/6
f 238/2/6 244/2/6 248/2/6
f 214/2/6 238/2/6 248/2/6
f 246/2/6 247/2/6 248/2/6
f 245/2/6 246/2/6 248/2/6
f 244/2/6 245/2/6 248/2/6
f 248/2/6 247/2/6 249/2/6
f 250/1/6 251/1/6 253/1/6
f 253/1/6 251/1/6 254/1/6
f 252/1/6 253/1/6 256/1/6
f 254/1/6 255/1/6 256/1/6
f 253/1/6 254/1/6 256/1/6
f 256/1/6 255/1/6 257/1/6
f 257/1/6 255/1/6 258/1/6
f 258/1/6 255/1/6 259/1/6
f 257/1/6 258/1/6 260/1/6
f 260/1/6 258/1/6 261/1/6
