# MagicaVoxel @ Ephtracy

# group
o 

# material
mtllib Pot.mtl
usemtl palette

# normals
vn -1 0 0
vn 1 0 0
vn 0 0 1
vn 0 0 -1
vn 0 -1 0
vn 0 1 0

# texcoords
vt 0.326172 0.5
vt 0.361328 0.5

# verts
v 1.3 2.2 -1.5
v 1.3 2.2 -2.5
v 1.3 2.8 -1.9
v 1.3 2.8 -2.1
v 1.3 3 -1.7
v 1.3 3 -1.8
v 1.3 3 -2.2
v 1.3 3 -2.3
v 1.3 3.1 -1.5
v 1.3 3.1 -1.6
v 1.3 3.1 -2.4
v 1.3 3.1 -2.5
v 1.3 3.3 -1.6
v 1.3 3.3 -1.7
v 1.3 3.3 -1.8
v 1.3 3.3 -1.9
v 1.3 3.3 -2.1
v 1.3 3.3 -2.2
v 1.3 3.3 -2.3
v 1.3 3.3 -2.4
v 1.3 3.4 -1.5
v 1.3 3.4 -2.5
v 1.4 2 -1.6
v 1.4 2 -2.4
v 1.4 2.2 -1.6
v 1.4 2.2 -2.4
v 1.4 3.4 -1.6
v 1.4 3.4 -2.4
v 1.4 3.6 -1.6
v 1.4 3.6 -2.4
v 1.5 3.6 -1.7
v 1.5 3.6 -2.3
v 1.5 3.8 -1.7
v 1.5 3.8 -2.3
v 1.5 4.2 -1.7
v 1.5 4.2 -2.3
v 1.5 4.4 -1.7
v 1.5 4.4 -2.3
v 1.6 3.8 -1.8
v 1.6 3.8 -2.2
v 1.6 4.2 -1.8
v 1.6 4.2 -2.2
v 1.9 3.6 -1.9
v 1.9 3.6 -2.1
v 1.9 3.8 -1.9
v 1.9 3.8 -2.1
v 1.9 4.3 -1.9
v 1.9 4.3 -2.1
v 2 4.3 -1.8
v 2 4.3 -2.2
v 2 4.4 -1.8
v 2 4.4 -2.2
v 1.6 4.3 -1.8
v 1.6 4.3 -2.2
v 1.6 4.4 -1.8
v 1.6 4.4 -2.2
v 1.7 3.6 -1.9
v 1.7 3.6 -2.1
v 1.7 3.8 -1.9
v 1.7 3.8 -2.1
v 1.7 4.3 -1.9
v 1.7 4.3 -2.1
v 2 3.8 -1.8
v 2 3.8 -2.2
v 2 4.2 -1.8
v 2 4.2 -2.2
v 2.1 3.6 -1.7
v 2.1 3.6 -2.3
v 2.1 3.8 -1.7
v 2.1 3.8 -2.3
v 2.1 4.2 -1.7
v 2.1 4.2 -2.3
v 2.1 4.4 -1.7
v 2.1 4.4 -2.3
v 2.2 2 -1.6
v 2.2 2 -2.4
v 2.2 2.2 -1.6
v 2.2 2.2 -2.4
v 2.2 3.4 -1.6
v 2.2 3.4 -2.4
v 2.2 3.6 -1.6
v 2.2 3.6 -2.4
v 2.3 2.2 -1.5
v 2.3 2.2 -2.5
v 2.3 2.9 -1.9
v 2.3 2.9 -2.1
v 2.3 3 -1.7
v 2.3 3 -1.8
v 2.3 3 -2.2
v 2.3 3 -2.3
v 2.3 3.1 -1.5
v 2.3 3.1 -1.6
v 2.3 3.1 -2.4
v 2.3 3.1 -2.5
v 2.3 3.3 -1.6
v 2.3 3.3 -1.7
v 2.3 3.3 -1.8
v 2.3 3.3 -1.9
v 2.3 3.3 -2.1
v 2.3 3.3 -2.2
v 2.3 3.3 -2.3
v 2.3 3.3 -2.4
v 2.3 3.4 -1.5
v 2.3 3.4 -2.5
v 1.3 2.2 -1.5
v 1.3 3.1 -1.5
v 1.3 3.4 -1.5
v 1.4 3.1 -1.5
v 1.4 3.3 -1.5
v 1.5 3 -1.5
v 1.5 3.3 -1.5
v 1.6 3 -1.5
v 1.6 3.3 -1.5
v 1.7 2.9 -1.5
v 1.7 3.3 -1.5
v 1.9 2.9 -1.5
v 1.9 3.3 -1.5
v 2 3 -1.5
v 2 3.3 -1.5
v 2.1 3 -1.5
v 2.1 3.3 -1.5
v 2.2 3.1 -1.5
v 2.2 3.3 -1.5
v 2.3 2.2 -1.5
v 2.3 3.1 -1.5
v 2.3 3.4 -1.5
v 1.4 2 -1.6
v 1.4 2.2 -1.6
v 1.4 3.4 -1.6
v 1.4 3.6 -1.6
v 2.2 2 -1.6
v 2.2 2.2 -1.6
v 2.2 3.4 -1.6
v 2.2 3.6 -1.6
v 1.5 3.6 -1.7
v 1.5 3.8 -1.7
v 1.5 4.2 -1.7
v 1.5 4.4 -1.7
v 2.1 3.6 -1.7
v 2.1 3.8 -1.7
v 2.1 4.2 -1.7
v 2.1 4.4 -1.7
v 1.6 3.8 -1.8
v 1.6 4.2 -1.8
v 2 3.8 -1.8
v 2 4.2 -1.8
v 1.7 3.6 -2.1
v 1.7 3.8 -2.1
v 1.7 4.3 -2.1
v 1.9 3.6 -2.1
v 1.9 3.8 -2.1
v 1.9 4.3 -2.1
v 1.6 4.3 -2.2
v 1.6 4.4 -2.2
v 2 4.3 -2.2
v 2 4.4 -2.2
v 1.6 4.3 -1.8
v 1.6 4.4 -1.8
v 2 4.3 -1.8
v 2 4.4 -1.8
v 1.7 3.6 -1.9
v 1.7 3.8 -1.9
v 1.7 4.3 -1.9
v 1.9 3.6 -1.9
v 1.9 3.8 -1.9
v 1.9 4.3 -1.9
v 1.6 3.8 -2.2
v 1.6 4.2 -2.2
v 2 3.8 -2.2
v 2 4.2 -2.2
v 1.5 3.6 -2.3
v 1.5 3.8 -2.3
v 1.5 4.2 -2.3
v 1.5 4.4 -2.3
v 2.1 3.6 -2.3
v 2.1 3.8 -2.3
v 2.1 4.2 -2.3
v 2.1 4.4 -2.3
v 1.4 2 -2.4
v 1.4 2.2 -2.4
v 1.4 3.4 -2.4
v 1.4 3.6 -2.4
v 2.2 2 -2.4
v 2.2 2.2 -2.4
v 2.2 3.4 -2.4
v 2.2 3.6 -2.4
v 1.3 2.2 -2.5
v 1.3 3.1 -2.5
v 1.3 3.4 -2.5
v 1.4 3.1 -2.5
v 1.4 3.3 -2.5
v 1.5 3 -2.5
v 1.5 3.3 -2.5
v 1.6 3 -2.5
v 1.6 3.3 -2.5
v 1.7 2.9 -2.5
v 1.7 3.3 -2.5
v 1.9 2.9 -2.5
v 1.9 3.3 -2.5
v 2 3 -2.5
v 2 3.3 -2.5
v 2.1 3 -2.5
v 2.1 3.3 -2.5
v 2.2 3.1 -2.5
v 2.2 3.3 -2.5
v 2.3 2.2 -2.5
v 2.3 3.1 -2.5
v 2.3 3.4 -2.5
v 1.4 2 -1.6
v 2.2 2 -1.6
v 1.4 2 -2.4
v 2.2 2 -2.4
v 1.3 2.2 -1.5
v 2.3 2.2 -1.5
v 1.4 2.2 -1.6
v 2.2 2.2 -1.6
v 1.4 2.2 -2.4
v 2.2 2.2 -2.4
v 1.3 2.2 -2.5
v 2.3 2.2 -2.5
v 1.5 4.2 -1.7
v 2.1 4.2 -1.7
v 1.6 4.2 -1.8
v 2 4.2 -1.8
v 1.6 4.2 -2.2
v 2 4.2 -2.2
v 1.5 4.2 -2.3
v 2.1 4.2 -2.3
v 1.3 3.4 -1.5
v 2.3 3.4 -1.5
v 1.4 3.4 -1.6
v 2.2 3.4 -1.6
v 1.4 3.4 -2.4
v 2.2 3.4 -2.4
v 1.3 3.4 -2.5
v 2.3 3.4 -2.5
v 1.4 3.6 -1.6
v 2.2 3.6 -1.6
v 1.5 3.6 -1.7
v 2.1 3.6 -1.7
v 1.7 3.6 -1.9
v 1.9 3.6 -1.9
v 1.7 3.6 -2.1
v 1.9 3.6 -2.1
v 1.5 3.6 -2.3
v 2.1 3.6 -2.3
v 1.4 3.6 -2.4
v 2.2 3.6 -2.4
v 1.5 3.8 -1.7
v 2.1 3.8 -1.7
v 1.6 3.8 -1.8
v 2 3.8 -1.8
v 1.6 3.8 -2.2
v 2 3.8 -2.2
v 1.5 3.8 -2.3
v 2.1 3.8 -2.3
v 1.6 4.3 -1.8
v 2 4.3 -1.8
v 1.7 4.3 -1.9
v 1.9 4.3 -1.9
v 1.7 4.3 -2.1
v 1.9 4.3 -2.1
v 1.6 4.3 -2.2
v 2 4.3 -2.2
v 1.5 4.4 -1.7
v 2.1 4.4 -1.7
v 1.6 4.4 -1.8
v 2 4.4 -1.8
v 1.6 4.4 -2.2
v 2 4.4 -2.2
v 1.5 4.4 -2.3
v 2.1 4.4 -2.3

# faces
f 3/1/1 2/1/1 1/1/1
f 4/1/1 2/1/1 3/1/1
f 5/1/1 3/1/1 1/1/1
f 6/1/1 3/1/1 5/1/1
f 7/1/1 2/1/1 4/1/1
f 8/1/1 2/1/1 7/1/1
f 9/1/1 5/1/1 1/1/1
f 10/1/1 5/1/1 9/1/1
f 11/1/1 2/1/1 8/1/1
f 12/1/1 2/1/1 11/1/1
f 13/1/1 5/1/1 10/1/1
f 13/2/1 10/2/1 9/2/1
f 14/2/1 6/2/1 5/2/1
f 14/1/1 5/1/1 13/1/1
f 15/1/1 3/1/1 6/1/1
f 15/2/1 6/2/1 14/2/1
f 16/2/1 4/2/1 3/2/1
f 16/1/1 3/1/1 15/1/1
f 17/1/1 7/1/1 4/1/1
f 17/2/1 4/2/1 16/2/1
f 18/2/1 8/2/1 7/2/1
f 18/1/1 7/1/1 17/1/1
f 19/1/1 11/1/1 8/1/1
f 19/2/1 8/2/1 18/2/1
f 20/2/1 12/2/1 11/2/1
f 20/1/1 11/1/1 19/1/1
f 21/2/1 14/2/1 13/2/1
f 21/2/1 15/2/1 14/2/1
f 21/2/1 20/2/1 19/2/1
f 21/2/1 18/2/1 17/2/1
f 21/2/1 19/2/1 18/2/1
f 21/2/1 13/2/1 9/2/1
f 21/2/1 17/2/1 16/2/1
f 21/2/1 16/2/1 15/2/1
f 22/2/1 12/2/1 20/2/1
f 22/2/1 20/2/1 21/2/1
f 25/1/1 24/1/1 23/1/1
f 26/1/1 24/1/1 25/1/1
f 29/2/1 28/2/1 27/2/1
f 30/2/1 28/2/1 29/2/1
f 33/2/1 32/2/1 31/2/1
f 34/2/1 32/2/1 33/2/1
f 37/2/1 36/2/1 35/2/1
f 38/2/1 36/2/1 37/2/1
f 41/2/1 40/2/1 39/2/1
f 42/2/1 40/2/1 41/2/1
f 45/1/1 44/1/1 43/1/1
f 46/1/1 44/1/1 45/1/1
f 47/2/1 46/2/1 45/2/1
f 48/2/1 46/2/1 47/2/1
f 51/2/1 50/2/1 49/2/1
f 52/2/1 50/2/1 51/2/1
f 53/2/2 54/2/2 55/2/2
f 55/2/2 54/2/2 56/2/2
f 57/1/2 58/1/2 59/1/2
f 59/1/2 58/1/2 60/1/2
f 59/2/2 60/2/2 61/2/2
f 61/2/2 60/2/2 62/2/2
f 63/2/2 64/2/2 65/2/2
f 65/2/2 64/2/2 66/2/2
f 67/2/2 68/2/2 69/2/2
f 69/2/2 68/2/2 70/2/2
f 71/2/2 72/2/2 73/2/2
f 73/2/2 72/2/2 74/2/2
f 75/1/2 76/1/2 77/1/2
f 77/1/2 76/1/2 78/1/2
f 79/2/2 80/2/2 81/2/2
f 81/2/2 80/2/2 82/2/2
f 83/1/2 84/1/2 85/1/2
f 85/1/2 84/1/2 86/1/2
f 83/1/2 85/1/2 87/1/2
f 87/1/2 85/1/2 88/1/2
f 86/1/2 84/1/2 89/1/2
f 89/1/2 84/1/2 90/1/2
f 83/1/2 87/1/2 91/1/2
f 91/1/2 87/1/2 92/1/2
f 90/1/2 84/1/2 93/1/2
f 93/1/2 84/1/2 94/1/2
f 92/1/2 87/1/2 95/1/2
f 91/2/2 92/2/2 95/2/2
f 87/2/2 88/2/2 96/2/2
f 95/1/2 87/1/2 96/1/2
f 88/1/2 85/1/2 97/1/2
f 96/2/2 88/2/2 97/2/2
f 85/2/2 86/2/2 98/2/2
f 97/1/2 85/1/2 98/1/2
f 86/1/2 89/1/2 99/1/2
f 98/2/2 86/2/2 99/2/2
f 89/2/2 90/2/2 100/2/2
f 99/1/2 89/1/2 100/1/2
f 90/1/2 93/1/2 101/1/2
f 100/2/2 90/2/2 101/2/2
f 93/2/2 94/2/2 102/2/2
f 101/1/2 93/1/2 102/1/2
f 95/2/2 96/2/2 103/2/2
f 96/2/2 97/2/2 103/2/2
f 101/2/2 102/2/2 103/2/2
f 99/2/2 100/2/2 103/2/2
f 100/2/2 101/2/2 103/2/2
f 91/2/2 95/2/2 103/2/2
f 98/2/2 99/2/2 103/2/2
f 97/2/2 98/2/2 103/2/2
f 102/2/2 94/2/2 104/2/2
f 103/2/2 102/2/2 104/2/2
f 108/1/3 106/1/3 105/1/3
f 108/2/3 107/2/3 106/2/3
f 109/2/3 107/2/3 108/2/3
f 110/1/3 108/1/3 105/1/3
f 110/1/3 109/1/3 108/1/3
f 111/2/3 107/2/3 109/2/3
f 111/1/3 109/1/3 110/1/3
f 112/1/3 110/1/3 105/1/3
f 112/2/3 111/2/3 110/2/3
f 113/2/3 107/2/3 111/2/3
f 113/2/3 111/2/3 112/2/3
f 114/1/3 112/1/3 105/1/3
f 114/1/3 113/1/3 112/1/3
f 115/2/3 107/2/3 113/2/3
f 115/1/3 113/1/3 114/1/3
f 116/1/3 114/1/3 105/1/3
f 116/2/3 115/2/3 114/2/3
f 117/2/3 107/2/3 115/2/3
f 117/2/3 115/2/3 116/2/3
f 118/1/3 117/1/3 116/1/3
f 119/2/3 107/2/3 117/2/3
f 119/1/3 117/1/3 118/1/3
f 120/1/3 118/1/3 116/1/3
f 120/2/3 119/2/3 118/2/3
f 121/2/3 107/2/3 119/2/3
f 121/2/3 119/2/3 120/2/3
f 122/1/3 121/1/3 120/1/3
f 123/2/3 107/2/3 121/2/3
f 123/1/3 121/1/3 122/1/3
f 124/1/3 116/1/3 105/1/3
f 124/1/3 120/1/3 116/1/3
f 124/1/3 122/1/3 120/1/3
f 125/2/3 123/2/3 122/2/3
f 125/1/3 122/1/3 124/1/3
f 126/2/3 107/2/3 123/2/3
f 126/2/3 123/2/3 125/2/3
f 131/1/3 128/1/3 127/1/3
f 132/1/3 128/1/3 131/1/3
f 133/2/3 130/2/3 129/2/3
f 134/2/3 130/2/3 133/2/3
f 139/2/3 136/2/3 135/2/3
f 140/2/3 136/2/3 139/2/3
f 141/2/3 138/2/3 137/2/3
f 142/2/3 138/2/3 141/2/3
f 145/2/3 144/2/3 143/2/3
f 146/2/3 144/2/3 145/2/3
f 150/1/3 148/1/3 147/1/3
f 151/2/3 149/2/3 148/2/3
f 151/1/3 148/1/3 150/1/3
f 152/2/3 149/2/3 151/2/3
f 155/2/3 154/2/3 153/2/3
f 156/2/3 154/2/3 155/2/3
f 157/2/4 158/2/4 159/2/4
f 159/2/4 158/2/4 160/2/4
f 161/1/4 162/1/4 164/1/4
f 162/2/4 163/2/4 165/2/4
f 164/1/4 162/1/4 165/1/4
f 165/2/4 163/2/4 166/2/4
f 167/2/4 168/2/4 169/2/4
f 169/2/4 168/2/4 170/2/4
f 171/2/4 172/2/4 175/2/4
f 175/2/4 172/2/4 176/2/4
f 173/2/4 174/2/4 177/2/4
f 177/2/4 174/2/4 178/2/4
f 179/1/4 180/1/4 183/1/4
f 183/1/4 180/1/4 184/1/4
f 181/2/4 182/2/4 185/2/4
f 185/2/4 182/2/4 186/2/4
f 187/1/4 188/1/4 190/1/4
f 188/2/4 189/2/4 190/2/4
f 190/2/4 189/2/4 191/2/4
f 187/1/4 190/1/4 192/1/4
f 190/1/4 191/1/4 192/1/4
f 191/2/4 189/2/4 193/2/4
f 192/1/4 191/1/4 193/1/4
f 187/1/4 192/1/4 194/1/4
f 192/2/4 193/2/4 194/2/4
f 193/2/4 189/2/4 195/2/4
f 194/2/4 193/2/4 195/2/4
f 187/1/4 194/1/4 196/1/4
f 194/1/4 195/1/4 196/1/4
f 195/2/4 189/2/4 197/2/4
f 196/1/4 195/1/4 197/1/4
f 187/1/4 196/1/4 198/1/4
f 196/2/4 197/2/4 198/2/4
f 197/2/4 189/2/4 199/2/4
f 198/2/4 197/2/4 199/2/4
f 198/1/4 199/1/4 200/1/4
f 199/2/4 189/2/4 201/2/4
f 200/1/4 199/1/4 201/1/4
f 198/1/4 200/1/4 202/1/4
f 200/2/4 201/2/4 202/2/4
f 201/2/4 189/2/4 203/2/4
f 202/2/4 201/2/4 203/2/4
f 202/1/4 203/1/4 204/1/4
f 203/2/4 189/2/4 205/2/4
f 204/1/4 203/1/4 205/1/4
f 187/1/4 198/1/4 206/1/4
f 198/1/4 202/1/4 206/1/4
f 202/1/4 204/1/4 206/1/4
f 204/2/4 205/2/4 207/2/4
f 206/1/4 204/1/4 207/1/4
f 205/2/4 189/2/4 208/2/4
f 207/2/4 205/2/4 208/2/4
f 211/1/5 210/1/5 209/1/5
f 212/1/5 210/1/5 211/1/5
f 215/1/5 214/1/5 213/1/5
f 216/1/5 214/1/5 215/1/5
f 217/1/5 215/1/5 213/1/5
f 218/1/5 214/1/5 216/1/5
f 219/1/5 217/1/5 213/1/5
f 219/1/5 218/1/5 217/1/5
f 220/1/5 214/1/5 218/1/5
f 220/1/5 218/1/5 219/1/5
f 223/2/5 222/2/5 221/2/5
f 224/2/5 222/2/5 223/2/5
f 225/2/5 223/2/5 221/2/5
f 226/2/5 222/2/5 224/2/5
f 227/2/5 225/2/5 221/2/5
f 227/2/5 226/2/5 225/2/5
f 228/2/5 222/2/5 226/2/5
f 228/2/5 226/2/5 227/2/5
f 229/2/6 230/2/6 231/2/6
f 231/2/6 230/2/6 232/2/6
f 229/2/6 231/2/6 233/2/6
f 232/2/6 230/2/6 234/2/6
f 229/2/6 233/2/6 235/2/6
f 233/2/6 234/2/6 235/2/6
f 234/2/6 230/2/6 236/2/6
f 235/2/6 234/2/6 236/2/6
f 237/2/6 238/2/6 239/2/6
f 239/2/6 238/2/6 240/2/6
f 241/1/6 242/1/6 243/1/6
f 243/1/6 242/1/6 244/1/6
f 237/2/6 239/2/6 245/2/6
f 240/2/6 238/2/6 246/2/6
f 237/2/6 245/2/6 247/2/6
f 245/2/6 246/2/6 247/2/6
f 246/2/6 238/2/6 248/2/6
f 247/2/6 246/2/6 248/2/6
f 249/2/6 250/2/6 251/2/6
f 251/2/6 250/2/6 252/2/6
f 249/2/6 251/2/6 253/2/6
f 252/2/6 250/2/6 254/2/6
f 249/2/6 253/2/6 255/2/6
f 253/2/6 254/2/6 255/2/6
f 254/2/6 250/2/6 256/2/6
f 255/2/6 254/2/6 256/2/6
f 257/2/6 258/2/6 259/2/6
f 259/2/6 258/2/6 260/2/6
f 257/2/6 259/2/6 261/2/6
f 260/2/6 258/2/6 262/2/6
f 257/2/6 261/2/6 263/2/6
f 261/2/6 262/2/6 263/2/6
f 262/2/6 258/2/6 264/2/6
f 263/2/6 262/2/6 264/2/6
f 265/2/6 266/2/6 267/2/6
f 267/2/6 266/2/6 268/2/6
f 265/2/6 267/2/6 269/2/6
f 268/2/6 266/2/6 270/2/6
f 265/2/6 269/2/6 271/2/6
f 269/2/6 270/2/6 271/2/6
f 270/2/6 266/2/6 272/2/6
f 271/2/6 270/2/6 272/2/6
