# MagicaVoxel @ Ephtracy

# group
o 

# material
mtllib Schield.mtl
usemtl palette

# normals
vn -1 0 0
vn 1 0 0
vn 0 0 1
vn 0 0 -1
vn 0 -1 0
vn 0 1 0

# texcoords
vt 0.224609 0.5
vt 0.310547 0.5
vt 0.982422 0.5

# verts
v 0 2 -0.6
v 0 2 -1.1
v 0 2.1 -0.6
v 0 2.1 -1.1
v 0.1 2 -0.4
v 0.1 2 -0.6
v 0.1 2 -1.1
v 0.1 2 -1.3
v 0.1 2.1 -0.4
v 0.1 2.1 -0.6
v 0.1 2.1 -1.1
v 0.1 2.1 -1.3
v 0.1 2.2 -0.6
v 0.1 2.2 -1.1
v 0.2 2 -0.2
v 0.2 2 -0.4
v 0.2 2 -1.3
v 0.2 2 -1.5
v 0.2 2.1 -0.2
v 0.2 2.1 -0.4
v 0.2 2.1 -0.6
v 0.2 2.1 -1.1
v 0.2 2.1 -1.3
v 0.2 2.1 -1.5
v 0.2 2.2 -0.4
v 0.2 2.2 -0.6
v 0.2 2.2 -1.1
v 0.2 2.2 -1.3
v 0.3 2.1 -0.3
v 0.3 2.1 -0.4
v 0.3 2.1 -1.3
v 0.3 2.1 -1.4
v 0.3 2.2 -0.3
v 0.3 2.2 -0.4
v 0.3 2.2 -1.3
v 0.3 2.2 -1.4
v 0.4 2 -0.1
v 0.4 2 -0.2
v 0.4 2 -1.5
v 0.4 2 -1.6
v 0.4 2.1 -0.1
v 0.4 2.1 -0.2
v 0.4 2.1 -0.3
v 0.4 2.1 -1.4
v 0.4 2.1 -1.5
v 0.4 2.1 -1.6
v 0.4 2.2 -0.2
v 0.4 2.2 -0.3
v 0.4 2.2 -1.4
v 0.4 2.2 -1.5
v 0.6 2 0
v 0.6 2 -0.1
v 0.6 2 -1.6
v 0.6 2 -1.7
v 0.6 2.1 0
v 0.6 2.1 -0.1
v 0.6 2.1 -0.2
v 0.6 2.1 -1.5
v 0.6 2.1 -1.6
v 0.6 2.1 -1.7
v 0.6 2.2 -0.1
v 0.6 2.2 -0.2
v 0.6 2.2 -1.5
v 0.6 2.2 -1.6
v 1.1 2 0
v 1.1 2 -0.1
v 1.1 2 -1.6
v 1.1 2 -1.7
v 1.1 2.1 0
v 1.1 2.1 -0.1
v 1.1 2.1 -0.2
v 1.1 2.1 -1.5
v 1.1 2.1 -1.6
v 1.1 2.1 -1.7
v 1.1 2.2 -0.1
v 1.1 2.2 -0.2
v 1.1 2.2 -1.5
v 1.1 2.2 -1.6
v 1.3 2 -0.1
v 1.3 2 -0.2
v 1.3 2 -1.5
v 1.3 2 -1.6
v 1.3 2.1 -0.1
v 1.3 2.1 -0.2
v 1.3 2.1 -0.3
v 1.3 2.1 -1.4
v 1.3 2.1 -1.5
v 1.3 2.1 -1.6
v 1.3 2.2 -0.2
v 1.3 2.2 -0.3
v 1.3 2.2 -1.4
v 1.3 2.2 -1.5
v 1.4 2.1 -0.3
v 1.4 2.1 -0.4
v 1.4 2.1 -1.3
v 1.4 2.1 -1.4
v 1.4 2.2 -0.3
v 1.4 2.2 -0.4
v 1.4 2.2 -1.3
v 1.4 2.2 -1.4
v 1.5 2 -0.2
v 1.5 2 -0.4
v 1.5 2 -1.3
v 1.5 2 -1.5
v 1.5 2.1 -0.2
v 1.5 2.1 -0.4
v 1.5 2.1 -0.6
v 1.5 2.1 -1.1
v 1.5 2.1 -1.3
v 1.5 2.1 -1.5
v 1.5 2.2 -0.4
v 1.5 2.2 -0.6
v 1.5 2.2 -1.1
v 1.5 2.2 -1.3
v 1.6 2 -0.4
v 1.6 2 -0.6
v 1.6 2 -1.1
v 1.6 2 -1.3
v 1.6 2.1 -0.4
v 1.6 2.1 -0.6
v 1.6 2.1 -1.1
v 1.6 2.1 -1.3
v 1.6 2.2 -0.6
v 1.6 2.2 -1.1
v 1.7 2 -0.6
v 1.7 2 -1.1
v 1.7 2.1 -0.6
v 1.7 2.1 -1.1
v 0.6 2 0
v 0.6 2.1 0
v 1.1 2 0
v 1.1 2.1 0
v 0.4 2 -0.1
v 0.4 2.1 -0.1
v 0.6 2 -0.1
v 0.6 2.1 -0.1
v 0.6 2.2 -0.1
v 1.1 2 -0.1
v 1.1 2.1 -0.1
v 1.1 2.2 -0.1
v 1.3 2 -0.1
v 1.3 2.1 -0.1
v 0.2 2 -0.2
v 0.2 2.1 -0.2
v 0.4 2 -0.2
v 0.4 2.1 -0.2
v 0.4 2.2 -0.2
v 0.6 2.1 -0.2
v 0.6 2.2 -0.2
v 1.1 2.1 -0.2
v 1.1 2.2 -0.2
v 1.3 2 -0.2
v 1.3 2.1 -0.2
v 1.3 2.2 -0.2
v 1.5 2 -0.2
v 1.5 2.1 -0.2
v 0.3 2.1 -0.3
v 0.3 2.2 -0.3
v 0.4 2.1 -0.3
v 0.4 2.2 -0.3
v 1.3 2.1 -0.3
v 1.3 2.2 -0.3
v 1.4 2.1 -0.3
v 1.4 2.2 -0.3
v 0.1 2 -0.4
v 0.1 2.1 -0.4
v 0.2 2 -0.4
v 0.2 2.1 -0.4
v 0.2 2.2 -0.4
v 0.3 2.1 -0.4
v 0.3 2.2 -0.4
v 1.4 2.1 -0.4
v 1.4 2.2 -0.4
v 1.5 2 -0.4
v 1.5 2.1 -0.4
v 1.5 2.2 -0.4
v 1.6 2 -0.4
v 1.6 2.1 -0.4
v 0 2 -0.6
v 0 2.1 -0.6
v 0.1 2 -0.6
v 0.1 2.1 -0.6
v 0.1 2.2 -0.6
v 0.2 2.1 -0.6
v 0.2 2.2 -0.6
v 1.5 2.1 -0.6
v 1.5 2.2 -0.6
v 1.6 2 -0.6
v 1.6 2.1 -0.6
v 1.6 2.2 -0.6
v 1.7 2 -0.6
v 1.7 2.1 -0.6
v 0 2 -1.1
v 0 2.1 -1.1
v 0.1 2 -1.1
v 0.1 2.1 -1.1
v 0.1 2.2 -1.1
v 0.2 2.1 -1.1
v 0.2 2.2 -1.1
v 1.5 2.1 -1.1
v 1.5 2.2 -1.1
v 1.6 2 -1.1
v 1.6 2.1 -1.1
v 1.6 2.2 -1.1
v 1.7 2 -1.1
v 1.7 2.1 -1.1
v 0.1 2 -1.3
v 0.1 2.1 -1.3
v 0.2 2 -1.3
v 0.2 2.1 -1.3
v 0.2 2.2 -1.3
v 0.3 2.1 -1.3
v 0.3 2.2 -1.3
v 1.4 2.1 -1.3
v 1.4 2.2 -1.3
v 1.5 2 -1.3
v 1.5 2.1 -1.3
v 1.5 2.2 -1.3
v 1.6 2 -1.3
v 1.6 2.1 -1.3
v 0.3 2.1 -1.4
v 0.3 2.2 -1.4
v 0.4 2.1 -1.4
v 0.4 2.2 -1.4
v 1.3 2.1 -1.4
v 1.3 2.2 -1.4
v 1.4 2.1 -1.4
v 1.4 2.2 -1.4
v 0.2 2 -1.5
v 0.2 2.1 -1.5
v 0.4 2 -1.5
v 0.4 2.1 -1.5
v 0.4 2.2 -1.5
v 0.6 2.1 -1.5
v 0.6 2.2 -1.5
v 1.1 2.1 -1.5
v 1.1 2.2 -1.5
v 1.3 2 -1.5
v 1.3 2.1 -1.5
v 1.3 2.2 -1.5
v 1.5 2 -1.5
v 1.5 2.1 -1.5
v 0.4 2 -1.6
v 0.4 2.1 -1.6
v 0.6 2 -1.6
v 0.6 2.1 -1.6
v 0.6 2.2 -1.6
v 1.1 2 -1.6
v 1.1 2.1 -1.6
v 1.1 2.2 -1.6
v 1.3 2 -1.6
v 1.3 2.1 -1.6
v 0.6 2 -1.7
v 0.6 2.1 -1.7
v 1.1 2 -1.7
v 1.1 2.1 -1.7
v 0.6 2 0
v 1.1 2 0
v 0.4 2 -0.1
v 0.6 2 -0.1
v 0.8 2 -0.1
v 0.9 2 -0.1
v 1.1 2 -0.1
v 1.3 2 -0.1
v 0.2 2 -0.2
v 0.4 2 -0.2
v 0.5 2 -0.2
v 0.6 2 -0.2
v 1.1 2 -0.2
v 1.3 2 -0.2
v 1.5 2 -0.2
v 0.3 2 -0.3
v 0.4 2 -0.3
v 1.3 2 -0.3
v 1.4 2 -0.3
v 0.1 2 -0.4
v 0.2 2 -0.4
v 0.3 2 -0.4
v 1.4 2 -0.4
v 1.5 2 -0.4
v 1.6 2 -0.4
v 0 2 -0.6
v 0.1 2 -0.6
v 0.2 2 -0.6
v 1.5 2 -0.6
v 1.6 2 -0.6
v 1.7 2 -0.6
v 0 2 -1.1
v 0.1 2 -1.1
v 0.2 2 -1.1
v 1.5 2 -1.1
v 1.6 2 -1.1
v 1.7 2 -1.1
v 0.1 2 -1.3
v 0.2 2 -1.3
v 0.3 2 -1.3
v 1.4 2 -1.3
v 1.5 2 -1.3
v 1.6 2 -1.3
v 0.3 2 -1.4
v 0.4 2 -1.4
v 1.3 2 -1.4
v 1.4 2 -1.4
v 0.2 2 -1.5
v 0.4 2 -1.5
v 0.5 2 -1.5
v 0.6 2 -1.5
v 1.1 2 -1.5
v 1.3 2 -1.5
v 1.5 2 -1.5
v 0.4 2 -1.6
v 0.6 2 -1.6
v 0.8 2 -1.6
v 0.9 2 -1.6
v 1.1 2 -1.6
v 1.3 2 -1.6
v 0.6 2 -1.7
v 1.1 2 -1.7
v 0.6 2.1 0
v 1.1 2.1 0
v 0.4 2.1 -0.1
v 0.6 2.1 -0.1
v 1.1 2.1 -0.1
v 1.3 2.1 -0.1
v 0.2 2.1 -0.2
v 0.4 2.1 -0.2
v 0.6 2.1 -0.2
v 1.1 2.1 -0.2
v 1.3 2.1 -0.2
v 1.5 2.1 -0.2
v 0.3 2.1 -0.3
v 0.4 2.1 -0.3
v 1.3 2.1 -0.3
v 1.4 2.1 -0.3
v 0.1 2.1 -0.4
v 0.2 2.1 -0.4
v 0.3 2.1 -0.4
v 1.4 2.1 -0.4
v 1.5 2.1 -0.4
v 1.6 2.1 -0.4
v 0 2.1 -0.6
v 0.1 2.1 -0.6
v 0.2 2.1 -0.6
v 1.5 2.1 -0.6
v 1.6 2.1 -0.6
v 1.7 2.1 -0.6
v 0 2.1 -1.1
v 0.1 2.1 -1.1
v 0.2 2.1 -1.1
v 1.5 2.1 -1.1
v 1.6 2.1 -1.1
v 1.7 2.1 -1.1
v 0.1 2.1 -1.3
v 0.2 2.1 -1.3
v 0.3 2.1 -1.3
v 1.4 2.1 -1.3
v 1.5 2.1 -1.3
v 1.6 2.1 -1.3
v 0.3 2.1 -1.4
v 0.4 2.1 -1.4
v 1.3 2.1 -1.4
v 1.4 2.1 -1.4
v 0.2 2.1 -1.5
v 0.4 2.1 -1.5
v 0.6 2.1 -1.5
v 1.1 2.1 -1.5
v 1.3 2.1 -1.5
v 1.5 2.1 -1.5
v 0.4 2.1 -1.6
v 0.6 2.1 -1.6
v 1.1 2.1 -1.6
v 1.3 2.1 -1.6
v 0.6 2.1 -1.7
v 1.1 2.1 -1.7
v 0.6 2.2 -0.1
v 1.1 2.2 -0.1
v 0.4 2.2 -0.2
v 0.6 2.2 -0.2
v 1.1 2.2 -0.2
v 1.3 2.2 -0.2
v 0.3 2.2 -0.3
v 0.4 2.2 -0.3
v 0.6 2.2 -0.3
v 1.1 2.2 -0.3
v 1.3 2.2 -0.3
v 1.4 2.2 -0.3
v 0.2 2.2 -0.4
v 0.3 2.2 -0.4
v 0.4 2.2 -0.4
v 1.3 2.2 -0.4
v 1.4 2.2 -0.4
v 1.5 2.2 -0.4
v 0.3 2.2 -0.5
v 1.4 2.2 -0.5
v 0.1 2.2 -0.6
v 0.2 2.2 -0.6
v 0.3 2.2 -0.6
v 1.4 2.2 -0.6
v 1.5 2.2 -0.6
v 1.6 2.2 -0.6
v 0.8 2.2 -0.7
v 0.9 2.2 -0.7
v 0.2 2.2 -0.8
v 0.7 2.2 -0.8
v 0.8 2.2 -0.8
v 0.9 2.2 -0.8
v 1 2.2 -0.8
v 1.5 2.2 -0.8
v 0.2 2.2 -0.9
v 0.7 2.2 -0.9
v 0.8 2.2 -0.9
v 0.9 2.2 -0.9
v 1 2.2 -0.9
v 1.5 2.2 -0.9
v 0.8 2.2 -1
v 0.9 2.2 -1
v 0.1 2.2 -1.1
v 0.2 2.2 -1.1
v 0.3 2.2 -1.1
v 1.4 2.2 -1.1
v 1.5 2.2 -1.1
v 1.6 2.2 -1.1
v 0.3 2.2 -1.2
v 1.4 2.2 -1.2
v 0.2 2.2 -1.3
v 0.3 2.2 -1.3
v 0.4 2.2 -1.3
v 1.3 2.2 -1.3
v 1.4 2.2 -1.3
v 1.5 2.2 -1.3
v 0.3 2.2 -1.4
v 0.4 2.2 -1.4
v 0.6 2.2 -1.4
v 1.1 2.2 -1.4
v 1.3 2.2 -1.4
v 1.4 2.2 -1.4
v 0.4 2.2 -1.5
v 0.6 2.2 -1.5
v 1.1 2.2 -1.5
v 1.3 2.2 -1.5
v 0.6 2.2 -1.6
v 1.1 2.2 -1.6

# faces
f 3/3/1 2/3/1 1/3/1
f 4/3/1 2/3/1 3/3/1
f 9/3/1 6/3/1 5/3/1
f 10/3/1 6/3/1 9/3/1
f 11/3/1 8/3/1 7/3/1
f 12/3/1 8/3/1 11/3/1
f 13/3/1 11/3/1 10/3/1
f 14/3/1 11/3/1 13/3/1
f 19/3/1 16/3/1 15/3/1
f 20/3/1 16/3/1 19/3/1
f 23/3/1 18/3/1 17/3/1
f 24/3/1 18/3/1 23/3/1
f 25/3/1 21/3/1 20/3/1
f 26/3/1 21/3/1 25/3/1
f 27/3/1 23/3/1 22/3/1
f 28/3/1 23/3/1 27/3/1
f 33/3/1 30/3/1 29/3/1
f 34/3/1 30/3/1 33/3/1
f 35/3/1 32/3/1 31/3/1
f 36/3/1 32/3/1 35/3/1
f 41/3/1 38/3/1 37/3/1
f 42/3/1 38/3/1 41/3/1
f 45/3/1 40/3/1 39/3/1
f 46/3/1 40/3/1 45/3/1
f 47/3/1 43/3/1 42/3/1
f 48/3/1 43/3/1 47/3/1
f 49/3/1 45/3/1 44/3/1
f 50/3/1 45/3/1 49/3/1
f 55/3/1 52/3/1 51/3/1
f 56/3/1 52/3/1 55/3/1
f 59/3/1 54/3/1 53/3/1
f 60/3/1 54/3/1 59/3/1
f 61/3/1 57/3/1 56/3/1
f 62/3/1 57/3/1 61/3/1
f 63/3/1 59/3/1 58/3/1
f 64/3/1 59/3/1 63/3/1
f 65/3/2 66/3/2 69/3/2
f 69/3/2 66/3/2 70/3/2
f 67/3/2 68/3/2 73/3/2
f 73/3/2 68/3/2 74/3/2
f 70/3/2 71/3/2 75/3/2
f 75/3/2 71/3/2 76/3/2
f 72/3/2 73/3/2 77/3/2
f 77/3/2 73/3/2 78/3/2
f 79/3/2 80/3/2 83/3/2
f 83/3/2 80/3/2 84/3/2
f 81/3/2 82/3/2 87/3/2
f 87/3/2 82/3/2 88/3/2
f 84/3/2 85/3/2 89/3/2
f 89/3/2 85/3/2 90/3/2
f 86/3/2 87/3/2 91/3/2
f 91/3/2 87/3/2 92/3/2
f 93/3/2 94/3/2 97/3/2
f 97/3/2 94/3/2 98/3/2
f 95/3/2 96/3/2 99/3/2
f 99/3/2 96/3/2 100/3/2
f 101/3/2 102/3/2 105/3/2
f 105/3/2 102/3/2 106/3/2
f 103/3/2 104/3/2 109/3/2
f 109/3/2 104/3/2 110/3/2
f 106/3/2 107/3/2 111/3/2
f 111/3/2 107/3/2 112/3/2
f 108/3/2 109/3/2 113/3/2
f 113/3/2 109/3/2 114/3/2
f 115/3/2 116/3/2 119/3/2
f 119/3/2 116/3/2 120/3/2
f 117/3/2 118/3/2 121/3/2
f 121/3/2 118/3/2 122/3/2
f 120/3/2 121/3/2 123/3/2
f 123/3/2 121/3/2 124/3/2
f 125/3/2 126/3/2 127/3/2
f 127/3/2 126/3/2 128/3/2
f 131/3/3 130/3/3 129/3/3
f 132/3/3 130/3/3 131/3/3
f 135/3/3 134/3/3 133/3/3
f 136/3/3 134/3/3 135/3/3
f 139/3/3 137/3/3 136/3/3
f 140/3/3 137/3/3 139/3/3
f 141/3/3 139/3/3 138/3/3
f 142/3/3 139/3/3 141/3/3
f 145/3/3 144/3/3 143/3/3
f 146/3/3 144/3/3 145/3/3
f 148/3/3 147/3/3 146/3/3
f 149/3/3 147/3/3 148/3/3
f 153/3/3 151/3/3 150/3/3
f 154/3/3 151/3/3 153/3/3
f 155/3/3 153/3/3 152/3/3
f 156/3/3 153/3/3 155/3/3
f 159/3/3 158/3/3 157/3/3
f 160/3/3 158/3/3 159/3/3
f 163/3/3 162/3/3 161/3/3
f 164/3/3 162/3/3 163/3/3
f 167/3/3 166/3/3 165/3/3
f 168/3/3 166/3/3 167/3/3
f 170/3/3 169/3/3 168/3/3
f 171/3/3 169/3/3 170/3/3
f 175/3/3 173/3/3 172/3/3
f 176/3/3 173/3/3 175/3/3
f 177/3/3 175/3/3 174/3/3
f 178/3/3 175/3/3 177/3/3
f 181/3/3 180/3/3 179/3/3
f 182/3/3 180/3/3 181/3/3
f 184/3/3 183/3/3 182/3/3
f 185/3/3 183/3/3 184/3/3
f 189/3/3 187/3/3 186/3/3
f 190/3/3 187/3/3 189/3/3
f 191/3/3 189/3/3 188/3/3
f 192/3/3 189/3/3 191/3/3
f 193/3/4 194/3/4 195/3/4
f 195/3/4 194/3/4 196/3/4
f 196/3/4 197/3/4 198/3/4
f 198/3/4 197/3/4 199/3/4
f 200/3/4 201/3/4 203/3/4
f 203/3/4 201/3/4 204/3/4
f 202/3/4 203/3/4 205/3/4
f 205/3/4 203/3/4 206/3/4
f 207/3/4 208/3/4 209/3/4
f 209/3/4 208/3/4 210/3/4
f 210/3/4 211/3/4 212/3/4
f 212/3/4 211/3/4 213/3/4
f 214/3/4 215/3/4 217/3/4
f 217/3/4 215/3/4 218/3/4
f 216/3/4 217/3/4 219/3/4
f 219/3/4 217/3/4 220/3/4
f 221/3/4 222/3/4 223/3/4
f 223/3/4 222/3/4 224/3/4
f 225/3/4 226/3/4 227/3/4
f 227/3/4 226/3/4 228/3/4
f 229/3/4 230/3/4 231/3/4
f 231/3/4 230/3/4 232/3/4
f 232/3/4 233/3/4 234/3/4
f 234/3/4 233/3/4 235/3/4
f 236/3/4 237/3/4 239/3/4
f 239/3/4 237/3/4 240/3/4
f 238/3/4 239/3/4 241/3/4
f 241/3/4 239/3/4 242/3/4
f 243/3/4 244/3/4 245/3/4
f 245/3/4 244/3/4 246/3/4
f 246/3/4 247/3/4 249/3/4
f 249/3/4 247/3/4 250/3/4
f 248/3/4 249/3/4 251/3/4
f 251/3/4 249/3/4 252/3/4
f 253/3/4 254/3/4 255/3/4
f 255/3/4 254/3/4 256/3/4
f 260/3/5 258/3/5 257/3/5
f 261/3/5 258/3/5 260/3/5
f 262/3/5 258/3/5 261/3/5
f 263/3/5 258/3/5 262/3/5
f 266/3/5 260/3/5 259/3/5
f 267/3/5 260/3/5 266/3/5
f 268/1/5 261/1/5 260/1/5
f 268/3/5 260/3/5 267/3/5
f 269/3/5 264/3/5 263/3/5
f 269/1/5 263/1/5 262/1/5
f 270/3/5 264/3/5 269/3/5
f 272/3/5 266/3/5 265/3/5
f 273/2/5 267/2/5 266/2/5
f 273/3/5 266/3/5 272/3/5
f 274/3/5 271/3/5 270/3/5
f 274/1/5 270/1/5 269/1/5
f 275/3/5 271/3/5 274/3/5
f 277/3/5 272/3/5 265/3/5
f 278/1/5 273/1/5 272/1/5
f 278/3/5 272/3/5 277/3/5
f 279/3/5 271/3/5 275/3/5
f 279/2/5 275/2/5 274/2/5
f 280/3/5 271/3/5 279/3/5
f 283/3/5 277/3/5 276/3/5
f 284/1/5 278/1/5 277/1/5
f 284/3/5 277/3/5 283/3/5
f 285/3/5 281/3/5 280/3/5
f 285/1/5 280/1/5 279/1/5
f 286/3/5 281/3/5 285/3/5
f 288/3/5 283/3/5 282/3/5
f 289/1/5 284/1/5 283/1/5
f 289/3/5 283/3/5 288/3/5
f 290/1/5 278/1/5 284/1/5
f 290/1/5 284/1/5 289/1/5
f 291/1/5 285/1/5 279/1/5
f 291/1/5 286/1/5 285/1/5
f 292/3/5 287/3/5 286/3/5
f 292/1/5 286/1/5 291/1/5
f 293/3/5 287/3/5 292/3/5
f 294/3/5 290/3/5 289/3/5
f 295/1/5 278/1/5 290/1/5
f 295/3/5 290/3/5 294/3/5
f 296/1/5 273/1/5 278/1/5
f 296/1/5 278/1/5 295/1/5
f 297/1/5 291/1/5 279/1/5
f 297/2/5 279/2/5 274/2/5
f 298/3/5 292/3/5 291/3/5
f 298/1/5 291/1/5 297/1/5
f 299/3/5 292/3/5 298/3/5
f 300/1/5 273/1/5 296/1/5
f 300/3/5 296/3/5 295/3/5
f 301/2/5 267/2/5 273/2/5
f 301/1/5 273/1/5 300/1/5
f 302/1/5 274/1/5 269/1/5
f 302/2/5 297/2/5 274/2/5
f 303/3/5 298/3/5 297/3/5
f 303/2/5 297/2/5 302/2/5
f 304/3/5 300/3/5 295/3/5
f 304/3/5 301/3/5 300/3/5
f 305/2/5 267/2/5 301/2/5
f 305/3/5 301/3/5 304/3/5
f 306/1/5 268/1/5 267/1/5
f 306/2/5 267/2/5 305/2/5
f 307/1/5 261/1/5 268/1/5
f 307/1/5 268/1/5 306/1/5
f 308/1/5 269/1/5 262/1/5
f 308/1/5 302/1/5 269/1/5
f 309/3/5 303/3/5 302/3/5
f 309/1/5 302/1/5 308/1/5
f 310/3/5 298/3/5 303/3/5
f 310/3/5 303/3/5 309/3/5
f 311/3/5 306/3/5 305/3/5
f 311/3/5 307/3/5 306/3/5
f 312/1/5 261/1/5 307/1/5
f 312/3/5 307/3/5 311/3/5
f 313/2/5 262/2/5 261/2/5
f 313/1/5 261/1/5 312/1/5
f 314/1/5 308/1/5 262/1/5
f 314/2/5 262/2/5 313/2/5
f 315/3/5 309/3/5 308/3/5
f 315/1/5 308/1/5 314/1/5
f 316/3/5 309/3/5 315/3/5
f 317/3/5 314/3/5 313/3/5
f 317/3/5 315/3/5 314/3/5
f 317/3/5 313/3/5 312/3/5
f 318/3/5 315/3/5 317/3/5
f 319/3/6 320/3/6 322/3/6
f 322/3/6 320/3/6 323/3/6
f 321/3/6 322/3/6 326/3/6
f 326/3/6 322/3/6 327/3/6
f 323/3/6 324/3/6 328/3/6
f 328/3/6 324/3/6 329/3/6
f 325/3/6 326/3/6 331/3/6
f 331/3/6 326/3/6 332/3/6
f 329/3/6 330/3/6 333/3/6
f 333/3/6 330/3/6 334/3/6
f 325/3/6 331/3/6 336/3/6
f 336/3/6 331/3/6 337/3/6
f 334/3/6 330/3/6 338/3/6
f 338/3/6 330/3/6 339/3/6
f 335/3/6 336/3/6 342/3/6
f 342/3/6 336/3/6 343/3/6
f 339/3/6 340/3/6 344/3/6
f 344/3/6 340/3/6 345/3/6
f 341/3/6 342/3/6 347/3/6
f 347/3/6 342/3/6 348/3/6
f 345/3/6 346/3/6 351/3/6
f 351/3/6 346/3/6 352/3/6
f 348/3/6 349/3/6 353/3/6
f 353/3/6 349/3/6 354/3/6
f 350/3/6 351/3/6 357/3/6
f 357/3/6 351/3/6 358/3/6
f 354/3/6 355/3/6 359/3/6
f 356/3/6 357/3/6 362/3/6
f 359/3/6 360/3/6 363/3/6
f 354/3/6 359/3/6 363/3/6
f 363/3/6 360/3/6 364/3/6
f 361/3/6 362/3/6 367/3/6
f 362/3/6 357/3/6 368/3/6
f 367/3/6 362/3/6 368/3/6
f 364/3/6 365/3/6 369/3/6
f 369/3/6 365/3/6 370/3/6
f 366/3/6 367/3/6 371/3/6
f 371/3/6 367/3/6 372/3/6
f 370/3/6 371/3/6 373/3/6
f 373/3/6 371/3/6 374/3/6
f 375/3/6 376/3/6 378/3/6
f 378/3/6 376/3/6 379/3/6
f 377/3/6 378/3/6 382/3/6
f 378/1/6 379/1/6 383/1/6
f 382/3/6 378/3/6 383/3/6
f 379/3/6 380/3/6 384/3/6
f 383/1/6 379/1/6 384/1/6
f 384/3/6 380/3/6 385/3/6
f 381/3/6 382/3/6 388/3/6
f 382/1/6 383/1/6 389/1/6
f 383/1/6 384/1/6 389/1/6
f 388/3/6 382/3/6 389/3/6
f 384/1/6 385/1/6 389/1/6
f 385/3/6 386/3/6 390/3/6
f 389/1/6 385/1/6 390/1/6
f 390/3/6 386/3/6 391/3/6
f 387/3/6 388/3/6 393/3/6
f 388/2/6 389/2/6 393/2/6
f 390/2/6 391/2/6 393/2/6
f 389/2/6 390/2/6 393/2/6
f 391/3/6 392/3/6 394/3/6
f 393/2/6 391/2/6 394/2/6
f 387/3/6 393/3/6 396/3/6
f 393/1/6 394/1/6 397/1/6
f 396/3/6 393/3/6 397/3/6
f 394/3/6 392/3/6 398/3/6
f 397/1/6 394/1/6 398/1/6
f 398/3/6 392/3/6 399/3/6
f 396/1/6 397/1/6 401/1/6
f 397/1/6 398/1/6 401/1/6
f 398/1/6 399/1/6 401/1/6
f 401/1/6 399/1/6 402/1/6
f 395/3/6 396/3/6 403/3/6
f 396/1/6 401/1/6 403/1/6
f 403/1/6 401/1/6 404/1/6
f 401/3/6 402/3/6 405/3/6
f 404/1/6 401/1/6 405/1/6
f 402/1/6 399/1/6 406/1/6
f 405/3/6 402/3/6 406/3/6
f 406/1/6 399/1/6 407/1/6
f 399/3/6 400/3/6 408/3/6
f 407/1/6 399/1/6 408/1/6
f 403/2/6 404/2/6 409/2/6
f 395/3/6 403/3/6 409/3/6
f 406/3/6 407/3/6 410/3/6
f 409/2/6 404/2/6 410/2/6
f 404/3/6 405/3/6 410/3/6
f 405/3/6 406/3/6 410/3/6
f 410/3/6 407/3/6 411/3/6
f 411/3/6 407/3/6 412/3/6
f 407/2/6 408/2/6 413/2/6
f 412/3/6 407/3/6 413/3/6
f 408/3/6 400/3/6 414/3/6
f 413/2/6 408/2/6 414/2/6
f 411/3/6 412/3/6 415/3/6
f 409/1/6 410/1/6 415/1/6
f 410/1/6 411/1/6 415/1/6
f 412/1/6 413/1/6 416/1/6
f 415/3/6 412/3/6 416/3/6
f 413/1/6 414/1/6 416/1/6
f 395/3/6 409/3/6 417/3/6
f 409/1/6 415/1/6 418/1/6
f 417/3/6 409/3/6 418/3/6
f 415/1/6 416/1/6 418/1/6
f 418/1/6 416/1/6 419/1/6
f 416/1/6 414/1/6 420/1/6
f 419/1/6 416/1/6 420/1/6
f 414/3/6 400/3/6 421/3/6
f 420/1/6 414/1/6 421/1/6
f 421/3/6 400/3/6 422/3/6
f 418/3/6 419/3/6 423/3/6
f 419/1/6 420/1/6 423/1/6
f 420/3/6 421/3/6 424/3/6
f 423/1/6 420/1/6 424/1/6
f 418/3/6 423/3/6 425/3/6
f 423/2/6 424/2/6 426/2/6
f 425/3/6 423/3/6 426/3/6
f 426/2/6 424/2/6 427/2/6
f 427/2/6 424/2/6 428/2/6
f 424/3/6 421/3/6 429/3/6
f 428/2/6 424/2/6 429/2/6
f 429/3/6 421/3/6 430/3/6
f 426/3/6 427/3/6 431/3/6
f 427/1/6 428/1/6 432/1/6
f 431/3/6 427/3/6 432/3/6
f 432/1/6 428/1/6 433/1/6
f 433/1/6 428/1/6 434/1/6
f 428/3/6 429/3/6 435/3/6
f 434/1/6 428/1/6 435/1/6
f 435/3/6 429/3/6 436/3/6
f 432/3/6 433/3/6 437/3/6
f 433/1/6 434/1/6 438/1/6
f 437/3/6 433/3/6 438/3/6
f 434/3/6 435/3/6 439/3/6
f 438/1/6 434/1/6 439/1/6
f 439/3/6 435/3/6 440/3/6
f 438/3/6 439/3/6 441/3/6
f 441/3/6 439/3/6 442/3/6
