# MagicaVoxel @ Ephtracy

# group
o 

# material
mtllib TorchHolder.mtl
usemtl palette

# normals
vn -1 0 0
vn 1 0 0
vn 0 0 1
vn 0 0 -1
vn 0 -1 0
vn 0 1 0

# texcoords
vt 0.978516 0.5
vt 0.982422 0.5

# verts
v 0.6 2.5 -0.8
v 0.6 2.5 -1.5
v 0.6 2.6 -0.9
v 0.6 2.6 -1.4
v 0.6 3.5 -0.9
v 0.6 3.5 -1.4
v 0.6 3.6 -0.8
v 0.6 3.6 -1.5
v 1.1 2.7 -1
v 1.1 2.7 -1.3
v 1.1 2.8 -1
v 1.1 2.8 -1.3
v 0.7 2.5 -0.8
v 0.7 2.5 -1.5
v 0.7 2.6 -0.9
v 0.7 2.6 -1.4
v 0.7 2.7 -0.9
v 0.7 2.7 -1
v 0.7 2.7 -1.3
v 0.7 2.7 -1.4
v 0.7 2.8 -0.9
v 0.7 2.8 -1
v 0.7 2.8 -1.3
v 0.7 2.8 -1.4
v 0.7 3.5 -0.9
v 0.7 3.5 -1.4
v 0.7 3.6 -0.8
v 0.7 3.6 -1.5
v 0.8 2.7 -1
v 0.8 2.7 -1.3
v 0.8 2.8 -1
v 0.8 2.8 -1.3
v 1.2 2.7 -0.9
v 1.2 2.7 -1
v 1.2 2.7 -1.3
v 1.2 2.7 -1.4
v 1.2 2.8 -0.9
v 1.2 2.8 -1
v 1.2 2.8 -1.3
v 1.2 2.8 -1.4
v 0.6 2.5 -0.8
v 0.6 3.6 -0.8
v 0.7 2.5 -0.8
v 0.7 3.6 -0.8
v 0.7 2.7 -0.9
v 0.7 2.8 -0.9
v 0.8 2.7 -0.9
v 0.8 2.8 -0.9
v 1.1 2.7 -0.9
v 1.1 2.8 -0.9
v 1.2 2.7 -0.9
v 1.2 2.8 -0.9
v 0.8 2.7 -1.3
v 0.8 2.8 -1.3
v 1.1 2.7 -1.3
v 1.1 2.8 -1.3
v 0.8 2.7 -1
v 0.8 2.8 -1
v 1.1 2.7 -1
v 1.1 2.8 -1
v 0.7 2.7 -1.4
v 0.7 2.8 -1.4
v 0.8 2.7 -1.4
v 0.8 2.8 -1.4
v 1.1 2.7 -1.4
v 1.1 2.8 -1.4
v 1.2 2.7 -1.4
v 1.2 2.8 -1.4
v 0.6 2.5 -1.5
v 0.6 3.6 -1.5
v 0.7 2.5 -1.5
v 0.7 3.6 -1.5
v 0.6 2.5 -0.8
v 0.7 2.5 -0.8
v 0.6 2.5 -1.5
v 0.7 2.5 -1.5
v 0.7 2.7 -0.9
v 0.8 2.7 -0.9
v 1.1 2.7 -0.9
v 1.2 2.7 -0.9
v 0.7 2.7 -1
v 0.8 2.7 -1
v 1.1 2.7 -1
v 1.2 2.7 -1
v 0.7 2.7 -1.3
v 0.8 2.7 -1.3
v 1.1 2.7 -1.3
v 1.2 2.7 -1.3
v 0.7 2.7 -1.4
v 0.8 2.7 -1.4
v 1.1 2.7 -1.4
v 1.2 2.7 -1.4
v 0.7 2.8 -0.9
v 0.8 2.8 -0.9
v 1.1 2.8 -0.9
v 1.2 2.8 -0.9
v 0.7 2.8 -1
v 0.8 2.8 -1
v 1.1 2.8 -1
v 1.2 2.8 -1
v 0.7 2.8 -1.3
v 0.8 2.8 -1.3
v 1.1 2.8 -1.3
v 1.2 2.8 -1.3
v 0.7 2.8 -1.4
v 0.8 2.8 -1.4
v 1.1 2.8 -1.4
v 1.2 2.8 -1.4
v 0.6 3.6 -0.8
v 0.7 3.6 -0.8
v 0.6 3.6 -1.5
v 0.7 3.6 -1.5

# faces
f 3/2/1 2/2/1 1/2/1
f 4/2/1 2/2/1 3/2/1
f 5/2/1 3/2/1 1/2/1
f 5/1/1 4/1/1 3/1/1
f 6/2/1 2/2/1 4/2/1
f 6/1/1 4/1/1 5/1/1
f 7/2/1 5/2/1 1/2/1
f 7/2/1 6/2/1 5/2/1
f 8/2/1 2/2/1 6/2/1
f 8/2/1 6/2/1 7/2/1
f 11/1/1 10/1/1 9/1/1
f 12/1/1 10/1/1 11/1/1
f 13/2/2 14/2/2 15/2/2
f 15/2/2 14/2/2 16/2/2
f 13/2/2 15/2/2 17/2/2
f 15/1/2 16/1/2 17/1/2
f 17/1/2 16/1/2 18/1/2
f 18/1/2 16/1/2 19/1/2
f 16/2/2 14/2/2 20/2/2
f 19/1/2 16/1/2 20/1/2
f 13/2/2 17/2/2 21/2/2
f 20/2/2 14/2/2 24/2/2
f 22/1/2 23/1/2 25/1/2
f 23/1/2 24/1/2 25/1/2
f 13/2/2 21/2/2 25/2/2
f 21/1/2 22/1/2 25/1/2
f 24/2/2 14/2/2 26/2/2
f 25/1/2 24/1/2 26/1/2
f 13/2/2 25/2/2 27/2/2
f 25/2/2 26/2/2 27/2/2
f 26/2/2 14/2/2 28/2/2
f 27/2/2 26/2/2 28/2/2
f 29/1/2 30/1/2 31/1/2
f 31/1/2 30/1/2 32/1/2
f 33/2/2 34/2/2 37/2/2
f 34/1/2 35/1/2 38/1/2
f 37/2/2 34/2/2 38/2/2
f 35/2/2 36/2/2 39/2/2
f 38/1/2 35/1/2 39/1/2
f 39/2/2 36/2/2 40/2/2
f 43/2/3 42/2/3 41/2/3
f 44/2/3 42/2/3 43/2/3
f 47/2/3 46/2/3 45/2/3
f 48/2/3 46/2/3 47/2/3
f 49/1/3 48/1/3 47/1/3
f 50/1/3 48/1/3 49/1/3
f 51/2/3 50/2/3 49/2/3
f 52/2/3 50/2/3 51/2/3
f 55/1/3 54/1/3 53/1/3
f 56/1/3 54/1/3 55/1/3
f 57/1/4 58/1/4 59/1/4
f 59/1/4 58/1/4 60/1/4
f 61/2/4 62/2/4 63/2/4
f 63/2/4 62/2/4 64/2/4
f 63/1/4 64/1/4 65/1/4
f 65/1/4 64/1/4 66/1/4
f 65/2/4 66/2/4 67/2/4
f 67/2/4 66/2/4 68/2/4
f 69/2/4 70/2/4 71/2/4
f 71/2/4 70/2/4 72/2/4
f 75/2/5 74/2/5 73/2/5
f 76/2/5 74/2/5 75/2/5
f 81/2/5 78/2/5 77/2/5
f 82/1/5 79/1/5 78/1/5
f 82/2/5 78/2/5 81/2/5
f 83/2/5 80/2/5 79/2/5
f 83/1/5 79/1/5 82/1/5
f 84/2/5 80/2/5 83/2/5
f 85/1/5 82/1/5 81/1/5
f 86/1/5 82/1/5 85/1/5
f 87/1/5 84/1/5 83/1/5
f 88/1/5 84/1/5 87/1/5
f 89/2/5 86/2/5 85/2/5
f 90/1/5 87/1/5 86/1/5
f 90/2/5 86/2/5 89/2/5
f 91/2/5 88/2/5 87/2/5
f 91/1/5 87/1/5 90/1/5
f 92/2/5 88/2/5 91/2/5
f 93/2/6 94/2/6 97/2/6
f 94/1/6 95/1/6 98/1/6
f 97/2/6 94/2/6 98/2/6
f 95/2/6 96/2/6 99/2/6
f 98/1/6 95/1/6 99/1/6
f 99/2/6 96/2/6 100/2/6
f 97/1/6 98/1/6 101/1/6
f 101/1/6 98/1/6 102/1/6
f 99/1/6 100/1/6 103/1/6
f 103/1/6 100/1/6 104/1/6
f 101/2/6 102/2/6 105/2/6
f 102/1/6 103/1/6 106/1/6
f 105/2/6 102/2/6 106/2/6
f 103/2/6 104/2/6 107/2/6
f 106/1/6 103/1/6 107/1/6
f 107/2/6 104/2/6 108/2/6
f 109/2/6 110/2/6 111/2/6
f 111/2/6 110/2/6 112/2/6
