# MagicaVoxel @ Ephtracy

# group
o 

# material
mtllib TornBannerMagic.mtl
usemtl palette

# normals
vn -1 0 0
vn 1 0 0
vn 0 0 1
vn 0 0 -1
vn 0 -1 0
vn 0 1 0

# texcoords
vt 0.224609 0.5
vt 0.826172 0.5
vt 0.912109 0.5
vt 0.978516 0.5
vt 0.982422 0.5

# verts
v 2.2 7.6 -2.4
v 2.2 7.6 -2.6
v 2.2 7.8 -2.4
v 2.2 7.8 -2.6
v 2.4 7.5 -2.3
v 2.4 7.5 -2.7
v 2.4 7.6 -2.4
v 2.4 7.6 -2.6
v 2.4 7.8 -2.4
v 2.4 7.8 -2.6
v 2.4 7.9 -2.3
v 2.4 7.9 -2.7
v 2.5 2.6 -2.5
v 2.5 2.6 -2.6
v 2.5 7.5 -2.5
v 2.5 7.5 -2.6
v 2.6 2.5 -2.5
v 2.6 2.5 -2.6
v 2.6 2.6 -2.5
v 2.6 2.6 -2.6
v 2.8 3.2 -2.5
v 2.8 3.2 -2.6
v 2.8 3.4 -2.5
v 2.8 3.4 -2.6
v 2.8 4.4 -2.5
v 2.8 4.4 -2.6
v 2.8 4.6 -2.5
v 2.8 4.6 -2.6
v 2.9 2.2 -2.5
v 2.9 2.2 -2.6
v 2.9 2.3 -2.5
v 2.9 2.3 -2.6
v 2.9 3.2 -2.5
v 2.9 3.2 -2.6
v 2.9 4.6 -2.5
v 2.9 4.6 -2.6
v 2.9 5 -2.5
v 2.9 5 -2.6
v 3 3.8 -2.5
v 3 3.8 -2.6
v 3 4 -2.5
v 3 4 -2.6
v 3.2 2 -2.5
v 3.2 2 -2.6
v 3.2 2.1 -2.5
v 3.2 2.1 -2.6
v 3.2 2.7 -2.5
v 3.2 2.7 -2.6
v 3.3 2.8 -2.5
v 3.3 2.8 -2.6
v 3.3 3.4 -2.5
v 3.3 3.4 -2.6
v 3.6 3.9 -2.5
v 3.6 3.9 -2.6
v 3.6 4.6 -2.5
v 3.6 4.6 -2.6
v 3.7 2.5 -2.5
v 3.7 2.5 -2.6
v 3.7 2.6 -2.5
v 3.7 2.6 -2.6
v 3.7 3.4 -2.5
v 3.7 3.4 -2.6
v 3.9 7.5 -2.3
v 3.9 7.5 -2.5
v 3.9 7.5 -2.6
v 3.9 7.5 -2.7
v 3.9 7.6 -2.4
v 3.9 7.6 -2.5
v 3.9 7.6 -2.6
v 3.9 7.8 -2.4
v 3.9 7.8 -2.6
v 3.9 7.9 -2.3
v 3.9 7.9 -2.7
v 2.5 7.5 -2.3
v 2.5 7.5 -2.5
v 2.5 7.5 -2.6
v 2.5 7.5 -2.7
v 2.5 7.6 -2.4
v 2.5 7.6 -2.5
v 2.5 7.6 -2.6
v 2.5 7.8 -2.4
v 2.5 7.8 -2.6
v 2.5 7.9 -2.3
v 2.5 7.9 -2.7
v 2.7 2.5 -2.5
v 2.7 2.5 -2.6
v 2.7 2.6 -2.5
v 2.7 2.6 -2.6
v 2.7 3.4 -2.5
v 2.7 3.4 -2.6
v 2.7 4.4 -2.5
v 2.7 4.4 -2.6
v 2.7 4.8 -2.5
v 2.7 4.8 -2.6
v 2.8 4.8 -2.5
v 2.8 4.8 -2.6
v 2.8 5 -2.5
v 2.8 5 -2.6
v 2.9 3.8 -2.5
v 2.9 3.8 -2.6
v 2.9 4 -2.5
v 2.9 4 -2.6
v 3 2.2 -2.5
v 3 2.2 -2.6
v 3 2.3 -2.5
v 3 2.3 -2.6
v 3 2.7 -2.5
v 3 2.7 -2.6
v 3.1 2.9 -2.5
v 3.1 2.9 -2.6
v 3.1 3.4 -2.5
v 3.1 3.4 -2.6
v 3.2 2.8 -2.5
v 3.2 2.8 -2.6
v 3.2 2.9 -2.5
v 3.2 2.9 -2.6
v 3.3 2 -2.5
v 3.3 2 -2.6
v 3.3 2.1 -2.5
v 3.3 2.1 -2.6
v 3.4 2.1 -2.5
v 3.4 2.1 -2.6
v 3.4 2.2 -2.5
v 3.4 2.2 -2.6
v 3.4 2.5 -2.5
v 3.4 2.5 -2.6
v 3.4 3.9 -2.5
v 3.4 3.9 -2.6
v 3.4 4.2 -2.5
v 3.4 4.2 -2.6
v 3.5 2.5 -2.5
v 3.5 2.5 -2.6
v 3.5 3.2 -2.5
v 3.5 3.2 -2.6
v 3.5 4.2 -2.5
v 3.5 4.2 -2.6
v 3.5 4.6 -2.5
v 3.5 4.6 -2.6
v 3.6 3.2 -2.5
v 3.6 3.2 -2.6
v 3.6 3.4 -2.5
v 3.6 3.4 -2.6
v 3.8 2.5 -2.5
v 3.8 2.5 -2.6
v 3.8 2.6 -2.5
v 3.8 2.6 -2.6
v 3.9 2.6 -2.5
v 3.9 2.6 -2.6
v 3.9 7.5 -2.5
v 3.9 7.5 -2.6
v 4 7.5 -2.3
v 4 7.5 -2.7
v 4 7.6 -2.4
v 4 7.6 -2.6
v 4 7.8 -2.4
v 4 7.8 -2.6
v 4 7.9 -2.3
v 4 7.9 -2.7
v 4.2 7.6 -2.4
v 4.2 7.6 -2.6
v 4.2 7.8 -2.4
v 4.2 7.8 -2.6
v 2.4 7.5 -2.3
v 2.4 7.9 -2.3
v 2.5 7.5 -2.3
v 2.5 7.9 -2.3
v 3.9 7.5 -2.3
v 3.9 7.9 -2.3
v 4 7.5 -2.3
v 4 7.9 -2.3
v 2.2 7.6 -2.4
v 2.2 7.8 -2.4
v 2.4 7.6 -2.4
v 2.4 7.8 -2.4
v 2.5 7.6 -2.4
v 2.5 7.8 -2.4
v 3.9 7.6 -2.4
v 3.9 7.8 -2.4
v 4 7.6 -2.4
v 4 7.8 -2.4
v 4.2 7.6 -2.4
v 4.2 7.8 -2.4
v 2.5 2.6 -2.5
v 2.5 7.5 -2.5
v 2.5 7.6 -2.5
v 2.6 2.5 -2.5
v 2.6 2.6 -2.5
v 2.6 7.5 -2.5
v 2.7 2.5 -2.5
v 2.7 2.6 -2.5
v 2.7 3.4 -2.5
v 2.7 4.4 -2.5
v 2.7 4.8 -2.5
v 2.8 3.2 -2.5
v 2.8 3.4 -2.5
v 2.8 4.4 -2.5
v 2.8 4.6 -2.5
v 2.8 4.8 -2.5
v 2.8 5 -2.5
v 2.9 2.2 -2.5
v 2.9 2.3 -2.5
v 2.9 3.2 -2.5
v 2.9 3.8 -2.5
v 2.9 4 -2.5
v 2.9 4.6 -2.5
v 2.9 5 -2.5
v 2.9 5.7 -2.5
v 2.9 6.5 -2.5
v 3 2.2 -2.5
v 3 2.3 -2.5
v 3 2.7 -2.5
v 3 3.8 -2.5
v 3 4 -2.5
v 3 5.6 -2.5
v 3 5.7 -2.5
v 3 6.2 -2.5
v 3 6.3 -2.5
v 3 6.5 -2.5
v 3.1 2.9 -2.5
v 3.1 3.4 -2.5
v 3.1 5.8 -2.5
v 3.1 6.1 -2.5
v 3.1 6.4 -2.5
v 3.1 6.5 -2.5
v 3.2 2 -2.5
v 3.2 2.1 -2.5
v 3.2 2.7 -2.5
v 3.2 2.8 -2.5
v 3.2 2.9 -2.5
v 3.2 5.9 -2.5
v 3.2 6.1 -2.5
v 3.3 2 -2.5
v 3.3 2.1 -2.5
v 3.3 2.2 -2.5
v 3.3 2.8 -2.5
v 3.3 3.4 -2.5
v 3.3 6 -2.5
v 3.3 6.1 -2.5
v 3.4 2.1 -2.5
v 3.4 2.2 -2.5
v 3.4 2.5 -2.5
v 3.4 3.9 -2.5
v 3.4 4.2 -2.5
v 3.4 5.8 -2.5
v 3.4 5.9 -2.5
v 3.4 6 -2.5
v 3.4 6.1 -2.5
v 3.4 6.4 -2.5
v 3.4 6.5 -2.5
v 3.5 2.5 -2.5
v 3.5 3.2 -2.5
v 3.5 4.2 -2.5
v 3.5 4.6 -2.5
v 3.5 5.6 -2.5
v 3.5 5.7 -2.5
v 3.5 6.2 -2.5
v 3.5 6.3 -2.5
v 3.6 3.2 -2.5
v 3.6 3.4 -2.5
v 3.6 3.9 -2.5
v 3.6 4.6 -2.5
v 3.7 2.5 -2.5
v 3.7 2.6 -2.5
v 3.7 3.4 -2.5
v 3.8 2.5 -2.5
v 3.8 2.6 -2.5
v 3.8 7.5 -2.5
v 3.9 2.6 -2.5
v 3.9 7.5 -2.5
v 3.9 7.6 -2.5
v 2.2 7.6 -2.6
v 2.2 7.8 -2.6
v 2.4 7.6 -2.6
v 2.4 7.8 -2.6
v 2.5 2.6 -2.6
v 2.5 7.5 -2.6
v 2.5 7.6 -2.6
v 2.5 7.8 -2.6
v 2.6 2.5 -2.6
v 2.6 2.6 -2.6
v 2.6 7.5 -2.6
v 2.7 2.5 -2.6
v 2.7 2.6 -2.6
v 2.7 3.4 -2.6
v 2.7 4.4 -2.6
v 2.7 4.8 -2.6
v 2.8 3.2 -2.6
v 2.8 3.4 -2.6
v 2.8 4.4 -2.6
v 2.8 4.6 -2.6
v 2.8 4.8 -2.6
v 2.8 5 -2.6
v 2.9 2.2 -2.6
v 2.9 2.3 -2.6
v 2.9 3.2 -2.6
v 2.9 3.8 -2.6
v 2.9 4 -2.6
v 2.9 4.6 -2.6
v 2.9 5 -2.6
v 2.9 5.7 -2.6
v 2.9 6.5 -2.6
v 3 2.2 -2.6
v 3 2.3 -2.6
v 3 2.7 -2.6
v 3 3.8 -2.6
v 3 4 -2.6
v 3 5.6 -2.6
v 3 5.7 -2.6
v 3 6.2 -2.6
v 3 6.3 -2.6
v 3 6.5 -2.6
v 3.1 2.9 -2.6
v 3.1 3.4 -2.6
v 3.1 5.8 -2.6
v 3.1 6.1 -2.6
v 3.1 6.4 -2.6
v 3.1 6.5 -2.6
v 3.2 2 -2.6
v 3.2 2.1 -2.6
v 3.2 2.7 -2.6
v 3.2 2.8 -2.6
v 3.2 2.9 -2.6
v 3.2 5.9 -2.6
v 3.2 6.1 -2.6
v 3.3 2 -2.6
v 3.3 2.1 -2.6
v 3.3 2.2 -2.6
v 3.3 2.8 -2.6
v 3.3 3.4 -2.6
v 3.3 6 -2.6
v 3.3 6.1 -2.6
v 3.4 2.1 -2.6
v 3.4 2.2 -2.6
v 3.4 2.5 -2.6
v 3.4 3.9 -2.6
v 3.4 4.2 -2.6
v 3.4 5.8 -2.6
v 3.4 5.9 -2.6
v 3.4 6 -2.6
v 3.4 6.1 -2.6
v 3.4 6.4 -2.6
v 3.4 6.5 -2.6
v 3.5 2.5 -2.6
v 3.5 3.2 -2.6
v 3.5 4.2 -2.6
v 3.5 4.6 -2.6
v 3.5 5.6 -2.6
v 3.5 5.7 -2.6
v 3.5 6.2 -2.6
v 3.5 6.3 -2.6
v 3.6 3.2 -2.6
v 3.6 3.4 -2.6
v 3.6 3.9 -2.6
v 3.6 4.6 -2.6
v 3.7 2.5 -2.6
v 3.7 2.6 -2.6
v 3.7 3.4 -2.6
v 3.8 2.5 -2.6
v 3.8 2.6 -2.6
v 3.8 7.5 -2.6
v 3.9 2.6 -2.6
v 3.9 7.5 -2.6
v 3.9 7.6 -2.6
v 3.9 7.8 -2.6
v 4 7.6 -2.6
v 4 7.8 -2.6
v 4.2 7.6 -2.6
v 4.2 7.8 -2.6
v 2.4 7.5 -2.7
v 2.4 7.9 -2.7
v 2.5 7.5 -2.7
v 2.5 7.9 -2.7
v 3.9 7.5 -2.7
v 3.9 7.9 -2.7
v 4 7.5 -2.7
v 4 7.9 -2.7
v 3.2 2 -2.5
v 3.3 2 -2.5
v 3.2 2 -2.6
v 3.3 2 -2.6
v 3.3 2.1 -2.5
v 3.4 2.1 -2.5
v 3.3 2.1 -2.6
v 3.4 2.1 -2.6
v 2.9 2.2 -2.5
v 3 2.2 -2.5
v 2.9 2.2 -2.6
v 3 2.2 -2.6
v 2.6 2.5 -2.5
v 2.7 2.5 -2.5
v 3.4 2.5 -2.5
v 3.5 2.5 -2.5
v 3.7 2.5 -2.5
v 3.8 2.5 -2.5
v 2.6 2.5 -2.6
v 2.7 2.5 -2.6
v 3.4 2.5 -2.6
v 3.5 2.5 -2.6
v 3.7 2.5 -2.6
v 3.8 2.5 -2.6
v 2.5 2.6 -2.5
v 2.6 2.6 -2.5
v 3.8 2.6 -2.5
v 3.9 2.6 -2.5
v 2.5 2.6 -2.6
v 2.6 2.6 -2.6
v 3.8 2.6 -2.6
v 3.9 2.6 -2.6
v 3 2.7 -2.5
v 3.2 2.7 -2.5
v 3 2.7 -2.6
v 3.2 2.7 -2.6
v 2.8 3.2 -2.5
v 2.9 3.2 -2.5
v 3.5 3.2 -2.5
v 3.6 3.2 -2.5
v 2.8 3.2 -2.6
v 2.9 3.2 -2.6
v 3.5 3.2 -2.6
v 3.6 3.2 -2.6
v 2.7 3.4 -2.5
v 2.8 3.4 -2.5
v 3.1 3.4 -2.5
v 3.3 3.4 -2.5
v 3.6 3.4 -2.5
v 3.7 3.4 -2.5
v 2.7 3.4 -2.6
v 2.8 3.4 -2.6
v 3.1 3.4 -2.6
v 3.3 3.4 -2.6
v 3.6 3.4 -2.6
v 3.7 3.4 -2.6
v 2.9 4 -2.5
v 3 4 -2.5
v 2.9 4 -2.6
v 3 4 -2.6
v 3.4 4.2 -2.5
v 3.5 4.2 -2.5
v 3.4 4.2 -2.6
v 3.5 4.2 -2.6
v 3.5 4.6 -2.5
v 3.6 4.6 -2.5
v 3.5 4.6 -2.6
v 3.6 4.6 -2.6
v 2.7 4.8 -2.5
v 2.8 4.8 -2.5
v 2.7 4.8 -2.6
v 2.8 4.8 -2.6
v 2.8 5 -2.5
v 2.9 5 -2.5
v 2.8 5 -2.6
v 2.9 5 -2.6
v 2.4 7.5 -2.3
v 2.5 7.5 -2.3
v 3.9 7.5 -2.3
v 4 7.5 -2.3
v 2.5 7.5 -2.5
v 3.9 7.5 -2.5
v 2.5 7.5 -2.6
v 3.9 7.5 -2.6
v 2.4 7.5 -2.7
v 2.5 7.5 -2.7
v 3.9 7.5 -2.7
v 4 7.5 -2.7
v 2.2 7.6 -2.4
v 2.4 7.6 -2.4
v 2.5 7.6 -2.4
v 3.9 7.6 -2.4
v 4 7.6 -2.4
v 4.2 7.6 -2.4
v 2.5 7.6 -2.5
v 3.9 7.6 -2.5
v 2.2 7.6 -2.6
v 2.4 7.6 -2.6
v 4 7.6 -2.6
v 4.2 7.6 -2.6
v 3.2 2.8 -2.5
v 3.3 2.8 -2.5
v 3.2 2.8 -2.6
v 3.3 2.8 -2.6
v 3.1 2.9 -2.5
v 3.2 2.9 -2.5
v 3.1 2.9 -2.6
v 3.2 2.9 -2.6
v 2.9 3.8 -2.5
v 3 3.8 -2.5
v 2.9 3.8 -2.6
v 3 3.8 -2.6
v 3.4 3.9 -2.5
v 3.6 3.9 -2.5
v 3.4 3.9 -2.6
v 3.6 3.9 -2.6
v 2.7 4.4 -2.5
v 2.8 4.4 -2.5
v 2.7 4.4 -2.6
v 2.8 4.4 -2.6
v 2.8 4.6 -2.5
v 2.9 4.6 -2.5
v 2.8 4.6 -2.6
v 2.9 4.6 -2.6
v 2.2 7.8 -2.4
v 2.4 7.8 -2.4
v 2.5 7.8 -2.4
v 3.9 7.8 -2.4
v 4 7.8 -2.4
v 4.2 7.8 -2.4
v 2.2 7.8 -2.6
v 2.4 7.8 -2.6
v 2.5 7.8 -2.6
v 3.9 7.8 -2.6
v 4 7.8 -2.6
v 4.2 7.8 -2.6
v 2.4 7.9 -2.3
v 2.5 7.9 -2.3
v 3.9 7.9 -2.3
v 4 7.9 -2.3
v 2.4 7.9 -2.7
v 2.5 7.9 -2.7
v 3.9 7.9 -2.7
v 4 7.9 -2.7

# faces
f 3/1/1 2/1/1 1/1/1
f 4/1/1 2/1/1 3/1/1
f 7/4/1 6/4/1 5/4/1
f 8/4/1 6/4/1 7/4/1
f 9/4/1 7/4/1 5/4/1
f 10/4/1 6/4/1 8/4/1
f 11/4/1 9/4/1 5/4/1
f 11/4/1 10/4/1 9/4/1
f 12/4/1 6/4/1 10/4/1
f 12/4/1 10/4/1 11/4/1
f 15/5/1 14/5/1 13/5/1
f 16/5/1 14/5/1 15/5/1
f 19/5/1 18/5/1 17/5/1
f 20/5/1 18/5/1 19/5/1
f 23/2/1 22/2/1 21/2/1
f 24/2/1 22/2/1 23/2/1
f 27/2/1 26/2/1 25/2/1
f 28/2/1 26/2/1 27/2/1
f 31/5/1 30/5/1 29/5/1
f 32/5/1 30/5/1 31/5/1
f 33/2/1 32/2/1 31/2/1
f 34/2/1 32/2/1 33/2/1
f 37/2/1 36/2/1 35/2/1
f 38/2/1 36/2/1 37/2/1
f 41/2/1 40/2/1 39/2/1
f 42/2/1 40/2/1 41/2/1
f 45/5/1 44/5/1 43/5/1
f 46/5/1 44/5/1 45/5/1
f 47/2/1 46/2/1 45/2/1
f 48/2/1 46/2/1 47/2/1
f 51/2/1 50/2/1 49/2/1
f 52/2/1 50/2/1 51/2/1
f 55/2/1 54/2/1 53/2/1
f 56/2/1 54/2/1 55/2/1
f 59/5/1 58/5/1 57/5/1
f 60/5/1 58/5/1 59/5/1
f 61/2/1 60/2/1 59/2/1
f 62/2/1 60/2/1 61/2/1
f 67/4/1 64/4/1 63/4/1
f 68/4/1 64/4/1 67/4/1
f 69/4/1 66/4/1 65/4/1
f 70/4/1 67/4/1 63/4/1
f 71/4/1 66/4/1 69/4/1
f 72/4/1 70/4/1 63/4/1
f 72/4/1 71/4/1 70/4/1
f 73/4/1 66/4/1 71/4/1
f 73/4/1 71/4/1 72/4/1
f 74/4/2 75/4/2 78/4/2
f 78/4/2 75/4/2 79/4/2
f 76/4/2 77/4/2 80/4/2
f 74/4/2 78/4/2 81/4/2
f 80/4/2 77/4/2 82/4/2
f 74/4/2 81/4/2 83/4/2
f 81/4/2 82/4/2 83/4/2
f 82/4/2 77/4/2 84/4/2
f 83/4/2 82/4/2 84/4/2
f 85/5/2 86/5/2 87/5/2
f 87/5/2 86/5/2 88/5/2
f 87/2/2 88/2/2 89/2/2
f 89/2/2 88/2/2 90/2/2
f 91/2/2 92/2/2 93/2/2
f 93/2/2 92/2/2 94/2/2
f 95/2/2 96/2/2 97/2/2
f 97/2/2 96/2/2 98/2/2
f 99/2/2 100/2/2 101/2/2
f 101/2/2 100/2/2 102/2/2
f 103/5/2 104/5/2 105/5/2
f 105/5/2 104/5/2 106/5/2
f 105/2/2 106/2/2 107/2/2
f 107/2/2 106/2/2 108/2/2
f 109/2/2 110/2/2 111/2/2
f 111/2/2 110/2/2 112/2/2
f 113/2/2 114/2/2 115/2/2
f 115/2/2 114/2/2 116/2/2
f 117/5/2 118/5/2 119/5/2
f 119/5/2 118/5/2 120/5/2
f 121/5/2 122/5/2 123/5/2
f 123/5/2 122/5/2 124/5/2
f 123/2/2 124/2/2 125/2/2
f 125/2/2 124/2/2 126/2/2
f 127/2/2 128/2/2 129/2/2
f 129/2/2 128/2/2 130/2/2
f 131/2/2 132/2/2 133/2/2
f 133/2/2 132/2/2 134/2/2
f 135/2/2 136/2/2 137/2/2
f 137/2/2 136/2/2 138/2/2
f 139/2/2 140/2/2 141/2/2
f 141/2/2 140/2/2 142/2/2
f 143/5/2 144/5/2 145/5/2
f 145/5/2 144/5/2 146/5/2
f 147/5/2 148/5/2 149/5/2
f 149/5/2 148/5/2 150/5/2
f 151/4/2 152/4/2 153/4/2
f 153/4/2 152/4/2 154/4/2
f 151/4/2 153/4/2 155/4/2
f 154/4/2 152/4/2 156/4/2
f 151/4/2 155/4/2 157/4/2
f 155/4/2 156/4/2 157/4/2
f 156/4/2 152/4/2 158/4/2
f 157/4/2 156/4/2 158/4/2
f 159/1/2 160/1/2 161/1/2
f 161/1/2 160/1/2 162/1/2
f 165/4/3 164/4/3 163/4/3
f 166/4/3 164/4/3 165/4/3
f 169/4/3 168/4/3 167/4/3
f 170/4/3 168/4/3 169/4/3
f 173/1/3 172/1/3 171/1/3
f 174/1/3 172/1/3 173/1/3
f 177/1/3 176/1/3 175/1/3
f 178/1/3 176/1/3 177/1/3
f 181/1/3 180/1/3 179/1/3
f 182/1/3 180/1/3 181/1/3
f 187/5/3 184/5/3 183/5/3
f 187/5/3 185/5/3 184/5/3
f 188/5/3 185/5/3 187/5/3
f 189/5/3 187/5/3 186/5/3
f 190/2/3 188/2/3 187/2/3
f 190/5/3 187/5/3 189/5/3
f 191/2/3 188/2/3 190/2/3
f 192/2/3 188/2/3 191/2/3
f 193/2/3 188/2/3 192/2/3
f 195/2/3 192/2/3 191/2/3
f 196/2/3 192/2/3 195/2/3
f 198/2/3 188/2/3 193/2/3
f 199/2/3 188/2/3 198/2/3
f 202/2/3 197/2/3 196/2/3
f 202/2/3 195/2/3 194/2/3
f 202/2/3 196/2/3 195/2/3
f 203/2/3 197/2/3 202/2/3
f 204/2/3 197/2/3 203/2/3
f 205/2/3 197/2/3 204/2/3
f 206/2/3 188/2/3 199/2/3
f 207/2/3 188/2/3 206/2/3
f 208/2/3 188/2/3 207/2/3
f 209/5/3 201/5/3 200/5/3
f 210/2/3 202/2/3 201/2/3
f 210/5/3 201/5/3 209/5/3
f 210/2/3 203/2/3 202/2/3
f 211/2/3 203/2/3 210/2/3
f 212/2/3 203/2/3 211/2/3
f 213/2/3 205/2/3 204/2/3
f 213/2/3 207/2/3 206/2/3
f 213/2/3 206/2/3 205/2/3
f 214/2/3 207/2/3 213/2/3
f 215/3/3 208/3/3 207/3/3
f 215/2/3 207/2/3 214/2/3
f 216/3/3 208/3/3 215/3/3
f 217/3/3 208/3/3 216/3/3
f 218/2/3 188/2/3 208/2/3
f 218/3/3 208/3/3 217/3/3
f 219/2/3 212/2/3 211/2/3
f 219/2/3 214/2/3 213/2/3
f 219/2/3 213/2/3 212/2/3
f 220/2/3 214/2/3 219/2/3
f 221/2/3 216/2/3 215/2/3
f 222/2/3 216/2/3 221/2/3
f 223/2/3 218/2/3 217/2/3
f 224/2/3 188/2/3 218/2/3
f 224/2/3 218/2/3 223/2/3
f 227/2/3 219/2/3 211/2/3
f 228/2/3 219/2/3 227/2/3
f 229/2/3 219/2/3 228/2/3
f 230/3/3 222/3/3 221/3/3
f 231/2/3 216/2/3 222/2/3
f 231/3/3 222/3/3 230/3/3
f 232/5/3 226/5/3 225/5/3
f 233/2/3 227/2/3 226/2/3
f 233/5/3 226/5/3 232/5/3
f 233/2/3 228/2/3 227/2/3
f 234/2/3 228/2/3 233/2/3
f 235/2/3 228/2/3 234/2/3
f 236/2/3 214/2/3 220/2/3
f 237/2/3 231/2/3 230/2/3
f 238/2/3 216/2/3 231/2/3
f 238/2/3 231/2/3 237/2/3
f 239/5/3 234/5/3 233/5/3
f 240/2/3 235/2/3 234/2/3
f 240/5/3 234/5/3 239/5/3
f 240/2/3 236/2/3 235/2/3
f 241/2/3 236/2/3 240/2/3
f 242/2/3 214/2/3 236/2/3
f 242/2/3 236/2/3 241/2/3
f 243/2/3 214/2/3 242/2/3
f 244/3/3 230/3/3 221/3/3
f 244/2/3 221/2/3 215/2/3
f 245/2/3 237/2/3 230/2/3
f 245/3/3 230/3/3 244/3/3
f 246/3/3 238/3/3 237/3/3
f 246/2/3 237/2/3 245/2/3
f 247/2/3 216/2/3 238/2/3
f 247/3/3 238/3/3 246/3/3
f 248/2/3 223/2/3 217/2/3
f 248/3/3 224/3/3 223/3/3
f 249/2/3 188/2/3 224/2/3
f 249/3/3 224/3/3 248/3/3
f 250/2/3 242/2/3 241/2/3
f 251/2/3 242/2/3 250/2/3
f 252/2/3 214/2/3 243/2/3
f 253/2/3 214/2/3 252/2/3
f 254/3/3 215/3/3 214/3/3
f 254/2/3 214/2/3 253/2/3
f 255/2/3 244/2/3 215/2/3
f 255/3/3 215/3/3 254/3/3
f 255/2/3 247/2/3 246/2/3
f 255/2/3 246/2/3 245/2/3
f 255/2/3 245/2/3 244/2/3
f 256/3/3 217/3/3 216/3/3
f 256/2/3 247/2/3 255/2/3
f 256/2/3 216/2/3 247/2/3
f 257/2/3 248/2/3 217/2/3
f 257/3/3 217/3/3 256/3/3
f 257/2/3 249/2/3 248/2/3
f 258/2/3 242/2/3 251/2/3
f 259/2/3 242/2/3 258/2/3
f 260/2/3 242/2/3 259/2/3
f 261/2/3 255/2/3 254/2/3
f 261/2/3 257/2/3 256/2/3
f 261/2/3 254/2/3 253/2/3
f 261/2/3 256/2/3 255/2/3
f 264/2/3 260/2/3 259/2/3
f 264/2/3 261/2/3 260/2/3
f 265/5/3 263/5/3 262/5/3
f 266/2/3 264/2/3 263/2/3
f 266/5/3 263/5/3 265/5/3
f 267/5/3 185/5/3 188/5/3
f 267/2/3 264/2/3 266/2/3
f 267/2/3 249/2/3 257/2/3
f 267/2/3 261/2/3 264/2/3
f 267/2/3 257/2/3 261/2/3
f 267/2/3 188/2/3 249/2/3
f 268/5/3 267/5/3 266/5/3
f 269/5/3 185/5/3 267/5/3
f 269/5/3 267/5/3 268/5/3
f 270/5/3 185/5/3 269/5/3
f 271/1/4 272/1/4 273/1/4
f 273/1/4 272/1/4 274/1/4
f 275/5/4 276/5/4 280/5/4
f 276/5/4 277/5/4 280/5/4
f 280/5/4 277/5/4 281/5/4
f 279/5/4 280/5/4 282/5/4
f 280/2/4 281/2/4 283/2/4
f 282/5/4 280/5/4 283/5/4
f 283/2/4 281/2/4 284/2/4
f 284/2/4 281/2/4 285/2/4
f 285/2/4 281/2/4 286/2/4
f 284/2/4 285/2/4 288/2/4
f 288/2/4 285/2/4 289/2/4
f 286/2/4 281/2/4 291/2/4
f 291/2/4 281/2/4 292/2/4
f 289/2/4 290/2/4 295/2/4
f 287/2/4 288/2/4 295/2/4
f 288/2/4 289/2/4 295/2/4
f 295/2/4 290/2/4 296/2/4
f 296/2/4 290/2/4 297/2/4
f 297/2/4 290/2/4 298/2/4
f 292/2/4 281/2/4 299/2/4
f 299/2/4 281/2/4 300/2/4
f 300/2/4 281/2/4 301/2/4
f 293/5/4 294/5/4 302/5/4
f 294/2/4 295/2/4 303/2/4
f 302/5/4 294/5/4 303/5/4
f 295/2/4 296/2/4 303/2/4
f 303/2/4 296/2/4 304/2/4
f 304/2/4 296/2/4 305/2/4
f 297/2/4 298/2/4 306/2/4
f 299/2/4 300/2/4 306/2/4
f 298/2/4 299/2/4 306/2/4
f 306/2/4 300/2/4 307/2/4
f 300/3/4 301/3/4 308/3/4
f 307/2/4 300/2/4 308/2/4
f 308/3/4 301/3/4 309/3/4
f 309/3/4 301/3/4 310/3/4
f 301/2/4 281/2/4 311/2/4
f 310/3/4 301/3/4 311/3/4
f 304/2/4 305/2/4 312/2/4
f 306/2/4 307/2/4 312/2/4
f 305/2/4 306/2/4 312/2/4
f 312/2/4 307/2/4 313/2/4
f 308/2/4 309/2/4 314/2/4
f 314/2/4 309/2/4 315/2/4
f 310/2/4 311/2/4 316/2/4
f 311/2/4 281/2/4 317/2/4
f 316/2/4 311/2/4 317/2/4
f 304/2/4 312/2/4 320/2/4
f 320/2/4 312/2/4 321/2/4
f 321/2/4 312/2/4 322/2/4
f 314/3/4 315/3/4 323/3/4
f 315/2/4 309/2/4 324/2/4
f 323/3/4 315/3/4 324/3/4
f 318/5/4 319/5/4 325/5/4
f 319/2/4 320/2/4 326/2/4
f 325/5/4 319/5/4 326/5/4
f 320/2/4 321/2/4 326/2/4
f 326/2/4 321/2/4 327/2/4
f 327/2/4 321/2/4 328/2/4
f 313/2/4 307/2/4 329/2/4
f 323/2/4 324/2/4 330/2/4
f 324/2/4 309/2/4 331/2/4
f 330/2/4 324/2/4 331/2/4
f 326/5/4 327/5/4 332/5/4
f 327/2/4 328/2/4 333/2/4
f 332/5/4 327/5/4 333/5/4
f 328/2/4 329/2/4 333/2/4
f 333/2/4 329/2/4 334/2/4
f 329/2/4 307/2/4 335/2/4
f 334/2/4 329/2/4 335/2/4
f 335/2/4 307/2/4 336/2/4
f 314/3/4 323/3/4 337/3/4
f 308/2/4 314/2/4 337/2/4
f 323/2/4 330/2/4 338/2/4
f 337/3/4 323/3/4 338/3/4
f 330/3/4 331/3/4 339/3/4
f 338/2/4 330/2/4 339/2/4
f 331/2/4 309/2/4 340/2/4
f 339/3/4 331/3/4 340/3/4
f 310/2/4 316/2/4 341/2/4
f 316/3/4 317/3/4 341/3/4
f 317/2/4 281/2/4 342/2/4
f 341/3/4 317/3/4 342/3/4
f 334/2/4 335/2/4 343/2/4
f 343/2/4 335/2/4 344/2/4
f 336/2/4 307/2/4 345/2/4
f 345/2/4 307/2/4 346/2/4
f 307/3/4 308/3/4 347/3/4
f 346/2/4 307/2/4 347/2/4
f 308/2/4 337/2/4 348/2/4
f 347/3/4 308/3/4 348/3/4
f 339/2/4 340/2/4 348/2/4
f 338/2/4 339/2/4 348/2/4
f 337/2/4 338/2/4 348/2/4
f 309/3/4 310/3/4 349/3/4
f 348/2/4 340/2/4 349/2/4
f 340/2/4 309/2/4 349/2/4
f 310/2/4 341/2/4 350/2/4
f 349/3/4 310/3/4 350/3/4
f 341/2/4 342/2/4 350/2/4
f 344/2/4 335/2/4 351/2/4
f 351/2/4 335/2/4 352/2/4
f 352/2/4 335/2/4 353/2/4
f 347/2/4 348/2/4 354/2/4
f 349/2/4 350/2/4 354/2/4
f 346/2/4 347/2/4 354/2/4
f 348/2/4 349/2/4 354/2/4
f 352/2/4 353/2/4 357/2/4
f 353/2/4 354/2/4 357/2/4
f 355/5/4 356/5/4 358/5/4
f 356/2/4 357/2/4 359/2/4
f 358/5/4 356/5/4 359/5/4
f 281/5/4 277/5/4 360/5/4
f 359/2/4 357/2/4 360/2/4
f 350/2/4 342/2/4 360/2/4
f 357/2/4 354/2/4 360/2/4
f 354/2/4 350/2/4 360/2/4
f 342/2/4 281/2/4 360/2/4
f 359/5/4 360/5/4 361/5/4
f 360/5/4 277/5/4 362/5/4
f 361/5/4 360/5/4 362/5/4
f 277/1/4 278/1/4 363/1/4
f 362/5/4 277/5/4 363/5/4
f 363/1/4 278/1/4 364/1/4
f 365/1/4 366/1/4 367/1/4
f 367/1/4 366/1/4 368/1/4
f 369/4/4 370/4/4 371/4/4
f 371/4/4 370/4/4 372/4/4
f 373/4/4 374/4/4 375/4/4
f 375/4/4 374/4/4 376/4/4
f 379/5/5 378/5/5 377/5/5
f 380/5/5 378/5/5 379/5/5
f 383/5/5 382/5/5 381/5/5
f 384/5/5 382/5/5 383/5/5
f 387/5/5 386/5/5 385/5/5
f 388/5/5 386/5/5 387/5/5
f 395/5/5 390/5/5 389/5/5
f 396/5/5 390/5/5 395/5/5
f 397/2/5 392/2/5 391/2/5
f 398/2/5 392/2/5 397/2/5
f 399/5/5 394/5/5 393/5/5
f 400/5/5 394/5/5 399/5/5
f 405/5/5 402/5/5 401/5/5
f 406/5/5 402/5/5 405/5/5
f 407/5/5 404/5/5 403/5/5
f 408/5/5 404/5/5 407/5/5
f 411/2/5 410/2/5 409/2/5
f 412/2/5 410/2/5 411/2/5
f 417/2/5 414/2/5 413/2/5
f 418/2/5 414/2/5 417/2/5
f 419/2/5 416/2/5 415/2/5
f 420/2/5 416/2/5 419/2/5
f 427/2/5 422/2/5 421/2/5
f 428/2/5 422/2/5 427/2/5
f 429/2/5 424/2/5 423/2/5
f 430/2/5 424/2/5 429/2/5
f 431/2/5 426/2/5 425/2/5
f 432/2/5 426/2/5 431/2/5
f 435/2/5 434/2/5 433/2/5
f 436/2/5 434/2/5 435/2/5
f 439/2/5 438/2/5 437/2/5
f 440/2/5 438/2/5 439/2/5
f 443/2/5 442/2/5 441/2/5
f 444/2/5 442/2/5 443/2/5
f 447/2/5 446/2/5 445/2/5
f 448/2/5 446/2/5 447/2/5
f 451/2/5 450/2/5 449/2/5
f 452/2/5 450/2/5 451/2/5
f 457/4/5 454/4/5 453/4/5
f 458/4/5 456/4/5 455/4/5
f 459/4/5 457/4/5 453/4/5
f 460/4/5 456/4/5 458/4/5
f 461/4/5 459/4/5 453/4/5
f 462/4/5 459/4/5 461/4/5
f 463/4/5 456/4/5 460/4/5
f 464/4/5 456/4/5 463/4/5
f 471/1/5 468/1/5 467/1/5
f 472/1/5 468/1/5 471/1/5
f 473/1/5 466/1/5 465/1/5
f 474/1/5 466/1/5 473/1/5
f 475/1/5 470/1/5 469/1/5
f 476/1/5 470/1/5 475/1/5
f 477/2/6 478/2/6 479/2/6
f 479/2/6 478/2/6 480/2/6
f 481/2/6 482/2/6 483/2/6
f 483/2/6 482/2/6 484/2/6
f 485/2/6 486/2/6 487/2/6
f 487/2/6 486/2/6 488/2/6
f 489/2/6 490/2/6 491/2/6
f 491/2/6 490/2/6 492/2/6
f 493/2/6 494/2/6 495/2/6
f 495/2/6 494/2/6 496/2/6
f 497/2/6 498/2/6 499/2/6
f 499/2/6 498/2/6 500/2/6
f 501/1/6 502/1/6 507/1/6
f 507/1/6 502/1/6 508/1/6
f 503/1/6 504/1/6 509/1/6
f 509/1/6 504/1/6 510/1/6
f 505/1/6 506/1/6 511/1/6
f 511/1/6 506/1/6 512/1/6
f 513/4/6 514/4/6 517/4/6
f 517/4/6 514/4/6 518/4/6
f 515/4/6 516/4/6 519/4/6
f 519/4/6 516/4/6 520/4/6
