# MagicaVoxel @ Ephtracy

# group
o 

# material
mtllib BookCover.mtl
usemtl palette

# normals
vn -1 0 0
vn 1 0 0
vn 0 0 1
vn 0 0 -1
vn 0 -1 0
vn 0 1 0

# texcoords
vt 0.916016 0.5
vt 0.970703 0.5

# verts
v 0.5 2 -1.1
v 0.5 2 -1.3
v 0.5 2 -2.5
v 0.5 2 -2.7
v 0.5 2.1 -1.2
v 0.5 2.1 -1.3
v 0.5 2.1 -2.5
v 0.5 2.1 -2.6
v 0.5 2.2 -1.1
v 0.5 2.2 -1.2
v 0.5 2.2 -1.8
v 0.5 2.2 -1.9
v 0.5 2.2 -2.6
v 0.5 2.2 -2.7
v 0.5 2.3 -2.1
v 0.5 2.3 -2.2
v 0.5 2.4 -1.6
v 0.5 2.4 -1.8
v 0.5 2.4 -1.9
v 0.5 2.4 -2
v 0.5 2.4 -2.1
v 0.5 2.4 -2.2
v 0.5 2.4 -2.3
v 0.5 2.5 -1.6
v 0.5 2.5 -1.8
v 0.5 2.5 -1.9
v 0.5 2.5 -2
v 0.5 2.6 -1.5
v 0.5 2.6 -1.8
v 0.5 2.6 -1.9
v 0.5 2.6 -2.2
v 0.5 2.6 -2.3
v 0.5 2.7 -1.5
v 0.5 2.7 -1.8
v 0.5 2.7 -1.9
v 0.5 2.7 -2.2
v 0.5 2.8 -1.1
v 0.5 2.8 -1.2
v 0.5 2.8 -1.8
v 0.5 2.8 -1.9
v 0.5 2.8 -2.6
v 0.5 2.8 -2.7
v 0.5 2.9 -1.2
v 0.5 2.9 -1.3
v 0.5 2.9 -1.7
v 0.5 2.9 -2.1
v 0.5 2.9 -2.5
v 0.5 2.9 -2.6
v 0.5 3 -1.1
v 0.5 3 -1.3
v 0.5 3 -1.7
v 0.5 3 -2.1
v 0.5 3 -2.5
v 0.5 3 -2.7
v 0.6 2 -1.1
v 0.6 2 -1.3
v 0.6 2 -2.5
v 0.6 2 -2.7
v 0.6 2.1 -1.2
v 0.6 2.1 -1.3
v 0.6 2.1 -2.5
v 0.6 2.1 -2.6
v 0.6 2.2 -1.1
v 0.6 2.2 -1.2
v 0.6 2.2 -1.8
v 0.6 2.2 -1.9
v 0.6 2.2 -2.6
v 0.6 2.2 -2.7
v 0.6 2.3 -2.1
v 0.6 2.3 -2.2
v 0.6 2.4 -1.6
v 0.6 2.4 -1.8
v 0.6 2.4 -1.9
v 0.6 2.4 -2
v 0.6 2.4 -2.1
v 0.6 2.4 -2.2
v 0.6 2.4 -2.3
v 0.6 2.5 -1.6
v 0.6 2.5 -1.8
v 0.6 2.5 -1.9
v 0.6 2.5 -2
v 0.6 2.6 -1.5
v 0.6 2.6 -1.8
v 0.6 2.6 -1.9
v 0.6 2.6 -2.2
v 0.6 2.6 -2.3
v 0.6 2.7 -1.5
v 0.6 2.7 -1.8
v 0.6 2.7 -1.9
v 0.6 2.7 -2.2
v 0.6 2.8 -1.1
v 0.6 2.8 -1.2
v 0.6 2.8 -1.8
v 0.6 2.8 -1.9
v 0.6 2.8 -2.6
v 0.6 2.8 -2.7
v 0.6 2.9 -1.2
v 0.6 2.9 -1.3
v 0.6 2.9 -1.7
v 0.6 2.9 -2.1
v 0.6 2.9 -2.5
v 0.6 2.9 -2.6
v 0.6 3 -1.1
v 0.6 3 -1.3
v 0.6 3 -1.7
v 0.6 3 -2.1
v 0.6 3 -2.5
v 0.6 3 -2.7
v 0.5 2 -1.1
v 0.5 2.2 -1.1
v 0.5 2.8 -1.1
v 0.5 3 -1.1
v 0.6 2 -1.1
v 0.6 2.2 -1.1
v 0.6 2.8 -1.1
v 0.6 3 -1.1
v 0.5 2 -2.7
v 0.5 2.2 -2.7
v 0.5 2.8 -2.7
v 0.5 3 -2.7
v 0.6 2 -2.7
v 0.6 2.2 -2.7
v 0.6 2.8 -2.7
v 0.6 3 -2.7
v 0.5 2 -1.1
v 0.6 2 -1.1
v 0.5 2 -1.3
v 0.6 2 -1.3
v 0.5 2 -2.5
v 0.6 2 -2.5
v 0.5 2 -2.7
v 0.6 2 -2.7
v 0.5 3 -1.1
v 0.6 3 -1.1
v 0.5 3 -1.3
v 0.6 3 -1.3
v 0.5 3 -1.7
v 0.6 3 -1.7
v 0.5 3 -2.1
v 0.6 3 -2.1
v 0.5 3 -2.5
v 0.6 3 -2.5
v 0.5 3 -2.7
v 0.6 3 -2.7

# faces
f 5/2/1 2/2/1 1/2/1
f 6/1/1 3/1/1 2/1/1
f 6/2/1 2/2/1 5/2/1
f 7/2/1 4/2/1 3/2/1
f 7/1/1 3/1/1 6/1/1
f 8/2/1 4/2/1 7/2/1
f 9/2/1 5/2/1 1/2/1
f 10/1/1 6/1/1 5/1/1
f 10/2/1 5/2/1 9/2/1
f 10/1/1 7/1/1 6/1/1
f 10/1/1 8/1/1 7/1/1
f 11/1/1 8/1/1 10/1/1
f 12/1/1 8/1/1 11/1/1
f 13/2/1 4/2/1 8/2/1
f 13/1/1 8/1/1 12/1/1
f 14/2/1 4/2/1 13/2/1
f 15/1/1 13/1/1 12/1/1
f 15/1/1 14/1/1 13/1/1
f 16/1/1 14/1/1 15/1/1
f 17/1/1 10/1/1 9/1/1
f 17/1/1 11/1/1 10/1/1
f 18/2/1 12/2/1 11/2/1
f 18/1/1 11/1/1 17/1/1
f 19/1/1 15/1/1 12/1/1
f 19/2/1 12/2/1 18/2/1
f 20/1/1 15/1/1 19/1/1
f 21/2/1 16/2/1 15/2/1
f 21/1/1 15/1/1 20/1/1
f 22/1/1 14/1/1 16/1/1
f 22/2/1 16/2/1 21/2/1
f 23/1/1 14/1/1 22/1/1
f 24/1/1 17/1/1 9/1/1
f 24/2/1 20/2/1 19/2/1
f 24/2/1 18/2/1 17/2/1
f 24/2/1 19/2/1 18/2/1
f 25/2/1 20/2/1 24/2/1
f 26/2/1 20/2/1 25/2/1
f 27/1/1 21/1/1 20/1/1
f 27/2/1 20/2/1 26/2/1
f 27/1/1 22/1/1 21/1/1
f 28/1/1 25/1/1 24/1/1
f 28/1/1 24/1/1 9/1/1
f 29/2/1 26/2/1 25/2/1
f 29/1/1 25/1/1 28/1/1
f 30/1/1 27/1/1 26/1/1
f 30/2/1 26/2/1 29/2/1
f 31/2/1 23/2/1 22/2/1
f 31/1/1 27/1/1 30/1/1
f 31/1/1 22/1/1 27/1/1
f 32/1/1 14/1/1 23/1/1
f 32/2/1 23/2/1 31/2/1
f 33/2/1 31/2/1 30/2/1
f 33/1/1 28/1/1 9/1/1
f 33/2/1 30/2/1 29/2/1
f 33/2/1 29/2/1 28/2/1
f 34/2/1 31/2/1 33/2/1
f 35/2/1 31/2/1 34/2/1
f 36/1/1 32/1/1 31/1/1
f 36/2/1 31/2/1 35/2/1
f 37/1/1 33/1/1 9/1/1
f 37/1/1 34/1/1 33/1/1
f 38/1/1 34/1/1 37/1/1
f 39/2/1 35/2/1 34/2/1
f 39/1/1 34/1/1 38/1/1
f 40/1/1 36/1/1 35/1/1
f 40/2/1 35/2/1 39/2/1
f 41/1/1 14/1/1 32/1/1
f 41/1/1 36/1/1 40/1/1
f 41/1/1 32/1/1 36/1/1
f 42/1/1 14/1/1 41/1/1
f 43/1/1 40/1/1 39/1/1
f 43/2/1 38/2/1 37/2/1
f 43/1/1 39/1/1 38/1/1
f 43/1/1 41/1/1 40/1/1
f 44/1/1 41/1/1 43/1/1
f 45/1/1 41/1/1 44/1/1
f 46/1/1 41/1/1 45/1/1
f 47/1/1 41/1/1 46/1/1
f 48/2/1 42/2/1 41/2/1
f 48/1/1 41/1/1 47/1/1
f 49/2/1 43/2/1 37/2/1
f 49/2/1 44/2/1 43/2/1
f 50/1/1 45/1/1 44/1/1
f 50/2/1 44/2/1 49/2/1
f 51/2/1 46/2/1 45/2/1
f 51/1/1 45/1/1 50/1/1
f 52/1/1 47/1/1 46/1/1
f 52/2/1 46/2/1 51/2/1
f 53/2/1 48/2/1 47/2/1
f 53/1/1 47/1/1 52/1/1
f 54/2/1 42/2/1 48/2/1
f 54/2/1 48/2/1 53/2/1
f 55/2/2 56/2/2 59/2/2
f 56/1/2 57/1/2 60/1/2
f 59/2/2 56/2/2 60/2/2
f 57/2/2 58/2/2 61/2/2
f 60/1/2 57/1/2 61/1/2
f 61/2/2 58/2/2 62/2/2
f 55/2/2 59/2/2 63/2/2
f 59/1/2 60/1/2 64/1/2
f 63/2/2 59/2/2 64/2/2
f 60/1/2 61/1/2 64/1/2
f 61/1/2 62/1/2 64/1/2
f 64/1/2 62/1/2 65/1/2
f 65/1/2 62/1/2 66/1/2
f 62/2/2 58/2/2 67/2/2
f 66/1/2 62/1/2 67/1/2
f 67/2/2 58/2/2 68/2/2
f 66/1/2 67/1/2 69/1/2
f 67/1/2 68/1/2 69/1/2
f 69/1/2 68/1/2 70/1/2
f 63/1/2 64/1/2 71/1/2
f 64/1/2 65/1/2 71/1/2
f 65/2/2 66/2/2 72/2/2
f 71/1/2 65/1/2 72/1/2
f 66/1/2 69/1/2 73/1/2
f 72/2/2 66/2/2 73/2/2
f 73/1/2 69/1/2 74/1/2
f 69/2/2 70/2/2 75/2/2
f 74/1/2 69/1/2 75/1/2
f 70/1/2 68/1/2 76/1/2
f 75/2/2 70/2/2 76/2/2
f 76/1/2 68/1/2 77/1/2
f 63/1/2 71/1/2 78/1/2
f 73/2/2 74/2/2 78/2/2
f 71/2/2 72/2/2 78/2/2
f 72/2/2 73/2/2 78/2/2
f 78/2/2 74/2/2 79/2/2
f 79/2/2 74/2/2 80/2/2
f 74/1/2 75/1/2 81/1/2
f 80/2/2 74/2/2 81/2/2
f 75/1/2 76/1/2 81/1/2
f 78/1/2 79/1/2 82/1/2
f 63/1/2 78/1/2 82/1/2
f 79/2/2 80/2/2 83/2/2
f 82/1/2 79/1/2 83/1/2
f 80/1/2 81/1/2 84/1/2
f 83/2/2 80/2/2 84/2/2
f 76/2/2 77/2/2 85/2/2
f 84/1/2 81/1/2 85/1/2
f 81/1/2 76/1/2 85/1/2
f 77/1/2 68/1/2 86/1/2
f 85/2/2 77/2/2 86/2/2
f 84/2/2 85/2/2 87/2/2
f 63/1/2 82/1/2 87/1/2
f 83/2/2 84/2/2 87/2/2
f 82/2/2 83/2/2 87/2/2
f 87/2/2 85/2/2 88/2/2
f 88/2/2 85/2/2 89/2/2
f 85/1/2 86/1/2 90/1/2
f 89/2/2 85/2/2 90/2/2
f 63/1/2 87/1/2 91/1/2
f 87/1/2 88/1/2 91/1/2
f 91/1/2 88/1/2 92/1/2
f 88/2/2 89/2/2 93/2/2
f 92/1/2 88/1/2 93/1/2
f 89/1/2 90/1/2 94/1/2
f 93/2/2 89/2/2 94/2/2
f 86/1/2 68/1/2 95/1/2
f 94/1/2 90/1/2 95/1/2
f 90/1/2 86/1/2 95/1/2
f 95/1/2 68/1/2 96/1/2
f 93/1/2 94/1/2 97/1/2
f 91/2/2 92/2/2 97/2/2
f 92/1/2 93/1/2 97/1/2
f 94/1/2 95/1/2 97/1/2
f 97/1/2 95/1/2 98/1/2
f 98/1/2 95/1/2 99/1/2
f 99/1/2 95/1/2 100/1/2
f 100/1/2 95/1/2 101/1/2
f 95/2/2 96/2/2 102/2/2
f 101/1/2 95/1/2 102/1/2
f 91/2/2 97/2/2 103/2/2
f 97/2/2 98/2/2 103/2/2
f 98/1/2 99/1/2 104/1/2
f 103/2/2 98/2/2 104/2/2
f 99/2/2 100/2/2 105/2/2
f 104/1/2 99/1/2 105/1/2
f 100/1/2 101/1/2 106/1/2
f 105/2/2 100/2/2 106/2/2
f 101/2/2 102/2/2 107/2/2
f 106/1/2 101/1/2 107/1/2
f 102/2/2 96/2/2 108/2/2
f 107/2/2 102/2/2 108/2/2
f 113/2/3 110/2/3 109/2/3
f 114/1/3 111/1/3 110/1/3
f 114/2/3 110/2/3 113/2/3
f 115/2/3 112/2/3 111/2/3
f 115/1/3 111/1/3 114/1/3
f 116/2/3 112/2/3 115/2/3
f 117/2/4 118/2/4 121/2/4
f 118/1/4 119/1/4 122/1/4
f 121/2/4 118/2/4 122/2/4
f 119/2/4 120/2/4 123/2/4
f 122/1/4 119/1/4 123/1/4
f 123/2/4 120/2/4 124/2/4
f 127/2/5 126/2/5 125/2/5
f 128/2/5 126/2/5 127/2/5
f 129/1/5 128/1/5 127/1/5
f 130/1/5 128/1/5 129/1/5
f 131/2/5 130/2/5 129/2/5
f 132/2/5 130/2/5 131/2/5
f 133/2/6 134/2/6 135/2/6
f 135/2/6 134/2/6 136/2/6
f 135/1/6 136/1/6 137/1/6
f 137/1/6 136/1/6 138/1/6
f 137/2/6 138/2/6 139/2/6
f 139/2/6 138/2/6 140/2/6
f 139/1/6 140/1/6 141/1/6
f 141/1/6 140/1/6 142/1/6
f 141/2/6 142/2/6 143/2/6
f 143/2/6 142/2/6 144/2/6
